{"glyphs":{"0":{"ha":836,"x_min":0,"x_max":0,"o":"m 389 -7 l 447 -7 b 739 272 643 -7 739 88 l 739 700 b 447 979 739 885 643 979 l 389 979 b 97 700 192 979 97 885 l 97 272 b 389 -7 97 88 192 -7 z m 388 68 b 178 271 243 68 178 131 l 178 701 b 388 904 178 842 243 904 l 449 904 b 658 701 592 904 658 842 l 658 271 b 449 68 658 131 592 68 z "},"1":{"ha":354,"x_min":0,"x_max":0,"o":"m 240 972 l 65 972 b 49 956 54 972 49 968 l 49 915 b 65 899 49 903 54 899 l 176 899 l 176 17 b 193 0 176 6 181 0 l 240 0 b 257 17 253 0 257 6 l 257 956 b 240 972 257 967 253 972 z "},"2":{"ha":771,"x_min":0,"x_max":0,"o":"m 90 0 l 678 0 b 694 17 689 0 694 4 l 694 57 b 678 74 694 69 689 74 l 151 74 l 151 138 b 296 343 151 235 183 288 l 474 431 b 701 719 633 508 701 563 b 433 979 701 894 615 979 l 360 979 b 81 729 192 979 81 906 l 81 708 b 97 692 81 697 85 692 l 144 692 b 161 708 157 692 161 697 b 363 903 161 850 228 903 l 431 903 b 621 719 565 903 621 846 b 444 503 621 604 571 565 l 264 413 b 69 113 110 336 69 276 l 69 21 b 90 0 69 7 76 0 z "},"3":{"ha":786,"x_min":0,"x_max":0,"o":"m 533 503 l 533 513 b 686 719 638 543 686 592 b 415 979 686 894 597 979 l 367 979 b 88 729 199 979 88 906 l 88 708 b 104 692 88 697 92 692 l 151 692 b 168 708 164 692 168 697 b 369 903 168 850 235 903 l 413 903 b 606 719 547 903 606 846 b 383 544 606 594 543 544 l 310 544 b 293 528 299 544 293 540 l 293 488 b 310 471 293 475 299 471 l 383 471 b 629 260 543 471 629 421 b 432 69 629 133 567 69 l 358 69 b 157 264 224 69 157 122 b 140 281 157 275 153 281 l 93 281 b 76 264 81 281 76 275 l 76 243 b 356 -7 76 67 188 -7 l 435 -7 b 710 260 615 -7 710 85 b 533 503 710 428 638 476 z "},"4":{"ha":743,"x_min":0,"x_max":0,"o":"m 664 308 l 567 308 l 567 525 b 550 542 567 536 563 542 l 503 542 b 486 525 490 542 486 536 l 486 308 l 132 308 l 469 953 b 458 972 475 963 472 972 l 404 972 b 383 958 394 972 389 968 l 46 308 b 46 278 40 297 39 290 l 61 250 b 81 235 67 239 72 235 l 486 235 l 486 17 b 503 0 486 6 490 0 l 550 0 b 567 17 563 0 567 6 l 567 235 l 664 235 b 681 251 675 235 681 239 l 681 292 b 664 308 681 304 675 308 z "},"5":{"ha":785,"x_min":0,"x_max":0,"o":"m 349 -7 l 432 -7 b 708 274 613 -7 708 88 l 708 349 b 451 617 708 496 643 617 l 371 617 b 174 536 274 617 201 576 l 165 536 l 197 899 l 638 899 b 654 915 649 899 654 903 l 654 956 b 638 972 654 968 649 972 l 146 972 b 125 951 132 972 126 965 l 83 476 b 103 451 82 460 89 451 l 168 451 b 351 542 193 492 242 542 l 425 542 b 628 340 568 542 628 481 l 628 274 b 429 69 628 133 564 69 l 351 69 b 150 264 217 69 150 122 b 133 281 150 275 146 281 l 86 281 b 69 264 74 281 69 275 l 69 243 b 349 -7 69 67 181 -7 z "},"6":{"ha":819,"x_min":0,"x_max":0,"o":"m 382 -7 l 458 -7 b 743 274 656 -7 743 88 l 743 351 b 486 619 743 499 678 619 l 382 619 b 186 532 286 619 214 578 l 181 532 l 178 718 b 372 904 176 849 236 904 l 443 904 b 638 756 581 904 638 867 b 654 739 638 744 642 739 l 701 739 b 718 756 714 739 718 744 l 718 779 b 446 979 718 925 617 979 l 369 979 b 97 721 188 979 97 899 l 97 272 b 382 -7 97 88 185 -7 z m 381 68 b 178 274 236 68 178 133 l 178 343 b 381 544 178 483 236 544 l 460 544 b 663 343 603 544 663 483 l 663 274 b 460 68 663 133 603 68 z "},"7":{"ha":729,"x_min":0,"x_max":0,"o":"m 139 0 l 182 0 b 207 22 197 0 204 10 b 653 857 282 357 443 618 b 681 899 668 875 681 886 l 681 956 b 664 972 681 968 675 972 l 79 972 b 63 956 68 972 63 968 l 63 915 b 79 899 63 903 68 899 l 590 899 l 590 889 b 124 22 361 629 197 351 b 139 0 121 10 124 0 z "},"8":{"ha":840,"x_min":0,"x_max":0,"o":"m 601 536 b 708 739 672 569 708 635 b 467 979 708 894 626 979 l 374 979 b 132 739 214 979 132 894 b 240 538 132 636 168 569 b 97 299 142 503 97 426 l 97 265 b 382 -7 97 88 185 -7 l 458 -7 b 743 267 656 -7 743 88 l 743 297 b 601 536 743 425 699 503 z m 378 907 l 463 907 b 631 739 576 907 631 856 b 464 571 631 622 578 571 l 379 571 b 210 739 264 571 210 622 b 378 907 210 856 264 907 z m 663 267 b 460 68 663 133 603 68 l 381 68 b 178 267 236 68 178 133 l 178 297 b 381 496 178 431 236 496 l 460 496 b 663 297 603 496 663 431 z "},"9":{"ha":819,"x_min":0,"x_max":0,"o":"m 438 979 l 361 979 b 76 699 164 979 76 885 l 76 621 b 333 353 76 474 142 353 l 438 353 b 633 440 533 353 606 394 l 639 440 l 642 254 b 447 68 643 124 583 68 l 376 68 b 182 217 239 68 182 106 b 165 233 182 228 178 233 l 118 233 b 101 217 106 233 101 228 l 101 193 b 374 -7 101 47 203 -7 l 450 -7 b 722 251 632 -7 722 74 l 722 700 b 438 979 722 885 635 979 z m 439 904 b 642 699 583 904 642 839 l 642 629 b 439 428 642 489 583 428 l 360 428 b 157 629 217 428 157 489 l 157 699 b 360 904 157 839 217 904 z "},"A":{"ha":817,"x_min":0,"x_max":0,"o":"m 760 22 l 481 950 b 456 972 476 964 468 972 l 361 972 b 336 950 349 972 340 964 l 57 22 b 72 0 53 7 60 0 l 119 0 b 143 22 133 0 139 7 l 199 206 l 618 206 l 674 22 b 697 0 678 7 683 0 l 744 0 b 760 22 757 0 764 7 z m 221 279 l 401 879 l 415 879 l 596 279 z "},"Á":{"ha":817,"x_min":0,"x_max":0,"o":"m 388 1040 l 426 1040 b 456 1065 440 1040 443 1050 l 582 1225 b 568 1250 594 1240 583 1250 l 501 1250 b 472 1225 488 1250 482 1242 l 374 1065 b 388 1040 364 1050 374 1040 z m 760 22 l 481 950 b 456 972 476 964 468 972 l 361 972 b 336 950 349 972 340 964 l 57 22 b 72 0 53 7 60 0 l 119 0 b 143 22 133 0 139 7 l 199 206 l 618 206 l 674 22 b 697 0 678 7 683 0 l 744 0 b 760 22 757 0 764 7 z m 221 279 l 401 879 l 415 879 l 596 279 z "},"Ă":{"ha":817,"x_min":0,"x_max":0,"o":"m 381 1064 l 435 1064 b 597 1235 544 1064 597 1121 b 579 1250 597 1246 593 1250 l 546 1250 b 528 1235 532 1250 528 1246 b 431 1126 526 1172 494 1126 l 385 1126 b 288 1235 321 1126 289 1172 b 269 1250 288 1246 283 1250 l 236 1250 b 218 1235 222 1250 218 1246 b 381 1064 218 1121 274 1064 z m 760 22 l 481 950 b 456 972 476 964 468 972 l 361 972 b 336 950 349 972 340 964 l 57 22 b 72 0 53 7 60 0 l 119 0 b 143 22 133 0 139 7 l 199 206 l 618 206 l 674 22 b 697 0 678 7 683 0 l 744 0 b 760 22 757 0 764 7 z m 221 279 l 401 879 l 415 879 l 596 279 z "},"Ǎ":{"ha":817,"x_min":0,"x_max":0,"o":"m 349 1061 b 383 1043 361 1047 368 1043 l 429 1043 b 468 1061 444 1043 456 1046 l 614 1228 b 606 1250 624 1239 619 1250 l 563 1250 b 526 1229 549 1250 542 1247 l 415 1104 l 401 1104 l 290 1229 b 254 1250 275 1247 268 1250 l 211 1250 b 203 1228 197 1250 193 1239 z m 760 22 l 481 950 b 456 972 476 964 468 972 l 361 972 b 336 950 349 972 340 964 l 57 22 b 72 0 53 7 60 0 l 119 0 b 143 22 133 0 139 7 l 199 206 l 618 206 l 674 22 b 697 0 678 7 683 0 l 744 0 b 760 22 757 0 764 7 z m 221 279 l 401 879 l 415 879 l 596 279 z "},"Â":{"ha":817,"x_min":0,"x_max":0,"o":"m 203 1043 l 246 1043 b 282 1064 260 1043 267 1046 l 393 1189 l 407 1189 l 518 1064 b 554 1043 533 1046 540 1043 l 597 1043 b 606 1065 611 1043 615 1054 l 460 1232 b 421 1250 447 1247 436 1250 l 375 1250 b 340 1232 360 1250 353 1246 l 194 1065 b 203 1043 185 1054 189 1043 z m 760 22 l 481 950 b 456 972 476 964 468 972 l 361 972 b 336 950 349 972 340 964 l 57 22 b 72 0 53 7 60 0 l 119 0 b 143 22 133 0 139 7 l 199 206 l 618 206 l 674 22 b 697 0 678 7 683 0 l 744 0 b 760 22 757 0 764 7 z m 221 279 l 401 879 l 415 879 l 596 279 z "},"Ä":{"ha":817,"x_min":0,"x_max":0,"o":"m 190 1160 l 244 1160 b 263 1178 258 1160 263 1164 l 263 1232 b 244 1250 263 1246 258 1250 l 190 1250 b 172 1232 176 1250 172 1246 l 172 1178 b 190 1160 172 1164 176 1160 z m 572 1160 l 626 1160 b 644 1178 640 1160 644 1164 l 644 1232 b 626 1250 644 1246 640 1250 l 572 1250 b 554 1232 558 1250 554 1246 l 554 1178 b 572 1160 554 1164 558 1160 z m 760 22 l 481 950 b 456 972 476 964 468 972 l 361 972 b 336 950 349 972 340 964 l 57 22 b 72 0 53 7 60 0 l 119 0 b 143 22 133 0 139 7 l 199 206 l 618 206 l 674 22 b 697 0 678 7 683 0 l 744 0 b 760 22 757 0 764 7 z m 221 279 l 401 879 l 415 879 l 596 279 z "},"À":{"ha":817,"x_min":0,"x_max":0,"o":"m 363 1065 b 392 1040 375 1050 378 1040 l 431 1040 b 444 1065 444 1040 454 1050 l 346 1225 b 317 1250 336 1242 331 1250 l 250 1250 b 236 1225 235 1250 224 1240 z m 760 22 l 481 950 b 456 972 476 964 468 972 l 361 972 b 336 950 349 972 340 964 l 57 22 b 72 0 53 7 60 0 l 119 0 b 143 22 133 0 139 7 l 199 206 l 618 206 l 674 22 b 697 0 678 7 683 0 l 744 0 b 760 22 757 0 764 7 z m 221 279 l 401 879 l 415 879 l 596 279 z "},"Ā":{"ha":817,"x_min":0,"x_max":0,"o":"m 183 1171 l 633 1171 b 654 1192 646 1171 654 1178 l 654 1229 b 633 1250 654 1243 646 1250 l 183 1250 b 163 1229 169 1250 163 1243 l 163 1192 b 183 1171 163 1178 169 1171 z m 760 22 l 481 950 b 456 972 476 964 468 972 l 361 972 b 336 950 349 972 340 964 l 57 22 b 72 0 53 7 60 0 l 119 0 b 143 22 133 0 139 7 l 199 206 l 618 206 l 674 22 b 697 0 678 7 683 0 l 744 0 b 760 22 757 0 764 7 z m 221 279 l 401 879 l 415 879 l 596 279 z "},"Ą":{"ha":789,"x_min":0,"x_max":0,"o":"m 571 -133 l 694 -118 b 764 -36 744 -112 782 -94 l 753 1 b 760 22 760 4 763 11 l 481 950 b 456 972 476 964 468 972 l 361 972 b 336 950 349 972 340 964 l 57 22 b 72 0 53 7 60 0 l 119 0 b 143 22 133 0 139 7 l 199 206 l 618 206 l 672 26 l 657 26 l 674 -28 b 635 -69 681 -53 674 -65 l 575 -76 b 461 -175 490 -86 461 -93 b 585 -281 461 -254 488 -281 l 731 -281 b 744 -267 740 -281 744 -275 l 744 -235 b 731 -221 744 -225 739 -221 l 597 -221 b 536 -174 547 -221 536 -210 b 571 -133 536 -139 546 -136 z m 221 279 l 401 879 l 415 879 l 596 279 z "},"Å":{"ha":817,"x_min":0,"x_max":0,"o":"m 399 1025 l 417 1025 b 533 1140 485 1025 533 1075 l 533 1156 b 417 1272 533 1221 485 1272 l 399 1272 b 282 1156 331 1272 282 1221 l 282 1140 b 399 1025 282 1075 331 1025 z m 342 1154 b 401 1214 342 1192 363 1214 l 414 1214 b 474 1154 453 1214 474 1192 l 474 1143 b 414 1083 474 1106 453 1083 l 401 1083 b 342 1143 363 1083 342 1106 z m 760 22 l 481 950 b 456 972 476 964 468 972 l 361 972 b 336 950 349 972 340 964 l 57 22 b 72 0 53 7 60 0 l 119 0 b 143 22 133 0 139 7 l 199 206 l 618 206 l 674 22 b 697 0 678 7 683 0 l 744 0 b 760 22 757 0 764 7 z m 221 279 l 401 879 l 415 879 l 596 279 z "},"Ã":{"ha":817,"x_min":0,"x_max":0,"o":"m 200 1164 b 221 1158 204 1154 210 1151 b 301 1185 253 1178 275 1185 b 510 1118 383 1185 419 1118 b 624 1154 549 1118 586 1131 b 633 1176 635 1161 638 1168 l 617 1211 b 596 1217 613 1221 607 1224 b 515 1190 564 1196 542 1190 b 307 1257 433 1190 397 1257 b 193 1221 268 1257 231 1244 b 183 1199 182 1214 179 1207 z m 760 22 l 481 950 b 456 972 476 964 468 972 l 361 972 b 336 950 349 972 340 964 l 57 22 b 72 0 53 7 60 0 l 119 0 b 143 22 133 0 139 7 l 199 206 l 618 206 l 674 22 b 697 0 678 7 683 0 l 744 0 b 760 22 757 0 764 7 z m 221 279 l 401 879 l 415 879 l 596 279 z "},"Æ":{"ha":1236,"x_min":0,"x_max":0,"o":"m 1161 78 l 694 78 l 694 451 l 1119 451 b 1139 469 1133 451 1139 456 l 1139 508 b 1119 526 1139 522 1133 526 l 694 526 l 694 894 l 1158 894 b 1178 913 1172 894 1178 899 l 1178 954 b 1158 972 1178 968 1172 972 l 592 972 b 564 951 578 972 572 965 l 44 21 b 56 0 38 8 42 0 l 108 0 b 136 21 122 0 128 7 l 239 206 l 611 206 l 611 18 b 631 0 611 4 617 0 l 1161 0 b 1181 18 1175 0 1181 4 l 1181 60 b 1161 78 1181 74 1175 78 z m 279 279 l 611 876 l 611 279 z "},"B":{"ha":813,"x_min":0,"x_max":0,"o":"m 597 513 l 597 519 b 701 728 676 554 701 624 b 465 972 701 903 631 972 l 115 972 b 97 954 101 972 97 968 l 97 18 b 115 0 97 4 101 0 l 465 0 b 736 257 638 0 736 67 l 736 296 b 597 513 736 417 689 482 z m 618 732 l 618 710 b 463 542 618 590 574 542 l 181 542 l 181 894 l 463 894 b 618 732 576 894 618 851 z m 653 257 b 465 78 653 121 594 78 l 181 78 l 181 471 l 465 471 b 653 296 594 471 653 435 z "},"C":{"ha":840,"x_min":0,"x_max":0,"o":"m 389 -7 l 469 -7 b 757 249 667 -7 757 81 l 757 254 b 743 268 757 263 751 268 l 688 268 b 674 254 679 268 674 263 b 468 71 674 125 606 71 l 390 71 b 181 274 247 71 181 133 l 181 699 b 390 901 181 839 247 901 l 468 901 b 674 706 606 901 674 846 b 688 692 674 697 679 692 l 743 692 b 757 706 751 692 757 697 l 757 711 b 469 979 757 890 667 979 l 389 979 b 97 700 193 979 97 885 l 97 272 b 389 -7 97 88 193 -7 z "},"Ć":{"ha":840,"x_min":0,"x_max":0,"o":"m 492 1225 l 393 1065 b 407 1040 383 1050 393 1040 l 446 1040 b 475 1065 460 1040 463 1050 l 601 1225 b 588 1250 614 1240 603 1250 l 521 1250 b 492 1225 507 1250 501 1242 z m 389 -7 l 469 -7 b 757 249 667 -7 757 81 l 757 254 b 743 268 757 263 751 268 l 688 268 b 674 254 679 268 674 263 b 468 71 674 125 606 71 l 390 71 b 181 274 247 71 181 133 l 181 699 b 390 901 181 839 247 901 l 468 901 b 674 706 606 901 674 846 b 688 692 674 697 679 692 l 743 692 b 757 706 751 692 757 697 l 757 711 b 469 979 757 890 667 979 l 389 979 b 97 700 193 979 97 885 l 97 272 b 389 -7 97 88 193 -7 z "},"Č":{"ha":840,"x_min":0,"x_max":0,"o":"m 403 1043 l 449 1043 b 488 1061 464 1043 475 1046 l 633 1228 b 625 1250 643 1239 639 1250 l 582 1250 b 546 1229 568 1250 561 1247 l 435 1104 l 421 1104 l 310 1229 b 274 1250 294 1247 288 1250 l 231 1250 b 222 1228 217 1250 213 1239 l 368 1061 b 403 1043 381 1047 388 1043 z m 389 -7 l 469 -7 b 757 249 667 -7 757 81 l 757 254 b 743 268 757 263 751 268 l 688 268 b 674 254 679 268 674 263 b 468 71 674 125 606 71 l 390 71 b 181 274 247 71 181 133 l 181 699 b 390 901 181 839 247 901 l 468 901 b 674 706 606 901 674 846 b 688 692 674 697 679 692 l 743 692 b 757 706 751 692 757 697 l 757 711 b 469 979 757 890 667 979 l 389 979 b 97 700 193 979 97 885 l 97 272 b 389 -7 97 88 193 -7 z "},"Ç":{"ha":840,"x_min":0,"x_max":0,"o":"m 390 901 l 468 901 b 674 706 606 901 674 846 b 688 692 674 697 679 692 l 743 692 b 757 706 751 692 757 697 l 757 711 b 469 979 757 890 667 979 l 389 979 b 97 700 193 979 97 885 l 97 272 b 389 -7 97 88 193 -7 l 390 -7 b 343 -82 356 -42 343 -61 b 397 -129 343 -112 368 -126 b 538 -175 499 -140 538 -142 b 469 -219 538 -212 519 -219 l 440 -219 b 371 -167 388 -219 371 -204 b 357 -156 371 -160 364 -156 l 315 -156 b 303 -169 306 -156 303 -161 b 422 -278 303 -239 332 -278 l 485 -278 b 607 -176 574 -278 607 -246 b 463 -78 607 -89 543 -87 b 469 -7 424 -74 406 -68 b 757 249 667 -7 757 81 l 757 254 b 743 268 757 263 751 268 l 688 268 b 674 254 679 268 674 263 b 468 71 674 125 606 71 l 390 71 b 181 274 247 71 181 133 l 181 699 b 390 901 181 839 247 901 z "},"Ĉ":{"ha":840,"x_min":0,"x_max":0,"o":"m 394 1250 b 360 1232 379 1250 372 1246 l 214 1065 b 222 1043 204 1054 208 1043 l 265 1043 b 301 1064 279 1043 286 1046 l 413 1189 l 426 1189 l 538 1064 b 574 1043 553 1046 560 1043 l 617 1043 b 625 1065 631 1043 635 1054 l 479 1232 b 440 1250 467 1247 456 1250 z m 389 -7 l 469 -7 b 757 249 667 -7 757 81 l 757 254 b 743 268 757 263 751 268 l 688 268 b 674 254 679 268 674 263 b 468 71 674 125 606 71 l 390 71 b 181 274 247 71 181 133 l 181 699 b 390 901 181 839 247 901 l 468 901 b 674 706 606 901 674 846 b 688 692 674 697 679 692 l 743 692 b 757 706 751 692 757 697 l 757 711 b 469 979 757 890 667 979 l 389 979 b 97 700 193 979 97 885 l 97 272 b 389 -7 97 88 193 -7 z "},"Ċ":{"ha":840,"x_min":0,"x_max":0,"o":"m 400 1160 l 454 1160 b 472 1178 468 1160 472 1164 l 472 1232 b 454 1250 472 1246 468 1250 l 400 1250 b 382 1232 386 1250 382 1246 l 382 1178 b 400 1160 382 1164 386 1160 z m 389 -7 l 469 -7 b 757 249 667 -7 757 81 l 757 254 b 743 268 757 263 751 268 l 688 268 b 674 254 679 268 674 263 b 468 71 674 125 606 71 l 390 71 b 181 274 247 71 181 133 l 181 699 b 390 901 181 839 247 901 l 468 901 b 674 706 606 901 674 846 b 688 692 674 697 679 692 l 743 692 b 757 706 751 692 757 697 l 757 711 b 469 979 757 890 667 979 l 389 979 b 97 700 193 979 97 885 l 97 272 b 389 -7 97 88 193 -7 z "},"D":{"ha":847,"x_min":0,"x_max":0,"o":"m 458 972 l 115 972 b 97 954 101 972 97 968 l 97 18 b 115 0 97 4 101 0 l 458 0 b 750 279 654 0 750 94 l 750 693 b 458 972 750 878 654 972 z m 667 281 b 457 78 667 140 600 78 l 181 78 l 181 894 l 457 894 b 667 692 600 894 667 832 z "},"Ð":{"ha":861,"x_min":0,"x_max":0,"o":"m 472 972 l 129 972 b 111 954 115 972 111 968 l 111 525 l 24 525 b 7 508 13 525 7 521 l 7 468 b 24 451 7 456 13 451 l 111 451 l 111 18 b 129 0 111 4 115 0 l 472 0 b 764 279 668 0 764 94 l 764 693 b 472 972 764 878 668 972 z m 681 281 b 471 78 681 140 614 78 l 194 78 l 194 451 l 351 451 b 368 468 363 451 368 456 l 368 508 b 351 525 368 521 363 525 l 194 525 l 194 894 l 471 894 b 681 692 614 894 681 832 z "},"Ď":{"ha":847,"x_min":0,"x_max":0,"o":"m 350 1061 b 385 1043 363 1047 369 1043 l 431 1043 b 469 1061 446 1043 457 1046 l 615 1228 b 607 1250 625 1239 621 1250 l 564 1250 b 528 1229 550 1250 543 1247 l 417 1104 l 403 1104 l 292 1229 b 256 1250 276 1247 269 1250 l 213 1250 b 204 1228 199 1250 194 1239 z m 458 972 l 115 972 b 97 954 101 972 97 968 l 97 18 b 115 0 97 4 101 0 l 458 0 b 750 279 654 0 750 94 l 750 693 b 458 972 750 878 654 972 z m 667 281 b 457 78 667 140 600 78 l 181 78 l 181 894 l 457 894 b 667 692 600 894 667 832 z "},"Đ":{"ha":861,"x_min":0,"x_max":0,"o":"m 472 972 l 129 972 b 111 954 115 972 111 968 l 111 525 l 24 525 b 7 508 13 525 7 521 l 7 468 b 24 451 7 456 13 451 l 111 451 l 111 18 b 129 0 111 4 115 0 l 472 0 b 764 279 668 0 764 94 l 764 693 b 472 972 764 878 668 972 z m 681 281 b 471 78 681 140 614 78 l 194 78 l 194 451 l 351 451 b 368 468 363 451 368 456 l 368 508 b 351 525 368 521 363 525 l 194 525 l 194 894 l 471 894 b 681 692 614 894 681 832 z "},"E":{"ha":722,"x_min":0,"x_max":0,"o":"m 117 0 l 647 0 b 667 18 661 0 667 4 l 667 60 b 647 78 667 74 661 78 l 181 78 l 181 451 l 606 451 b 625 469 619 451 625 456 l 625 508 b 606 526 625 522 619 526 l 181 526 l 181 894 l 644 894 b 664 913 658 894 664 899 l 664 954 b 644 972 664 968 658 972 l 117 972 b 97 954 103 972 97 968 l 97 18 b 117 0 97 4 103 0 z "},"É":{"ha":722,"x_min":0,"x_max":0,"o":"m 450 1225 l 351 1065 b 365 1040 342 1050 351 1040 l 404 1040 b 433 1065 418 1040 421 1050 l 560 1225 b 546 1250 572 1240 561 1250 l 479 1250 b 450 1225 465 1250 460 1242 z m 117 0 l 647 0 b 667 18 661 0 667 4 l 667 60 b 647 78 667 74 661 78 l 181 78 l 181 451 l 606 451 b 625 469 619 451 625 456 l 625 508 b 606 526 625 522 619 526 l 181 526 l 181 894 l 644 894 b 664 913 658 894 664 899 l 664 954 b 644 972 664 968 658 972 l 117 972 b 97 954 103 972 97 968 l 97 18 b 117 0 97 4 103 0 z "},"Ě":{"ha":722,"x_min":0,"x_max":0,"o":"m 361 1043 l 407 1043 b 446 1061 422 1043 433 1046 l 592 1228 b 583 1250 601 1239 597 1250 l 540 1250 b 504 1229 526 1250 519 1247 l 393 1104 l 379 1104 l 268 1229 b 232 1250 253 1247 246 1250 l 189 1250 b 181 1228 175 1250 171 1239 l 326 1061 b 361 1043 339 1047 346 1043 z m 117 0 l 647 0 b 667 18 661 0 667 4 l 667 60 b 647 78 667 74 661 78 l 181 78 l 181 451 l 606 451 b 625 469 619 451 625 456 l 625 508 b 606 526 625 522 619 526 l 181 526 l 181 894 l 644 894 b 664 913 658 894 664 899 l 664 954 b 644 972 664 968 658 972 l 117 972 b 97 954 103 972 97 968 l 97 18 b 117 0 97 4 103 0 z "},"Ȩ":{"ha":722,"x_min":0,"x_max":0,"o":"m 647 78 l 181 78 l 181 451 l 606 451 b 625 469 619 451 625 456 l 625 508 b 606 526 625 522 619 526 l 181 526 l 181 894 l 644 894 b 664 913 658 894 664 899 l 664 954 b 644 972 664 968 658 972 l 117 972 b 97 954 103 972 97 968 l 97 18 b 117 0 97 4 103 0 l 343 0 b 289 -82 303 -39 289 -60 b 343 -129 289 -112 314 -126 b 483 -175 444 -140 483 -142 b 415 -219 483 -212 465 -219 l 386 -219 b 317 -167 333 -219 317 -204 b 303 -156 317 -160 310 -156 l 261 -156 b 249 -169 251 -156 249 -161 b 368 -278 249 -239 278 -278 l 431 -278 b 553 -176 519 -278 553 -246 b 408 -78 553 -89 489 -87 b 422 0 368 -74 350 -68 l 647 0 b 667 18 661 0 667 4 l 667 60 b 647 78 667 74 661 78 z "},"Ê":{"ha":722,"x_min":0,"x_max":0,"o":"m 353 1250 b 318 1232 338 1250 331 1246 l 172 1065 b 181 1043 163 1054 167 1043 l 224 1043 b 260 1064 238 1043 244 1046 l 371 1189 l 385 1189 l 496 1064 b 532 1043 511 1046 518 1043 l 575 1043 b 583 1065 589 1043 593 1054 l 438 1232 b 399 1250 425 1247 414 1250 z m 117 0 l 647 0 b 667 18 661 0 667 4 l 667 60 b 647 78 667 74 661 78 l 181 78 l 181 451 l 606 451 b 625 469 619 451 625 456 l 625 508 b 606 526 625 522 619 526 l 181 526 l 181 894 l 644 894 b 664 913 658 894 664 899 l 664 954 b 644 972 664 968 658 972 l 117 972 b 97 954 103 972 97 968 l 97 18 b 117 0 97 4 103 0 z "},"Ë":{"ha":722,"x_min":0,"x_max":0,"o":"m 168 1160 l 222 1160 b 240 1178 236 1160 240 1164 l 240 1232 b 222 1250 240 1246 236 1250 l 168 1250 b 150 1232 154 1250 150 1246 l 150 1178 b 168 1160 150 1164 154 1160 z m 550 1160 l 604 1160 b 622 1178 618 1160 622 1164 l 622 1232 b 604 1250 622 1246 618 1250 l 550 1250 b 532 1232 536 1250 532 1246 l 532 1178 b 550 1160 532 1164 536 1160 z m 117 0 l 647 0 b 667 18 661 0 667 4 l 667 60 b 647 78 667 74 661 78 l 181 78 l 181 451 l 606 451 b 625 469 619 451 625 456 l 625 508 b 606 526 625 522 619 526 l 181 526 l 181 894 l 644 894 b 664 913 658 894 664 899 l 664 954 b 644 972 664 968 658 972 l 117 972 b 97 954 103 972 97 968 l 97 18 b 117 0 97 4 103 0 z "},"Ė":{"ha":722,"x_min":0,"x_max":0,"o":"m 358 1160 l 413 1160 b 431 1178 426 1160 431 1164 l 431 1232 b 413 1250 431 1246 426 1250 l 358 1250 b 340 1232 344 1250 340 1246 l 340 1178 b 358 1160 340 1164 344 1160 z m 117 0 l 647 0 b 667 18 661 0 667 4 l 667 60 b 647 78 667 74 661 78 l 181 78 l 181 451 l 606 451 b 625 469 619 451 625 456 l 625 508 b 606 526 625 522 619 526 l 181 526 l 181 894 l 644 894 b 664 913 658 894 664 899 l 664 954 b 644 972 664 968 658 972 l 117 972 b 97 954 103 972 97 968 l 97 18 b 117 0 97 4 103 0 z "},"È":{"ha":722,"x_min":0,"x_max":0,"o":"m 324 1225 b 294 1250 314 1242 308 1250 l 228 1250 b 214 1225 213 1250 201 1240 l 340 1065 b 369 1040 353 1050 356 1040 l 408 1040 b 422 1065 422 1040 432 1050 z m 117 0 l 647 0 b 667 18 661 0 667 4 l 667 60 b 647 78 667 74 661 78 l 181 78 l 181 451 l 606 451 b 625 469 619 451 625 456 l 625 508 b 606 526 625 522 619 526 l 181 526 l 181 894 l 644 894 b 664 913 658 894 664 899 l 664 954 b 644 972 664 968 658 972 l 117 972 b 97 954 103 972 97 968 l 97 18 b 117 0 97 4 103 0 z "},"Ē":{"ha":722,"x_min":0,"x_max":0,"o":"m 161 1171 l 611 1171 b 632 1192 624 1171 632 1178 l 632 1229 b 611 1250 632 1243 624 1250 l 161 1250 b 140 1229 147 1250 140 1243 l 140 1192 b 161 1171 140 1178 147 1171 z m 117 0 l 647 0 b 667 18 661 0 667 4 l 667 60 b 647 78 667 74 661 78 l 181 78 l 181 451 l 606 451 b 625 469 619 451 625 456 l 625 508 b 606 526 625 522 619 526 l 181 526 l 181 894 l 644 894 b 664 913 658 894 664 899 l 664 954 b 644 972 664 968 658 972 l 117 972 b 97 954 103 972 97 968 l 97 18 b 117 0 97 4 103 0 z "},"Ę":{"ha":722,"x_min":0,"x_max":0,"o":"m 647 78 l 181 78 l 181 451 l 606 451 b 625 469 619 451 625 456 l 625 508 b 606 526 625 522 619 526 l 181 526 l 181 894 l 644 894 b 664 913 658 894 664 899 l 664 954 b 644 972 664 968 658 972 l 117 972 b 97 954 103 972 97 968 l 97 18 b 117 0 97 4 103 0 l 586 0 l 586 -28 b 542 -69 586 -54 581 -65 l 482 -76 b 368 -175 397 -86 368 -93 b 492 -281 368 -254 394 -281 l 638 -281 b 651 -267 647 -281 651 -275 l 651 -235 b 638 -221 651 -225 646 -221 l 504 -221 b 443 -174 454 -221 443 -210 b 478 -133 443 -139 453 -136 l 601 -118 b 667 -36 651 -112 667 -96 l 667 60 b 647 78 667 74 661 78 z "},"F":{"ha":719,"x_min":0,"x_max":0,"o":"m 644 972 l 115 972 b 97 954 101 972 97 968 l 97 18 b 115 0 97 4 101 0 l 163 0 b 181 18 176 0 181 4 l 181 451 l 607 451 b 626 469 621 451 626 456 l 626 508 b 607 526 626 522 621 526 l 181 526 l 181 894 l 644 894 b 664 913 658 894 664 899 l 664 954 b 644 972 664 968 658 972 z "},"G":{"ha":854,"x_min":0,"x_max":0,"o":"m 389 -7 l 465 -7 b 757 272 661 -7 757 88 l 757 506 b 736 526 757 518 749 526 l 463 526 b 443 508 449 526 443 522 l 443 469 b 463 451 443 456 449 451 l 674 451 l 674 274 b 464 71 674 133 607 71 l 390 71 b 181 274 247 71 181 133 l 181 699 b 390 901 181 839 247 901 l 468 901 b 674 706 606 901 674 846 b 688 692 674 697 679 692 l 743 692 b 757 706 751 692 757 697 l 757 711 b 469 979 757 890 667 979 l 389 979 b 97 700 193 979 97 885 l 97 272 b 389 -7 97 88 193 -7 z "},"Ğ":{"ha":854,"x_min":0,"x_max":0,"o":"m 404 1064 l 458 1064 b 621 1235 568 1064 621 1121 b 603 1250 621 1246 617 1250 l 569 1250 b 551 1235 556 1250 551 1246 b 454 1126 550 1172 518 1126 l 408 1126 b 311 1235 344 1126 313 1172 b 293 1250 311 1246 307 1250 l 260 1250 b 242 1235 246 1250 242 1246 b 404 1064 242 1121 297 1064 z m 389 -7 l 465 -7 b 757 272 661 -7 757 88 l 757 506 b 736 526 757 518 749 526 l 463 526 b 443 508 449 526 443 522 l 443 469 b 463 451 443 456 449 451 l 674 451 l 674 274 b 464 71 674 133 607 71 l 390 71 b 181 274 247 71 181 133 l 181 699 b 390 901 181 839 247 901 l 468 901 b 674 706 606 901 674 846 b 688 692 674 697 679 692 l 743 692 b 757 706 751 692 757 697 l 757 711 b 469 979 757 890 667 979 l 389 979 b 97 700 193 979 97 885 l 97 272 b 389 -7 97 88 193 -7 z "},"Ǧ":{"ha":854,"x_min":0,"x_max":0,"o":"m 407 1043 l 453 1043 b 492 1061 468 1043 479 1046 l 638 1228 b 629 1250 647 1239 643 1250 l 586 1250 b 550 1229 572 1250 565 1247 l 439 1104 l 425 1104 l 314 1229 b 278 1250 299 1247 292 1250 l 235 1250 b 226 1228 221 1250 217 1239 l 372 1061 b 407 1043 385 1047 392 1043 z m 389 -7 l 465 -7 b 757 272 661 -7 757 88 l 757 506 b 736 526 757 518 749 526 l 463 526 b 443 508 449 526 443 522 l 443 469 b 463 451 443 456 449 451 l 674 451 l 674 274 b 464 71 674 133 607 71 l 390 71 b 181 274 247 71 181 133 l 181 699 b 390 901 181 839 247 901 l 468 901 b 674 706 606 901 674 846 b 688 692 674 697 679 692 l 743 692 b 757 706 751 692 757 697 l 757 711 b 469 979 757 890 667 979 l 389 979 b 97 700 193 979 97 885 l 97 272 b 389 -7 97 88 193 -7 z "},"Ĝ":{"ha":854,"x_min":0,"x_max":0,"o":"m 399 1250 b 364 1232 383 1250 376 1246 l 218 1065 b 226 1043 208 1054 213 1043 l 269 1043 b 306 1064 283 1043 290 1046 l 417 1189 l 431 1189 l 542 1064 b 578 1043 557 1046 564 1043 l 621 1043 b 629 1065 635 1043 639 1054 l 483 1232 b 444 1250 471 1247 460 1250 z m 389 -7 l 465 -7 b 757 272 661 -7 757 88 l 757 506 b 736 526 757 518 749 526 l 463 526 b 443 508 449 526 443 522 l 443 469 b 463 451 443 456 449 451 l 674 451 l 674 274 b 464 71 674 133 607 71 l 390 71 b 181 274 247 71 181 133 l 181 699 b 390 901 181 839 247 901 l 468 901 b 674 706 606 901 674 846 b 688 692 674 697 679 692 l 743 692 b 757 706 751 692 757 697 l 757 711 b 469 979 757 890 667 979 l 389 979 b 97 700 193 979 97 885 l 97 272 b 389 -7 97 88 193 -7 z "},"Ģ":{"ha":854,"x_min":0,"x_max":0,"o":"m 389 -7 l 465 -7 b 757 272 661 -7 757 88 l 757 506 b 736 526 757 518 749 526 l 463 526 b 443 508 449 526 443 522 l 443 469 b 463 451 443 456 449 451 l 674 451 l 674 274 b 464 71 674 133 607 71 l 390 71 b 181 274 247 71 181 133 l 181 699 b 390 901 181 839 247 901 l 468 901 b 674 706 606 901 674 846 b 688 692 674 697 679 692 l 743 692 b 757 706 751 692 757 697 l 757 711 b 469 979 757 890 667 979 l 389 979 b 97 700 193 979 97 885 l 97 272 b 389 -7 97 88 193 -7 z m 449 -83 l 411 -83 b 393 -101 397 -83 393 -87 l 393 -297 l 353 -297 b 335 -315 339 -297 335 -301 l 335 -349 b 353 -367 335 -362 339 -367 l 433 -367 b 467 -333 457 -367 467 -357 l 467 -101 b 449 -83 467 -87 463 -83 z "},"Ġ":{"ha":854,"x_min":0,"x_max":0,"o":"m 404 1160 l 458 1160 b 476 1178 472 1160 476 1164 l 476 1232 b 458 1250 476 1246 472 1250 l 404 1250 b 386 1232 390 1250 386 1246 l 386 1178 b 404 1160 386 1164 390 1160 z m 389 -7 l 465 -7 b 757 272 661 -7 757 88 l 757 506 b 736 526 757 518 749 526 l 463 526 b 443 508 449 526 443 522 l 443 469 b 463 451 443 456 449 451 l 674 451 l 674 274 b 464 71 674 133 607 71 l 390 71 b 181 274 247 71 181 133 l 181 699 b 390 901 181 839 247 901 l 468 901 b 674 706 606 901 674 846 b 688 692 674 697 679 692 l 743 692 b 757 706 751 692 757 697 l 757 711 b 469 979 757 890 667 979 l 389 979 b 97 700 193 979 97 885 l 97 272 b 389 -7 97 88 193 -7 z "},"H":{"ha":847,"x_min":0,"x_max":0,"o":"m 732 972 l 685 972 b 667 954 671 972 667 968 l 667 526 l 181 526 l 181 954 b 163 972 181 968 176 972 l 115 972 b 97 954 101 972 97 968 l 97 18 b 115 0 97 4 101 0 l 163 0 b 181 18 176 0 181 4 l 181 451 l 667 451 l 667 18 b 685 0 667 4 671 0 l 732 0 b 750 18 746 0 750 4 l 750 954 b 732 972 750 968 746 972 z "},"Ħ":{"ha":847,"x_min":0,"x_max":0,"o":"m 732 972 l 685 972 b 667 954 671 972 667 968 l 667 728 l 181 728 l 181 954 b 163 972 181 968 176 972 l 115 972 b 97 954 101 972 97 968 l 97 18 b 115 0 97 4 101 0 l 163 0 b 181 18 176 0 181 4 l 181 451 l 667 451 l 667 18 b 685 0 667 4 671 0 l 732 0 b 750 18 746 0 750 4 l 750 954 b 732 972 750 968 746 972 z m 181 526 l 181 653 l 667 653 l 667 526 z "},"Ĥ":{"ha":847,"x_min":0,"x_max":0,"o":"m 218 1043 l 261 1043 b 297 1064 275 1043 282 1046 l 408 1189 l 422 1189 l 533 1064 b 569 1043 549 1046 556 1043 l 613 1043 b 621 1065 626 1043 631 1054 l 475 1232 b 436 1250 463 1247 451 1250 l 390 1250 b 356 1232 375 1250 368 1246 l 210 1065 b 218 1043 200 1054 204 1043 z m 732 972 l 685 972 b 667 954 671 972 667 968 l 667 526 l 181 526 l 181 954 b 163 972 181 968 176 972 l 115 972 b 97 954 101 972 97 968 l 97 18 b 115 0 97 4 101 0 l 163 0 b 181 18 176 0 181 4 l 181 451 l 667 451 l 667 18 b 685 0 667 4 671 0 l 732 0 b 750 18 746 0 750 4 l 750 954 b 732 972 750 968 746 972 z "},"I":{"ha":278,"x_min":0,"x_max":0,"o":"m 115 0 l 163 0 b 181 18 176 0 181 4 l 181 954 b 163 972 181 968 176 972 l 115 972 b 97 954 101 972 97 968 l 97 18 b 115 0 97 4 101 0 z "},"Ĳ":{"ha":778,"x_min":0,"x_max":0,"o":"m 115 0 l 163 0 b 181 18 176 0 181 4 l 181 954 b 163 972 181 968 176 972 l 115 972 b 97 954 101 972 97 968 l 97 18 b 115 0 97 4 101 0 z m 360 -7 l 389 -7 b 681 272 585 -7 681 88 l 681 954 b 663 972 681 968 676 972 l 615 972 b 597 954 601 972 597 968 l 597 274 b 388 71 597 133 531 71 l 360 71 b 340 53 346 71 340 67 l 340 11 b 360 -7 340 -3 346 -7 z "},"Í":{"ha":278,"x_min":0,"x_max":0,"o":"m 203 1225 l 104 1065 b 118 1040 94 1050 104 1040 l 157 1040 b 186 1065 171 1040 174 1050 l 313 1225 b 299 1250 325 1240 314 1250 l 232 1250 b 203 1225 218 1250 213 1242 z m 115 0 l 163 0 b 181 18 176 0 181 4 l 181 954 b 163 972 181 968 176 972 l 115 972 b 97 954 101 972 97 968 l 97 18 b 115 0 97 4 101 0 z "},"Ǐ":{"ha":278,"x_min":0,"x_max":0,"o":"m 114 1043 l 160 1043 b 199 1061 175 1043 186 1046 l 344 1228 b 336 1250 354 1239 350 1250 l 293 1250 b 257 1229 279 1250 272 1247 l 146 1104 l 132 1104 l 21 1229 b -15 1250 6 1247 -1 1250 l -58 1250 b -67 1228 -72 1250 -76 1239 l 79 1061 b 114 1043 92 1047 99 1043 z m 115 0 l 163 0 b 181 18 176 0 181 4 l 181 954 b 163 972 181 968 176 972 l 115 972 b 97 954 101 972 97 968 l 97 18 b 115 0 97 4 101 0 z "},"Î":{"ha":278,"x_min":0,"x_max":0,"o":"m 106 1250 b 71 1232 90 1250 83 1246 l -75 1065 b -67 1043 -85 1054 -81 1043 l -24 1043 b 13 1064 -10 1043 -3 1046 l 124 1189 l 138 1189 l 249 1064 b 285 1043 264 1046 271 1043 l 328 1043 b 336 1065 342 1043 346 1054 l 190 1232 b 151 1250 178 1247 167 1250 z m 115 0 l 163 0 b 181 18 176 0 181 4 l 181 954 b 163 972 181 968 176 972 l 115 972 b 97 954 101 972 97 968 l 97 18 b 115 0 97 4 101 0 z "},"Ï":{"ha":278,"x_min":0,"x_max":0,"o":"m -79 1160 l -25 1160 b -7 1178 -11 1160 -7 1164 l -7 1232 b -25 1250 -7 1246 -11 1250 l -79 1250 b -97 1232 -93 1250 -97 1246 l -97 1178 b -79 1160 -97 1164 -93 1160 z m 303 1160 l 357 1160 b 375 1178 371 1160 375 1164 l 375 1232 b 357 1250 375 1246 371 1250 l 303 1250 b 285 1232 289 1250 285 1246 l 285 1178 b 303 1160 285 1164 289 1160 z m 115 0 l 163 0 b 181 18 176 0 181 4 l 181 954 b 163 972 181 968 176 972 l 115 972 b 97 954 101 972 97 968 l 97 18 b 115 0 97 4 101 0 z "},"İ":{"ha":278,"x_min":0,"x_max":0,"o":"m 111 1160 l 165 1160 b 183 1178 179 1160 183 1164 l 183 1232 b 165 1250 183 1246 179 1250 l 111 1250 b 93 1232 97 1250 93 1246 l 93 1178 b 111 1160 93 1164 97 1160 z m 115 0 l 163 0 b 181 18 176 0 181 4 l 181 954 b 163 972 181 968 176 972 l 115 972 b 97 954 101 972 97 968 l 97 18 b 115 0 97 4 101 0 z "},"Ì":{"ha":278,"x_min":0,"x_max":0,"o":"m 76 1225 b 47 1250 67 1242 61 1250 l -19 1250 b -33 1225 -35 1250 -46 1240 l 93 1065 b 122 1040 106 1050 108 1040 l 161 1040 b 175 1065 175 1040 185 1050 z m 115 0 l 163 0 b 181 18 176 0 181 4 l 181 954 b 163 972 181 968 176 972 l 115 972 b 97 954 101 972 97 968 l 97 18 b 115 0 97 4 101 0 z "},"Ī":{"ha":278,"x_min":0,"x_max":0,"o":"m -86 1171 l 364 1171 b 385 1192 376 1171 385 1178 l 385 1229 b 364 1250 385 1243 376 1250 l -86 1250 b -107 1229 -100 1250 -107 1243 l -107 1192 b -86 1171 -107 1178 -100 1171 z m 115 0 l 163 0 b 181 18 176 0 181 4 l 181 954 b 163 972 181 968 176 972 l 115 972 b 97 954 101 972 97 968 l 97 18 b 115 0 97 4 101 0 z "},"Į":{"ha":251,"x_min":0,"x_max":0,"o":"m 164 972 l 117 972 b 99 954 103 972 99 968 l 99 -28 b 54 -69 99 -54 93 -65 l -4 -76 b -118 -175 -89 -86 -118 -93 b 6 -281 -118 -254 -92 -281 l 151 -281 b 165 -267 161 -281 165 -275 l 165 -235 b 151 -221 165 -225 160 -221 l 18 -221 b -43 -174 -32 -221 -43 -210 b -8 -133 -43 -139 -33 -136 l 115 -118 b 182 -36 165 -112 182 -96 l 182 954 b 164 972 182 968 178 972 z "},"J":{"ha":500,"x_min":0,"x_max":0,"o":"m 82 -7 l 111 -7 b 403 272 307 -7 403 88 l 403 954 b 385 972 403 968 399 972 l 338 972 b 319 954 324 972 319 968 l 319 274 b 110 71 319 133 253 71 l 82 71 b 63 53 68 71 63 67 l 63 11 b 82 -7 63 -3 68 -7 z "},"Ĵ":{"ha":500,"x_min":0,"x_max":0,"o":"m 328 1250 b 293 1232 313 1250 306 1246 l 147 1065 b 156 1043 138 1054 142 1043 l 199 1043 b 235 1064 213 1043 219 1046 l 346 1189 l 360 1189 l 471 1064 b 507 1043 486 1046 493 1043 l 550 1043 b 558 1065 564 1043 568 1054 l 413 1232 b 374 1250 400 1247 389 1250 z m 82 -7 l 111 -7 b 403 272 307 -7 403 88 l 403 954 b 385 972 403 968 399 972 l 338 972 b 319 954 324 972 319 968 l 319 274 b 110 71 319 133 253 71 l 82 71 b 63 53 68 71 63 67 l 63 11 b 82 -7 63 -3 68 -7 z "},"K":{"ha":778,"x_min":0,"x_max":0,"o":"m 718 25 l 340 521 l 686 943 b 679 972 700 960 696 972 l 621 972 b 593 953 608 972 603 965 l 181 442 l 181 954 b 163 972 181 968 176 972 l 115 972 b 97 954 101 972 97 968 l 97 18 b 115 0 97 4 101 0 l 163 0 b 181 18 176 0 181 4 l 181 325 l 288 456 l 619 19 b 656 0 631 6 639 0 l 707 0 b 718 25 724 0 726 14 z "},"Ķ":{"ha":778,"x_min":0,"x_max":0,"o":"m 718 25 l 340 521 l 686 943 b 679 972 700 960 696 972 l 621 972 b 593 953 608 972 603 965 l 181 442 l 181 954 b 163 972 181 968 176 972 l 115 972 b 97 954 101 972 97 968 l 97 18 b 115 0 97 4 101 0 l 163 0 b 181 18 176 0 181 4 l 181 325 l 288 456 l 619 19 b 656 0 631 6 639 0 l 707 0 b 718 25 724 0 726 14 z m 400 -83 l 363 -83 b 344 -101 349 -83 344 -87 l 344 -297 l 304 -297 b 286 -315 290 -297 286 -301 l 286 -349 b 304 -367 286 -362 290 -367 l 385 -367 b 418 -333 408 -367 418 -357 l 418 -101 b 400 -83 418 -87 414 -83 z "},"L":{"ha":694,"x_min":0,"x_max":0,"o":"m 117 0 l 613 0 b 632 18 626 0 632 4 l 632 60 b 613 78 632 74 626 78 l 181 78 l 181 954 b 163 972 181 968 176 972 l 115 972 b 97 954 101 972 97 968 l 97 18 b 117 0 97 4 103 0 z "},"Ĺ":{"ha":694,"x_min":0,"x_max":0,"o":"m 203 1225 l 104 1065 b 118 1040 94 1050 104 1040 l 157 1040 b 186 1065 171 1040 174 1050 l 313 1225 b 299 1250 325 1240 314 1250 l 232 1250 b 203 1225 218 1250 213 1242 z m 117 0 l 613 0 b 632 18 626 0 632 4 l 632 60 b 613 78 632 74 626 78 l 181 78 l 181 954 b 163 972 181 968 176 972 l 115 972 b 97 954 101 972 97 968 l 97 18 b 117 0 97 4 103 0 z "},"Ľ":{"ha":694,"x_min":0,"x_max":0,"o":"m 117 0 l 613 0 b 632 18 626 0 632 4 l 632 60 b 613 78 632 74 626 78 l 181 78 l 181 954 b 163 972 181 968 176 972 l 115 972 b 97 954 101 972 97 968 l 97 18 b 117 0 97 4 103 0 z m 446 972 l 408 972 b 390 954 394 972 390 968 l 390 758 l 350 758 b 332 740 336 758 332 754 l 332 707 b 350 689 332 693 336 689 l 431 689 b 464 722 454 689 464 699 l 464 954 b 446 972 464 968 460 972 z "},"Ļ":{"ha":694,"x_min":0,"x_max":0,"o":"m 117 0 l 613 0 b 632 18 626 0 632 4 l 632 60 b 613 78 632 74 626 78 l 181 78 l 181 954 b 163 972 181 968 176 972 l 115 972 b 97 954 101 972 97 968 l 97 18 b 117 0 97 4 103 0 z m 389 -83 l 351 -83 b 333 -101 338 -83 333 -87 l 333 -297 l 293 -297 b 275 -315 279 -297 275 -301 l 275 -349 b 293 -367 275 -362 279 -367 l 374 -367 b 407 -333 397 -367 407 -357 l 407 -101 b 389 -83 407 -87 403 -83 z "},"Ŀ":{"ha":694,"x_min":0,"x_max":0,"o":"m 117 0 l 613 0 b 632 18 626 0 632 4 l 632 60 b 613 78 632 74 626 78 l 181 78 l 181 954 b 163 972 181 968 176 972 l 115 972 b 97 954 101 972 97 968 l 97 18 b 117 0 97 4 103 0 z m 382 460 l 436 460 b 454 478 450 460 454 464 l 454 532 b 436 550 454 546 450 550 l 382 550 b 364 532 368 550 364 546 l 364 478 b 382 460 364 464 368 460 z "},"Ł":{"ha":743,"x_min":0,"x_max":0,"o":"m 661 78 l 229 78 l 229 372 l 443 631 b 431 653 454 644 447 653 l 379 653 b 347 631 368 653 361 649 l 229 489 l 229 954 b 211 972 229 968 225 972 l 164 972 b 146 954 150 972 146 968 l 146 389 l 13 228 b 26 206 1 214 10 206 l 78 206 b 110 228 89 206 96 210 l 146 271 l 146 18 b 165 0 146 4 151 0 l 661 0 b 681 18 675 0 681 4 l 681 60 b 661 78 681 74 675 78 z "},"M":{"ha":1013,"x_min":0,"x_max":0,"o":"m 115 0 l 163 0 b 181 18 176 0 181 4 l 181 876 l 192 876 l 443 21 b 469 0 447 7 457 0 l 543 0 b 569 21 556 0 565 7 l 821 876 l 832 876 l 832 18 b 850 0 832 4 836 0 l 897 0 b 915 18 911 0 915 4 l 915 954 b 897 972 915 968 911 972 l 788 972 b 763 951 774 972 767 965 l 511 92 l 501 92 l 250 951 b 225 972 246 965 239 972 l 115 972 b 97 954 101 972 97 968 l 97 18 b 115 0 97 4 101 0 z "},"Ḿ":{"ha":1013,"x_min":0,"x_max":0,"o":"m 579 1211 l 481 1051 b 494 1026 471 1036 481 1026 l 533 1026 b 563 1051 547 1026 550 1036 l 689 1211 b 675 1236 701 1226 690 1236 l 608 1236 b 579 1211 594 1236 589 1228 z m 115 0 l 163 0 b 181 18 176 0 181 4 l 181 876 l 192 876 l 443 21 b 469 0 447 7 457 0 l 543 0 b 569 21 556 0 565 7 l 821 876 l 832 876 l 832 18 b 850 0 832 4 836 0 l 897 0 b 915 18 911 0 915 4 l 915 954 b 897 972 915 968 911 972 l 788 972 b 763 951 774 972 767 965 l 511 92 l 501 92 l 250 951 b 225 972 246 965 239 972 l 115 972 b 97 954 101 972 97 968 l 97 18 b 115 0 97 4 101 0 z "},"N":{"ha":833,"x_min":0,"x_max":0,"o":"m 115 0 l 163 0 b 181 18 176 0 181 4 l 181 876 l 192 876 l 592 15 b 617 0 597 4 606 0 l 718 0 b 736 18 732 0 736 4 l 736 954 b 718 972 736 968 732 972 l 671 972 b 653 954 657 972 653 968 l 653 96 l 642 96 l 242 957 b 217 972 236 968 228 972 l 115 972 b 97 954 101 972 97 968 l 97 18 b 115 0 97 4 101 0 z "},"Ń":{"ha":833,"x_min":0,"x_max":0,"o":"m 481 1225 l 382 1065 b 396 1040 372 1050 382 1040 l 435 1040 b 464 1065 449 1040 451 1050 l 590 1225 b 576 1250 603 1240 592 1250 l 510 1250 b 481 1225 496 1250 490 1242 z m 115 0 l 163 0 b 181 18 176 0 181 4 l 181 876 l 192 876 l 592 15 b 617 0 597 4 606 0 l 718 0 b 736 18 732 0 736 4 l 736 954 b 718 972 736 968 732 972 l 671 972 b 653 954 657 972 653 968 l 653 96 l 642 96 l 242 957 b 217 972 236 968 228 972 l 115 972 b 97 954 101 972 97 968 l 97 18 b 115 0 97 4 101 0 z "},"Ň":{"ha":833,"x_min":0,"x_max":0,"o":"m 392 1043 l 438 1043 b 476 1061 453 1043 464 1046 l 622 1228 b 614 1250 632 1239 628 1250 l 571 1250 b 535 1229 557 1250 550 1247 l 424 1104 l 410 1104 l 299 1229 b 263 1250 283 1247 276 1250 l 219 1250 b 211 1228 206 1250 201 1239 l 357 1061 b 392 1043 369 1047 376 1043 z m 115 0 l 163 0 b 181 18 176 0 181 4 l 181 876 l 192 876 l 592 15 b 617 0 597 4 606 0 l 718 0 b 736 18 732 0 736 4 l 736 954 b 718 972 736 968 732 972 l 671 972 b 653 954 657 972 653 968 l 653 96 l 642 96 l 242 957 b 217 972 236 968 228 972 l 115 972 b 97 954 101 972 97 968 l 97 18 b 115 0 97 4 101 0 z "},"Ņ":{"ha":833,"x_min":0,"x_max":0,"o":"m 115 0 l 163 0 b 181 18 176 0 181 4 l 181 876 l 192 876 l 592 15 b 617 0 597 4 606 0 l 718 0 b 736 18 732 0 736 4 l 736 954 b 718 972 736 968 732 972 l 671 972 b 653 954 657 972 653 968 l 653 96 l 642 96 l 242 957 b 217 972 236 968 228 972 l 115 972 b 97 954 101 972 97 968 l 97 18 b 115 0 97 4 101 0 z m 433 -83 l 396 -83 b 378 -101 382 -83 378 -87 l 378 -297 l 338 -297 b 319 -315 324 -297 319 -301 l 319 -349 b 338 -367 319 -362 324 -367 l 418 -367 b 451 -333 442 -367 451 -357 l 451 -101 b 433 -83 451 -87 447 -83 z "},"Ŋ":{"ha":833,"x_min":0,"x_max":0,"o":"m 718 972 l 671 972 b 653 954 657 972 653 968 l 653 96 l 642 96 l 242 957 b 217 972 236 968 228 972 l 115 972 b 97 954 101 972 97 968 l 97 18 b 115 0 97 4 101 0 l 163 0 b 181 18 176 0 181 4 l 181 876 l 192 876 l 592 15 b 617 0 597 4 606 0 l 653 0 l 653 -4 b 443 -207 653 -144 586 -207 l 415 -207 b 396 -225 401 -207 396 -211 l 396 -267 b 415 -285 396 -281 401 -285 l 444 -285 b 736 -6 640 -285 736 -190 l 736 954 b 718 972 736 968 732 972 z "},"Ñ":{"ha":833,"x_min":0,"x_max":0,"o":"m 518 1118 b 632 1154 557 1118 594 1131 b 642 1176 643 1161 646 1168 l 625 1211 b 604 1217 621 1221 615 1224 b 524 1190 572 1196 550 1190 b 315 1257 442 1190 406 1257 b 201 1221 276 1257 239 1244 b 192 1199 190 1214 188 1207 l 208 1164 b 229 1158 213 1154 218 1151 b 310 1185 261 1178 283 1185 b 518 1118 392 1185 428 1118 z m 115 0 l 163 0 b 181 18 176 0 181 4 l 181 876 l 192 876 l 592 15 b 617 0 597 4 606 0 l 718 0 b 736 18 732 0 736 4 l 736 954 b 718 972 736 968 732 972 l 671 972 b 653 954 657 972 653 968 l 653 96 l 642 96 l 242 957 b 217 972 236 968 228 972 l 115 972 b 97 954 101 972 97 968 l 97 18 b 115 0 97 4 101 0 z "},"O":{"ha":868,"x_min":0,"x_max":0,"o":"m 389 -7 l 479 -7 b 771 272 675 -7 771 88 l 771 700 b 479 979 771 885 675 979 l 389 979 b 97 700 192 979 97 885 l 97 272 b 389 -7 97 88 192 -7 z m 390 71 b 181 274 246 71 181 133 l 181 699 b 390 901 181 839 246 901 l 478 901 b 688 699 621 901 688 839 l 688 274 b 478 71 688 133 621 71 z "},"Ó":{"ha":868,"x_min":0,"x_max":0,"o":"m 499 1225 l 400 1065 b 414 1040 390 1050 400 1040 l 453 1040 b 482 1065 467 1040 469 1050 l 608 1225 b 594 1250 621 1240 610 1250 l 528 1250 b 499 1225 514 1250 508 1242 z m 389 -7 l 479 -7 b 771 272 675 -7 771 88 l 771 700 b 479 979 771 885 675 979 l 389 979 b 97 700 192 979 97 885 l 97 272 b 389 -7 97 88 192 -7 z m 390 71 b 181 274 246 71 181 133 l 181 699 b 390 901 181 839 246 901 l 478 901 b 688 699 621 901 688 839 l 688 274 b 478 71 688 133 621 71 z "},"Ǒ":{"ha":868,"x_min":0,"x_max":0,"o":"m 410 1043 l 456 1043 b 494 1061 471 1043 482 1046 l 640 1228 b 632 1250 650 1239 646 1250 l 589 1250 b 553 1229 575 1250 568 1247 l 442 1104 l 428 1104 l 317 1229 b 281 1250 301 1247 294 1250 l 238 1250 b 229 1228 224 1250 219 1239 l 375 1061 b 410 1043 388 1047 394 1043 z m 389 -7 l 479 -7 b 771 272 675 -7 771 88 l 771 700 b 479 979 771 885 675 979 l 389 979 b 97 700 192 979 97 885 l 97 272 b 389 -7 97 88 192 -7 z m 390 71 b 181 274 246 71 181 133 l 181 699 b 390 901 181 839 246 901 l 478 901 b 688 699 621 901 688 839 l 688 274 b 478 71 688 133 621 71 z "},"Ô":{"ha":868,"x_min":0,"x_max":0,"o":"m 401 1250 b 367 1232 386 1250 379 1246 l 221 1065 b 229 1043 211 1054 215 1043 l 272 1043 b 308 1064 286 1043 293 1046 l 419 1189 l 433 1189 l 544 1064 b 581 1043 560 1046 567 1043 l 624 1043 b 632 1065 638 1043 642 1054 l 486 1232 b 447 1250 474 1247 463 1250 z m 389 -7 l 479 -7 b 771 272 675 -7 771 88 l 771 700 b 479 979 771 885 675 979 l 389 979 b 97 700 192 979 97 885 l 97 272 b 389 -7 97 88 192 -7 z m 390 71 b 181 274 246 71 181 133 l 181 699 b 390 901 181 839 246 901 l 478 901 b 688 699 621 901 688 839 l 688 274 b 478 71 688 133 621 71 z "},"Ö":{"ha":868,"x_min":0,"x_max":0,"o":"m 217 1160 l 271 1160 b 289 1178 285 1160 289 1164 l 289 1232 b 271 1250 289 1246 285 1250 l 217 1250 b 199 1232 203 1250 199 1246 l 199 1178 b 217 1160 199 1164 203 1160 z m 599 1160 l 653 1160 b 671 1178 667 1160 671 1164 l 671 1232 b 653 1250 671 1246 667 1250 l 599 1250 b 581 1232 585 1250 581 1246 l 581 1178 b 599 1160 581 1164 585 1160 z m 389 -7 l 479 -7 b 771 272 675 -7 771 88 l 771 700 b 479 979 771 885 675 979 l 389 979 b 97 700 192 979 97 885 l 97 272 b 389 -7 97 88 192 -7 z m 390 71 b 181 274 246 71 181 133 l 181 699 b 390 901 181 839 246 901 l 478 901 b 688 699 621 901 688 839 l 688 274 b 478 71 688 133 621 71 z "},"Ò":{"ha":868,"x_min":0,"x_max":0,"o":"m 372 1225 b 343 1250 363 1242 357 1250 l 276 1250 b 263 1225 261 1250 250 1240 l 389 1065 b 418 1040 401 1050 404 1040 l 457 1040 b 471 1065 471 1040 481 1050 z m 389 -7 l 479 -7 b 771 272 675 -7 771 88 l 771 700 b 479 979 771 885 675 979 l 389 979 b 97 700 192 979 97 885 l 97 272 b 389 -7 97 88 192 -7 z m 390 71 b 181 274 246 71 181 133 l 181 699 b 390 901 181 839 246 901 l 478 901 b 688 699 621 901 688 839 l 688 274 b 478 71 688 133 621 71 z "},"Ő":{"ha":868,"x_min":0,"x_max":0,"o":"m 411 1225 l 313 1065 b 326 1040 303 1050 313 1040 l 365 1040 b 394 1065 379 1040 382 1050 l 521 1225 b 507 1250 533 1240 522 1250 l 440 1250 b 411 1225 426 1250 421 1242 z m 590 1225 l 492 1065 b 506 1040 482 1050 492 1040 l 544 1040 b 574 1065 558 1040 561 1050 l 700 1225 b 686 1250 713 1240 701 1250 l 619 1250 b 590 1225 606 1250 600 1242 z m 389 -7 l 479 -7 b 771 272 675 -7 771 88 l 771 700 b 479 979 771 885 675 979 l 389 979 b 97 700 192 979 97 885 l 97 272 b 389 -7 97 88 192 -7 z m 390 71 b 181 274 246 71 181 133 l 181 699 b 390 901 181 839 246 901 l 478 901 b 688 699 621 901 688 839 l 688 274 b 478 71 688 133 621 71 z "},"Ō":{"ha":868,"x_min":0,"x_max":0,"o":"m 210 1171 l 660 1171 b 681 1192 672 1171 681 1178 l 681 1229 b 660 1250 681 1243 672 1250 l 210 1250 b 189 1229 196 1250 189 1243 l 189 1192 b 210 1171 189 1178 196 1171 z m 389 -7 l 479 -7 b 771 272 675 -7 771 88 l 771 700 b 479 979 771 885 675 979 l 389 979 b 97 700 192 979 97 885 l 97 272 b 389 -7 97 88 192 -7 z m 390 71 b 181 274 246 71 181 133 l 181 699 b 390 901 181 839 246 901 l 478 901 b 688 699 621 901 688 839 l 688 274 b 478 71 688 133 621 71 z "},"Ø":{"ha":868,"x_min":0,"x_max":0,"o":"m 669 932 l 697 999 b 685 1019 703 1013 699 1019 l 638 1019 b 613 999 624 1019 618 1013 l 597 964 b 479 979 564 974 524 979 l 389 979 b 97 700 192 979 97 885 l 97 272 b 200 39 97 161 131 83 l 172 -28 b 185 -49 167 -42 171 -49 l 232 -49 b 257 -28 246 -49 251 -42 l 272 7 b 389 -7 306 -3 344 -7 l 479 -7 b 771 272 675 -7 771 88 l 771 700 b 669 932 771 810 738 888 z m 181 274 l 181 699 b 390 901 181 839 246 901 l 478 901 b 567 890 511 901 540 899 l 235 117 b 181 274 197 150 181 201 z m 688 274 b 478 71 688 133 621 71 l 390 71 b 304 81 357 71 328 74 l 635 854 b 688 699 671 821 688 769 z "},"Õ":{"ha":868,"x_min":0,"x_max":0,"o":"m 536 1118 b 650 1154 575 1118 613 1131 b 660 1176 661 1161 664 1168 l 643 1211 b 622 1217 639 1221 633 1224 b 542 1190 590 1196 568 1190 b 333 1257 460 1190 424 1257 b 219 1221 294 1257 257 1244 b 210 1199 208 1214 206 1207 l 226 1164 b 247 1158 231 1154 236 1151 b 328 1185 279 1178 301 1185 b 536 1118 410 1185 446 1118 z m 389 -7 l 479 -7 b 771 272 675 -7 771 88 l 771 700 b 479 979 771 885 675 979 l 389 979 b 97 700 192 979 97 885 l 97 272 b 389 -7 97 88 192 -7 z m 390 71 b 181 274 246 71 181 133 l 181 699 b 390 901 181 839 246 901 l 478 901 b 688 699 621 901 688 839 l 688 274 b 478 71 688 133 621 71 z "},"Œ":{"ha":1313,"x_min":0,"x_max":0,"o":"m 1238 78 l 771 78 l 771 451 l 1196 451 b 1215 469 1210 451 1215 456 l 1215 508 b 1196 526 1215 522 1210 526 l 771 526 l 771 894 l 1235 894 b 1254 913 1249 894 1254 899 l 1254 954 b 1235 972 1254 968 1249 972 l 707 972 b 688 954 693 972 688 968 l 688 918 b 479 979 639 958 569 979 l 389 979 b 97 700 192 979 97 885 l 97 272 b 389 -7 97 88 192 -7 l 479 -7 b 688 54 569 -7 639 14 l 688 18 b 707 0 688 4 693 0 l 1238 0 b 1257 18 1251 0 1257 4 l 1257 60 b 1238 78 1257 74 1251 78 z m 478 71 l 390 71 b 181 274 246 71 181 133 l 181 699 b 390 901 181 839 246 901 l 478 901 b 688 699 621 901 688 839 l 688 274 b 478 71 688 133 621 71 z "},"P":{"ha":806,"x_min":0,"x_max":0,"o":"m 438 972 l 115 972 b 97 954 101 972 97 968 l 97 18 b 115 0 97 4 101 0 l 163 0 b 181 18 176 0 181 4 l 181 293 l 438 293 b 722 565 636 293 722 378 l 722 700 b 438 972 722 888 636 972 z m 639 567 b 436 371 639 426 579 371 l 181 371 l 181 894 l 436 894 b 639 699 579 894 639 839 z "},"Þ":{"ha":819,"x_min":0,"x_max":0,"o":"m 438 826 l 181 826 l 181 954 b 163 972 181 968 176 972 l 115 972 b 97 954 101 972 97 968 l 97 18 b 115 0 97 4 101 0 l 163 0 b 181 18 176 0 181 4 l 181 147 l 438 147 b 722 419 633 147 722 235 l 722 554 b 438 826 722 739 633 826 z m 639 421 b 436 225 639 281 579 225 l 181 225 l 181 749 l 436 749 b 639 553 579 749 639 693 z "},"Q":{"ha":868,"x_min":0,"x_max":0,"o":"m 479 979 l 389 979 b 97 700 192 979 97 885 l 97 272 b 389 -7 97 88 192 -7 l 393 -7 l 393 -108 b 411 -126 393 -122 397 -126 l 458 -126 b 476 -108 472 -126 476 -122 l 476 -7 l 479 -7 b 771 272 675 -7 771 88 l 771 700 b 479 979 771 885 675 979 z m 688 274 b 478 71 688 133 621 71 l 390 71 b 181 274 246 71 181 133 l 181 699 b 390 901 181 839 246 901 l 478 901 b 688 699 621 901 688 839 z "},"R":{"ha":799,"x_min":0,"x_max":0,"o":"m 722 565 l 722 700 b 438 972 722 888 636 972 l 115 972 b 97 954 101 972 97 968 l 97 18 b 115 0 97 4 101 0 l 163 0 b 181 18 176 0 181 4 l 181 293 l 438 293 b 501 296 461 293 482 294 l 636 15 b 660 0 642 4 649 0 l 704 0 b 719 25 719 0 726 10 l 581 314 b 722 565 678 350 722 432 z m 639 567 b 436 371 639 426 579 371 l 181 371 l 181 894 l 436 894 b 639 699 579 894 639 839 z "},"Ŕ":{"ha":799,"x_min":0,"x_max":0,"o":"m 358 1040 l 397 1040 b 426 1065 411 1040 414 1050 l 553 1225 b 539 1250 565 1240 554 1250 l 472 1250 b 443 1225 458 1250 453 1242 l 344 1065 b 358 1040 335 1050 344 1040 z m 722 565 l 722 700 b 438 972 722 888 636 972 l 115 972 b 97 954 101 972 97 968 l 97 18 b 115 0 97 4 101 0 l 163 0 b 181 18 176 0 181 4 l 181 293 l 438 293 b 501 296 461 293 482 294 l 636 15 b 660 0 642 4 649 0 l 704 0 b 719 25 719 0 726 10 l 581 314 b 722 565 678 350 722 432 z m 639 567 b 436 371 639 426 579 371 l 181 371 l 181 894 l 436 894 b 639 699 579 894 639 839 z "},"Ř":{"ha":799,"x_min":0,"x_max":0,"o":"m 319 1061 b 354 1043 332 1047 339 1043 l 400 1043 b 439 1061 415 1043 426 1046 l 585 1228 b 576 1250 594 1239 590 1250 l 533 1250 b 497 1229 519 1250 513 1247 l 386 1104 l 372 1104 l 261 1229 b 225 1250 246 1247 239 1250 l 182 1250 b 174 1228 168 1250 164 1239 z m 722 565 l 722 700 b 438 972 722 888 636 972 l 115 972 b 97 954 101 972 97 968 l 97 18 b 115 0 97 4 101 0 l 163 0 b 181 18 176 0 181 4 l 181 293 l 438 293 b 501 296 461 293 482 294 l 636 15 b 660 0 642 4 649 0 l 704 0 b 719 25 719 0 726 10 l 581 314 b 722 565 678 350 722 432 z m 639 567 b 436 371 639 426 579 371 l 181 371 l 181 894 l 436 894 b 639 699 579 894 639 839 z "},"Ŗ":{"ha":799,"x_min":0,"x_max":0,"o":"m 722 565 l 722 700 b 438 972 722 888 636 972 l 115 972 b 97 954 101 972 97 968 l 97 18 b 115 0 97 4 101 0 l 163 0 b 181 18 176 0 181 4 l 181 293 l 438 293 b 501 296 461 293 482 294 l 636 15 b 660 0 642 4 649 0 l 704 0 b 719 25 719 0 726 10 l 581 314 b 722 565 678 350 722 432 z m 639 567 b 436 371 639 426 579 371 l 181 371 l 181 894 l 436 894 b 639 699 579 894 639 839 z m 396 -83 l 358 -83 b 340 -101 344 -83 340 -87 l 340 -297 l 300 -297 b 282 -315 286 -297 282 -301 l 282 -349 b 300 -367 282 -362 286 -367 l 381 -367 b 414 -333 404 -367 414 -357 l 414 -101 b 396 -83 414 -87 410 -83 z "},"S":{"ha":799,"x_min":0,"x_max":0,"o":"m 368 -7 l 443 -7 b 722 251 618 -7 722 69 b 425 525 722 457 593 492 l 368 536 b 171 732 253 558 171 585 b 374 901 171 863 244 901 l 424 901 b 618 729 549 901 618 856 b 639 708 618 715 626 708 l 681 708 b 701 729 693 708 701 715 b 425 979 701 904 599 979 l 372 979 b 88 735 199 979 88 915 b 367 460 88 522 207 490 l 424 449 b 639 251 550 424 639 393 b 440 71 639 121 569 71 l 371 71 b 160 236 239 71 160 115 b 139 257 160 250 151 257 l 97 257 b 76 236 85 257 76 250 b 368 -7 76 61 185 -7 z "},"Ś":{"ha":799,"x_min":0,"x_max":0,"o":"m 464 1225 l 365 1065 b 379 1040 356 1050 365 1040 l 418 1040 b 447 1065 432 1040 435 1050 l 574 1225 b 560 1250 586 1240 575 1250 l 493 1250 b 464 1225 479 1250 474 1242 z m 368 -7 l 443 -7 b 722 251 618 -7 722 69 b 425 525 722 457 593 492 l 368 536 b 171 732 253 558 171 585 b 374 901 171 863 244 901 l 424 901 b 618 729 549 901 618 856 b 639 708 618 715 626 708 l 681 708 b 701 729 693 708 701 715 b 425 979 701 904 599 979 l 372 979 b 88 735 199 979 88 915 b 367 460 88 522 207 490 l 424 449 b 639 251 550 424 639 393 b 440 71 639 121 569 71 l 371 71 b 160 236 239 71 160 115 b 139 257 160 250 151 257 l 97 257 b 76 236 85 257 76 250 b 368 -7 76 61 185 -7 z "},"Š":{"ha":799,"x_min":0,"x_max":0,"o":"m 375 1043 l 421 1043 b 460 1061 436 1043 447 1046 l 606 1228 b 597 1250 615 1239 611 1250 l 554 1250 b 518 1229 540 1250 533 1247 l 407 1104 l 393 1104 l 282 1229 b 246 1250 267 1247 260 1250 l 203 1250 b 194 1228 189 1250 185 1239 l 340 1061 b 375 1043 353 1047 360 1043 z m 368 -7 l 443 -7 b 722 251 618 -7 722 69 b 425 525 722 457 593 492 l 368 536 b 171 732 253 558 171 585 b 374 901 171 863 244 901 l 424 901 b 618 729 549 901 618 856 b 639 708 618 715 626 708 l 681 708 b 701 729 693 708 701 715 b 425 979 701 904 599 979 l 372 979 b 88 735 199 979 88 915 b 367 460 88 522 207 490 l 424 449 b 639 251 550 424 639 393 b 440 71 639 121 569 71 l 371 71 b 160 236 239 71 160 115 b 139 257 160 250 151 257 l 97 257 b 76 236 85 257 76 250 b 368 -7 76 61 185 -7 z "},"Ş":{"ha":799,"x_min":0,"x_max":0,"o":"m 442 -7 l 443 -7 b 722 251 618 -7 722 69 b 425 525 722 457 593 492 l 368 536 b 171 732 253 558 171 585 b 374 901 171 863 244 901 l 424 901 b 618 729 549 901 618 856 b 639 708 618 715 626 708 l 681 708 b 701 729 693 708 701 715 b 425 979 701 904 599 979 l 372 979 b 88 735 199 979 88 915 b 367 460 88 522 207 490 l 424 449 b 639 251 550 424 639 393 b 440 71 639 121 569 71 l 371 71 b 160 236 239 71 160 115 b 139 257 160 250 151 257 l 97 257 b 76 236 85 257 76 250 b 363 -7 76 63 182 -6 b 315 -82 328 -42 315 -61 b 369 -129 315 -112 340 -126 b 510 -175 471 -140 510 -142 b 442 -219 510 -212 492 -219 l 413 -219 b 343 -167 360 -219 343 -204 b 329 -156 343 -160 336 -156 l 288 -156 b 275 -169 278 -156 275 -161 b 394 -278 275 -239 304 -278 l 457 -278 b 579 -176 546 -278 579 -246 b 435 -78 579 -89 515 -87 b 442 -7 396 -74 378 -68 z "},"Ŝ":{"ha":799,"x_min":0,"x_max":0,"o":"m 367 1250 b 332 1232 351 1250 344 1246 l 186 1065 b 194 1043 176 1054 181 1043 l 238 1043 b 274 1064 251 1043 258 1046 l 385 1189 l 399 1189 l 510 1064 b 546 1043 525 1046 532 1043 l 589 1043 b 597 1065 603 1043 607 1054 l 451 1232 b 413 1250 439 1247 428 1250 z m 368 -7 l 443 -7 b 722 251 618 -7 722 69 b 425 525 722 457 593 492 l 368 536 b 171 732 253 558 171 585 b 374 901 171 863 244 901 l 424 901 b 618 729 549 901 618 856 b 639 708 618 715 626 708 l 681 708 b 701 729 693 708 701 715 b 425 979 701 904 599 979 l 372 979 b 88 735 199 979 88 915 b 367 460 88 522 207 490 l 424 449 b 639 251 550 424 639 393 b 440 71 639 121 569 71 l 371 71 b 160 236 239 71 160 115 b 139 257 160 250 151 257 l 97 257 b 76 236 85 257 76 250 b 368 -7 76 61 185 -7 z "},"Ș":{"ha":799,"x_min":0,"x_max":0,"o":"m 368 -7 l 443 -7 b 722 251 618 -7 722 69 b 425 525 722 457 593 492 l 368 536 b 171 732 253 558 171 585 b 374 901 171 863 244 901 l 424 901 b 618 729 549 901 618 856 b 639 708 618 715 626 708 l 681 708 b 701 729 693 708 701 715 b 425 979 701 904 599 979 l 372 979 b 88 735 199 979 88 915 b 367 460 88 522 207 490 l 424 449 b 639 251 550 424 639 393 b 440 71 639 121 569 71 l 371 71 b 160 236 239 71 160 115 b 139 257 160 250 151 257 l 97 257 b 76 236 85 257 76 250 b 368 -7 76 61 185 -7 z m 417 -83 l 379 -83 b 361 -101 365 -83 361 -87 l 361 -297 l 321 -297 b 303 -315 307 -297 303 -301 l 303 -349 b 321 -367 303 -362 307 -367 l 401 -367 b 435 -333 425 -367 435 -357 l 435 -101 b 417 -83 435 -87 431 -83 z "},"T":{"ha":735,"x_min":0,"x_max":0,"o":"m 646 972 l 89 972 b 69 954 75 972 69 968 l 69 913 b 89 894 69 899 75 894 l 326 894 l 326 18 b 344 0 326 4 331 0 l 392 0 b 410 18 406 0 410 4 l 410 894 l 646 894 b 665 913 660 894 665 899 l 665 954 b 646 972 665 968 660 972 z "},"Ŧ":{"ha":707,"x_min":0,"x_max":0,"o":"m 646 972 l 89 972 b 69 954 75 972 69 968 l 69 913 b 89 894 69 899 75 894 l 326 894 l 326 664 l 143 664 b 122 643 129 664 122 657 l 122 606 b 143 585 122 592 129 585 l 326 585 l 326 18 b 344 0 326 4 331 0 l 392 0 b 410 18 406 0 410 4 l 410 585 l 593 585 b 614 606 606 585 614 592 l 614 643 b 593 664 614 657 606 664 l 410 664 l 410 894 l 646 894 b 665 913 660 894 665 899 l 665 954 b 646 972 665 968 660 972 z "},"Ť":{"ha":735,"x_min":0,"x_max":0,"o":"m 308 1061 b 343 1043 321 1047 328 1043 l 389 1043 b 428 1061 404 1043 415 1046 l 574 1228 b 565 1250 583 1239 579 1250 l 522 1250 b 486 1229 508 1250 501 1247 l 375 1104 l 361 1104 l 250 1229 b 214 1250 235 1247 228 1250 l 171 1250 b 163 1228 157 1250 153 1239 z m 646 972 l 89 972 b 69 954 75 972 69 968 l 69 913 b 89 894 69 899 75 894 l 326 894 l 326 18 b 344 0 326 4 331 0 l 392 0 b 410 18 406 0 410 4 l 410 894 l 646 894 b 665 913 660 894 665 899 l 665 954 b 646 972 665 968 660 972 z "},"Ţ":{"ha":735,"x_min":0,"x_max":0,"o":"m 646 972 l 89 972 b 69 954 75 972 69 968 l 69 913 b 89 894 69 899 75 894 l 326 894 l 326 18 b 344 0 326 4 331 0 l 338 0 b 283 -82 297 -39 283 -60 b 338 -129 283 -112 308 -126 b 478 -175 439 -140 478 -142 b 410 -219 478 -212 460 -219 l 381 -219 b 311 -167 328 -219 311 -204 b 297 -156 311 -160 304 -156 l 256 -156 b 243 -169 246 -156 243 -161 b 363 -278 243 -239 272 -278 l 425 -278 b 547 -176 514 -278 547 -246 b 403 -78 547 -89 483 -87 b 417 0 363 -74 344 -68 l 392 0 b 410 18 406 0 410 4 l 410 894 l 646 894 b 665 913 660 894 665 899 l 665 954 b 646 972 665 968 660 972 z "},"Ț":{"ha":735,"x_min":0,"x_max":0,"o":"m 646 972 l 89 972 b 69 954 75 972 69 968 l 69 913 b 89 894 69 899 75 894 l 326 894 l 326 18 b 344 0 326 4 331 0 l 392 0 b 410 18 406 0 410 4 l 410 894 l 646 894 b 665 913 660 894 665 899 l 665 954 b 646 972 665 968 660 972 z m 385 -83 l 347 -83 b 329 -101 333 -83 329 -87 l 329 -297 l 289 -297 b 271 -315 275 -297 271 -301 l 271 -349 b 289 -367 271 -362 275 -367 l 369 -367 b 403 -333 393 -367 403 -357 l 403 -101 b 385 -83 403 -87 399 -83 z "},"U":{"ha":868,"x_min":0,"x_max":0,"o":"m 389 -7 l 479 -7 b 771 272 675 -7 771 88 l 771 954 b 753 972 771 968 767 972 l 706 972 b 688 954 692 972 688 968 l 688 274 b 478 71 688 133 621 71 l 390 71 b 181 274 246 71 181 133 l 181 954 b 163 972 181 968 176 972 l 115 972 b 97 954 101 972 97 968 l 97 272 b 389 -7 97 88 192 -7 z "},"Ú":{"ha":868,"x_min":0,"x_max":0,"o":"m 499 1225 l 400 1065 b 414 1040 390 1050 400 1040 l 453 1040 b 482 1065 467 1040 469 1050 l 608 1225 b 594 1250 621 1240 610 1250 l 528 1250 b 499 1225 514 1250 508 1242 z m 389 -7 l 479 -7 b 771 272 675 -7 771 88 l 771 954 b 753 972 771 968 767 972 l 706 972 b 688 954 692 972 688 968 l 688 274 b 478 71 688 133 621 71 l 390 71 b 181 274 246 71 181 133 l 181 954 b 163 972 181 968 176 972 l 115 972 b 97 954 101 972 97 968 l 97 272 b 389 -7 97 88 192 -7 z "},"Ŭ":{"ha":868,"x_min":0,"x_max":0,"o":"m 407 1064 l 461 1064 b 624 1235 571 1064 624 1121 b 606 1250 624 1246 619 1250 l 572 1250 b 554 1235 558 1250 554 1246 b 457 1126 553 1172 521 1126 l 411 1126 b 314 1235 347 1126 315 1172 b 296 1250 314 1246 310 1250 l 263 1250 b 244 1235 249 1250 244 1246 b 407 1064 244 1121 300 1064 z m 389 -7 l 479 -7 b 771 272 675 -7 771 88 l 771 954 b 753 972 771 968 767 972 l 706 972 b 688 954 692 972 688 968 l 688 274 b 478 71 688 133 621 71 l 390 71 b 181 274 246 71 181 133 l 181 954 b 163 972 181 968 176 972 l 115 972 b 97 954 101 972 97 968 l 97 272 b 389 -7 97 88 192 -7 z "},"Û":{"ha":868,"x_min":0,"x_max":0,"o":"m 401 1250 b 367 1232 386 1250 379 1246 l 221 1065 b 229 1043 211 1054 215 1043 l 272 1043 b 308 1064 286 1043 293 1046 l 419 1189 l 433 1189 l 544 1064 b 581 1043 560 1046 567 1043 l 624 1043 b 632 1065 638 1043 642 1054 l 486 1232 b 447 1250 474 1247 463 1250 z m 389 -7 l 479 -7 b 771 272 675 -7 771 88 l 771 954 b 753 972 771 968 767 972 l 706 972 b 688 954 692 972 688 968 l 688 274 b 478 71 688 133 621 71 l 390 71 b 181 274 246 71 181 133 l 181 954 b 163 972 181 968 176 972 l 115 972 b 97 954 101 972 97 968 l 97 272 b 389 -7 97 88 192 -7 z "},"Ü":{"ha":868,"x_min":0,"x_max":0,"o":"m 217 1160 l 271 1160 b 289 1178 285 1160 289 1164 l 289 1232 b 271 1250 289 1246 285 1250 l 217 1250 b 199 1232 203 1250 199 1246 l 199 1178 b 217 1160 199 1164 203 1160 z m 599 1160 l 653 1160 b 671 1178 667 1160 671 1164 l 671 1232 b 653 1250 671 1246 667 1250 l 599 1250 b 581 1232 585 1250 581 1246 l 581 1178 b 599 1160 581 1164 585 1160 z m 389 -7 l 479 -7 b 771 272 675 -7 771 88 l 771 954 b 753 972 771 968 767 972 l 706 972 b 688 954 692 972 688 968 l 688 274 b 478 71 688 133 621 71 l 390 71 b 181 274 246 71 181 133 l 181 954 b 163 972 181 968 176 972 l 115 972 b 97 954 101 972 97 968 l 97 272 b 389 -7 97 88 192 -7 z "},"Ù":{"ha":868,"x_min":0,"x_max":0,"o":"m 372 1225 b 343 1250 363 1242 357 1250 l 276 1250 b 263 1225 261 1250 250 1240 l 389 1065 b 418 1040 401 1050 404 1040 l 457 1040 b 471 1065 471 1040 481 1050 z m 389 -7 l 479 -7 b 771 272 675 -7 771 88 l 771 954 b 753 972 771 968 767 972 l 706 972 b 688 954 692 972 688 968 l 688 274 b 478 71 688 133 621 71 l 390 71 b 181 274 246 71 181 133 l 181 954 b 163 972 181 968 176 972 l 115 972 b 97 954 101 972 97 968 l 97 272 b 389 -7 97 88 192 -7 z "},"Ű":{"ha":868,"x_min":0,"x_max":0,"o":"m 411 1225 l 313 1065 b 326 1040 303 1050 313 1040 l 365 1040 b 394 1065 379 1040 382 1050 l 521 1225 b 507 1250 533 1240 522 1250 l 440 1250 b 411 1225 426 1250 421 1242 z m 590 1225 l 492 1065 b 506 1040 482 1050 492 1040 l 544 1040 b 574 1065 558 1040 561 1050 l 700 1225 b 686 1250 713 1240 701 1250 l 619 1250 b 590 1225 606 1250 600 1242 z m 389 -7 l 479 -7 b 771 272 675 -7 771 88 l 771 954 b 753 972 771 968 767 972 l 706 972 b 688 954 692 972 688 968 l 688 274 b 478 71 688 133 621 71 l 390 71 b 181 274 246 71 181 133 l 181 954 b 163 972 181 968 176 972 l 115 972 b 97 954 101 972 97 968 l 97 272 b 389 -7 97 88 192 -7 z "},"Ū":{"ha":868,"x_min":0,"x_max":0,"o":"m 210 1171 l 660 1171 b 681 1192 672 1171 681 1178 l 681 1229 b 660 1250 681 1243 672 1250 l 210 1250 b 189 1229 196 1250 189 1243 l 189 1192 b 210 1171 189 1178 196 1171 z m 389 -7 l 479 -7 b 771 272 675 -7 771 88 l 771 954 b 753 972 771 968 767 972 l 706 972 b 688 954 692 972 688 968 l 688 274 b 478 71 688 133 621 71 l 390 71 b 181 274 246 71 181 133 l 181 954 b 163 972 181 968 176 972 l 115 972 b 97 954 101 972 97 968 l 97 272 b 389 -7 97 88 192 -7 z "},"Ų":{"ha":868,"x_min":0,"x_max":0,"o":"m 753 972 l 706 972 b 688 954 692 972 688 968 l 688 274 b 478 71 688 133 621 71 l 390 71 b 181 274 246 71 181 133 l 181 954 b 163 972 181 968 176 972 l 115 972 b 97 954 101 972 97 968 l 97 272 b 389 -7 97 88 192 -7 l 440 -7 l 440 -28 b 396 -69 440 -54 435 -65 l 336 -76 b 222 -175 251 -86 222 -93 b 346 -281 222 -254 249 -281 l 492 -281 b 506 -267 501 -281 506 -275 l 506 -235 b 492 -221 506 -225 500 -221 l 358 -221 b 297 -174 308 -221 297 -210 b 332 -133 297 -139 307 -136 l 456 -118 b 521 -36 506 -112 521 -96 l 521 -6 b 771 272 689 7 771 101 l 771 954 b 753 972 771 968 767 972 z "},"Ů":{"ha":868,"x_min":0,"x_max":0,"o":"m 443 1272 l 425 1272 b 308 1156 357 1272 308 1221 l 308 1140 b 425 1025 308 1075 357 1025 l 443 1025 b 560 1140 511 1025 560 1075 l 560 1156 b 443 1272 560 1221 511 1272 z m 500 1154 l 500 1143 b 440 1083 500 1106 479 1083 l 428 1083 b 368 1143 389 1083 368 1106 l 368 1154 b 428 1214 368 1192 389 1214 l 440 1214 b 500 1154 479 1214 500 1192 z m 389 -7 l 479 -7 b 771 272 675 -7 771 88 l 771 954 b 753 972 771 968 767 972 l 706 972 b 688 954 692 972 688 968 l 688 274 b 478 71 688 133 621 71 l 390 71 b 181 274 246 71 181 133 l 181 954 b 163 972 181 968 176 972 l 115 972 b 97 954 101 972 97 968 l 97 272 b 389 -7 97 88 192 -7 z "},"Ũ":{"ha":868,"x_min":0,"x_max":0,"o":"m 536 1118 b 650 1154 575 1118 613 1131 b 660 1176 661 1161 664 1168 l 643 1211 b 622 1217 639 1221 633 1224 b 542 1190 590 1196 568 1190 b 333 1257 460 1190 424 1257 b 219 1221 294 1257 257 1244 b 210 1199 208 1214 206 1207 l 226 1164 b 247 1158 231 1154 236 1151 b 328 1185 279 1178 301 1185 b 536 1118 410 1185 446 1118 z m 389 -7 l 479 -7 b 771 272 675 -7 771 88 l 771 954 b 753 972 771 968 767 972 l 706 972 b 688 954 692 972 688 968 l 688 274 b 478 71 688 133 621 71 l 390 71 b 181 274 246 71 181 133 l 181 954 b 163 972 181 968 176 972 l 115 972 b 97 954 101 972 97 968 l 97 272 b 389 -7 97 88 192 -7 z "},"V":{"ha":817,"x_min":0,"x_max":0,"o":"m 361 0 l 456 0 b 481 22 468 0 476 8 l 760 950 b 744 972 764 965 757 972 l 697 972 b 674 950 683 972 678 965 l 415 93 l 401 93 l 143 950 b 119 972 139 965 133 972 l 72 972 b 57 950 60 972 53 965 l 336 22 b 361 0 340 8 349 0 z "},"W":{"ha":1258,"x_min":0,"x_max":0,"o":"m 1186 972 l 1139 972 b 1115 950 1125 972 1119 965 l 917 94 l 904 94 l 681 950 b 658 972 676 967 672 972 l 600 972 b 578 950 586 972 582 965 l 354 94 l 342 94 l 143 950 b 119 972 139 965 133 972 l 72 972 b 57 950 60 972 53 965 l 275 22 b 300 0 278 8 288 0 l 396 0 b 421 22 408 0 417 8 l 622 825 l 636 825 l 838 22 b 863 0 842 8 850 0 l 958 0 b 983 22 971 0 981 8 l 1201 950 b 1186 972 1206 965 1199 972 z "},"Ẃ":{"ha":1253,"x_min":0,"x_max":0,"o":"m 690 1261 l 592 1101 b 606 1076 582 1086 592 1076 l 644 1076 b 674 1101 658 1076 661 1086 l 800 1261 b 786 1286 813 1276 801 1286 l 719 1286 b 690 1261 706 1286 700 1278 z m 1186 972 l 1139 972 b 1115 950 1125 972 1119 965 l 917 94 l 904 94 l 681 950 b 658 972 676 967 672 972 l 600 972 b 578 950 586 972 582 965 l 354 94 l 342 94 l 143 950 b 119 972 139 965 133 972 l 72 972 b 57 950 60 972 53 965 l 275 22 b 300 0 278 8 288 0 l 396 0 b 421 22 408 0 417 8 l 622 825 l 636 825 l 838 22 b 863 0 842 8 850 0 l 958 0 b 983 22 971 0 981 8 l 1201 950 b 1186 972 1206 965 1199 972 z "},"Ŵ":{"ha":1253,"x_min":0,"x_max":0,"o":"m 578 1286 b 543 1268 563 1286 556 1282 l 397 1101 b 406 1079 388 1090 392 1079 l 449 1079 b 485 1100 463 1079 469 1082 l 596 1225 l 610 1225 l 721 1100 b 757 1079 736 1082 743 1079 l 800 1079 b 808 1101 814 1079 818 1090 l 663 1268 b 624 1286 650 1283 639 1286 z m 1186 972 l 1139 972 b 1115 950 1125 972 1119 965 l 917 94 l 904 94 l 681 950 b 658 972 676 967 672 972 l 600 972 b 578 950 586 972 582 965 l 354 94 l 342 94 l 143 950 b 119 972 139 965 133 972 l 72 972 b 57 950 60 972 53 965 l 275 22 b 300 0 278 8 288 0 l 396 0 b 421 22 408 0 417 8 l 622 825 l 636 825 l 838 22 b 863 0 842 8 850 0 l 958 0 b 983 22 971 0 981 8 l 1201 950 b 1186 972 1206 965 1199 972 z "},"Ẅ":{"ha":1253,"x_min":0,"x_max":0,"o":"m 417 1196 l 471 1196 b 489 1214 485 1196 489 1200 l 489 1268 b 471 1286 489 1282 485 1286 l 417 1286 b 399 1268 403 1286 399 1282 l 399 1214 b 417 1196 399 1200 403 1196 z m 799 1196 l 853 1196 b 871 1214 867 1196 871 1200 l 871 1268 b 853 1286 871 1282 867 1286 l 799 1286 b 781 1268 785 1286 781 1282 l 781 1214 b 799 1196 781 1200 785 1196 z m 1186 972 l 1139 972 b 1115 950 1125 972 1119 965 l 917 94 l 904 94 l 681 950 b 658 972 676 967 672 972 l 600 972 b 578 950 586 972 582 965 l 354 94 l 342 94 l 143 950 b 119 972 139 965 133 972 l 72 972 b 57 950 60 972 53 965 l 275 22 b 300 0 278 8 288 0 l 396 0 b 421 22 408 0 417 8 l 622 825 l 636 825 l 838 22 b 863 0 842 8 850 0 l 958 0 b 983 22 971 0 981 8 l 1201 950 b 1186 972 1206 965 1199 972 z "},"Ẁ":{"ha":1253,"x_min":0,"x_max":0,"o":"m 564 1261 b 535 1286 554 1278 549 1286 l 468 1286 b 454 1261 453 1286 442 1276 l 581 1101 b 610 1076 593 1086 596 1076 l 649 1076 b 663 1101 663 1076 672 1086 z m 1186 972 l 1139 972 b 1115 950 1125 972 1119 965 l 917 94 l 904 94 l 681 950 b 658 972 676 967 672 972 l 600 972 b 578 950 586 972 582 965 l 354 94 l 342 94 l 143 950 b 119 972 139 965 133 972 l 72 972 b 57 950 60 972 53 965 l 275 22 b 300 0 278 8 288 0 l 396 0 b 421 22 408 0 417 8 l 622 825 l 636 825 l 838 22 b 863 0 842 8 850 0 l 958 0 b 983 22 971 0 981 8 l 1201 950 b 1186 972 1206 965 1199 972 z "},"X":{"ha":775,"x_min":0,"x_max":0,"o":"m 82 0 l 139 0 b 165 19 153 0 157 6 l 383 408 l 392 408 l 610 19 b 636 0 618 6 622 0 l 693 0 b 701 19 706 0 710 6 l 435 486 l 700 953 b 692 972 708 967 704 972 l 635 972 b 608 953 621 972 617 967 l 392 564 l 383 564 l 167 953 b 140 972 158 967 154 972 l 83 972 b 75 953 71 972 67 967 l 340 486 l 74 19 b 82 0 65 6 69 0 z "},"Y":{"ha":775,"x_min":0,"x_max":0,"o":"m 707 972 l 650 972 b 625 953 636 972 632 967 l 392 476 l 383 476 l 150 953 b 125 972 143 967 139 972 l 68 972 b 58 951 56 972 51 965 l 346 372 l 346 18 b 364 0 346 4 350 0 l 411 0 b 429 18 425 0 429 4 l 429 372 l 717 951 b 707 972 724 965 719 972 z "},"Ý":{"ha":775,"x_min":0,"x_max":0,"o":"m 367 1040 l 406 1040 b 435 1065 419 1040 422 1050 l 561 1225 b 547 1250 574 1240 563 1250 l 481 1250 b 451 1225 467 1250 461 1242 l 353 1065 b 367 1040 343 1050 353 1040 z m 707 972 l 650 972 b 625 953 636 972 632 967 l 392 476 l 383 476 l 150 953 b 125 972 143 967 139 972 l 68 972 b 58 951 56 972 51 965 l 346 372 l 346 18 b 364 0 346 4 350 0 l 411 0 b 429 18 425 0 429 4 l 429 372 l 717 951 b 707 972 724 965 719 972 z "},"Ŷ":{"ha":775,"x_min":0,"x_max":0,"o":"m 182 1043 l 225 1043 b 261 1064 239 1043 246 1046 l 372 1189 l 386 1189 l 497 1064 b 533 1043 513 1046 519 1043 l 576 1043 b 585 1065 590 1043 594 1054 l 439 1232 b 400 1250 426 1247 415 1250 l 354 1250 b 319 1232 339 1250 332 1246 l 174 1065 b 182 1043 164 1054 168 1043 z m 707 972 l 650 972 b 625 953 636 972 632 967 l 392 476 l 383 476 l 150 953 b 125 972 143 967 139 972 l 68 972 b 58 951 56 972 51 965 l 346 372 l 346 18 b 364 0 346 4 350 0 l 411 0 b 429 18 425 0 429 4 l 429 372 l 717 951 b 707 972 724 965 719 972 z "},"Ÿ":{"ha":775,"x_min":0,"x_max":0,"o":"m 169 1160 l 224 1160 b 242 1178 238 1160 242 1164 l 242 1232 b 224 1250 242 1246 238 1250 l 169 1250 b 151 1232 156 1250 151 1246 l 151 1178 b 169 1160 151 1164 156 1160 z m 551 1160 l 606 1160 b 624 1178 619 1160 624 1164 l 624 1232 b 606 1250 624 1246 619 1250 l 551 1250 b 533 1232 538 1250 533 1246 l 533 1178 b 551 1160 533 1164 538 1160 z m 707 972 l 650 972 b 625 953 636 972 632 967 l 392 476 l 383 476 l 150 953 b 125 972 143 967 139 972 l 68 972 b 58 951 56 972 51 965 l 346 372 l 346 18 b 364 0 346 4 350 0 l 411 0 b 429 18 425 0 429 4 l 429 372 l 717 951 b 707 972 724 965 719 972 z "},"Ỳ":{"ha":775,"x_min":0,"x_max":0,"o":"m 342 1065 b 371 1040 354 1050 357 1040 l 410 1040 b 424 1065 424 1040 433 1050 l 325 1225 b 296 1250 315 1242 310 1250 l 229 1250 b 215 1225 214 1250 203 1240 z m 707 972 l 650 972 b 625 953 636 972 632 967 l 392 476 l 383 476 l 150 953 b 125 972 143 967 139 972 l 68 972 b 58 951 56 972 51 965 l 346 372 l 346 18 b 364 0 346 4 350 0 l 411 0 b 429 18 425 0 429 4 l 429 372 l 717 951 b 707 972 724 965 719 972 z "},"Z":{"ha":722,"x_min":0,"x_max":0,"o":"m 89 0 l 632 0 b 651 18 646 0 651 4 l 651 60 b 632 78 651 74 646 78 l 158 78 l 158 88 l 642 863 b 653 900 651 879 653 889 l 653 954 b 633 972 653 968 647 972 l 100 972 b 81 954 86 972 81 968 l 81 913 b 100 894 81 899 86 894 l 564 894 l 564 885 l 81 110 b 69 72 71 93 69 83 l 69 18 b 89 0 69 4 75 0 z "},"Ź":{"ha":722,"x_min":0,"x_max":0,"o":"m 426 1225 l 328 1065 b 342 1040 318 1050 328 1040 l 381 1040 b 410 1065 394 1040 397 1050 l 536 1225 b 522 1250 549 1240 538 1250 l 456 1250 b 426 1225 442 1250 436 1242 z m 89 0 l 632 0 b 651 18 646 0 651 4 l 651 60 b 632 78 651 74 646 78 l 158 78 l 158 88 l 642 863 b 653 900 651 879 653 889 l 653 954 b 633 972 653 968 647 972 l 100 972 b 81 954 86 972 81 968 l 81 913 b 100 894 81 899 86 894 l 564 894 l 564 885 l 81 110 b 69 72 71 93 69 83 l 69 18 b 89 0 69 4 75 0 z "},"Ž":{"ha":722,"x_min":0,"x_max":0,"o":"m 338 1043 l 383 1043 b 422 1061 399 1043 410 1046 l 568 1228 b 560 1250 578 1239 574 1250 l 517 1250 b 481 1229 503 1250 496 1247 l 369 1104 l 356 1104 l 244 1229 b 208 1250 229 1247 222 1250 l 165 1250 b 157 1228 151 1250 147 1239 l 303 1061 b 338 1043 315 1047 322 1043 z m 89 0 l 632 0 b 651 18 646 0 651 4 l 651 60 b 632 78 651 74 646 78 l 158 78 l 158 88 l 642 863 b 653 900 651 879 653 889 l 653 954 b 633 972 653 968 647 972 l 100 972 b 81 954 86 972 81 968 l 81 913 b 100 894 81 899 86 894 l 564 894 l 564 885 l 81 110 b 69 72 71 93 69 83 l 69 18 b 89 0 69 4 75 0 z "},"Ż":{"ha":722,"x_min":0,"x_max":0,"o":"m 335 1160 l 389 1160 b 407 1178 403 1160 407 1164 l 407 1232 b 389 1250 407 1246 403 1250 l 335 1250 b 317 1232 321 1250 317 1246 l 317 1178 b 335 1160 317 1164 321 1160 z m 89 0 l 632 0 b 651 18 646 0 651 4 l 651 60 b 632 78 651 74 646 78 l 158 78 l 158 88 l 642 863 b 653 900 651 879 653 889 l 653 954 b 633 972 653 968 647 972 l 100 972 b 81 954 86 972 81 968 l 81 913 b 100 894 81 899 86 894 l 564 894 l 564 885 l 81 110 b 69 72 71 93 69 83 l 69 18 b 89 0 69 4 75 0 z "},"a":{"ha":713,"x_min":0,"x_max":0,"o":"m 381 700 l 354 700 b 143 668 263 700 186 685 b 135 651 136 665 133 660 l 143 610 b 160 600 144 601 151 597 b 353 625 208 617 275 625 b 542 467 506 625 542 568 l 542 406 l 282 406 b 69 231 150 406 69 357 l 69 197 b 286 -7 69 68 133 -7 l 293 -7 b 529 108 401 -7 479 43 l 542 108 l 542 17 b 558 0 542 6 546 0 l 606 0 b 622 17 618 0 622 6 l 622 472 b 381 700 622 621 551 700 z m 336 68 l 292 68 b 150 201 199 68 150 107 l 150 225 b 290 339 150 313 201 339 l 542 339 l 542 243 b 336 68 542 156 447 68 z "},"á":{"ha":713,"x_min":0,"x_max":0,"o":"m 350 763 l 389 763 b 418 788 403 763 406 772 l 544 947 b 531 972 557 963 546 972 l 464 972 b 435 947 450 972 444 964 l 336 788 b 350 763 326 772 336 763 z m 381 700 l 354 700 b 143 668 263 700 186 685 b 135 651 136 665 133 660 l 143 610 b 160 600 144 601 151 597 b 353 625 208 617 275 625 b 542 467 506 625 542 568 l 542 406 l 282 406 b 69 231 150 406 69 357 l 69 197 b 286 -7 69 68 133 -7 l 293 -7 b 529 108 401 -7 479 43 l 542 108 l 542 17 b 558 0 542 6 546 0 l 606 0 b 622 17 618 0 622 6 l 622 472 b 381 700 622 621 551 700 z m 336 68 l 292 68 b 150 201 199 68 150 107 l 150 225 b 290 339 150 313 201 339 l 542 339 l 542 243 b 336 68 542 156 447 68 z "},"ă":{"ha":713,"x_min":0,"x_max":0,"o":"m 343 786 l 397 786 b 560 957 507 786 560 843 b 542 972 560 968 556 972 l 508 972 b 490 957 494 972 490 968 b 393 849 489 894 457 849 l 347 849 b 250 957 283 849 251 894 b 232 972 250 968 246 972 l 199 972 b 181 957 185 972 181 968 b 343 786 181 843 236 786 z m 381 700 l 354 700 b 143 668 263 700 186 685 b 135 651 136 665 133 660 l 143 610 b 160 600 144 601 151 597 b 353 625 208 617 275 625 b 542 467 506 625 542 568 l 542 406 l 282 406 b 69 231 150 406 69 357 l 69 197 b 286 -7 69 68 133 -7 l 293 -7 b 529 108 401 -7 479 43 l 542 108 l 542 17 b 558 0 542 6 546 0 l 606 0 b 622 17 618 0 622 6 l 622 472 b 381 700 622 621 551 700 z m 336 68 l 292 68 b 150 201 199 68 150 107 l 150 225 b 290 339 150 313 201 339 l 542 339 l 542 243 b 336 68 542 156 447 68 z "},"ǎ":{"ha":713,"x_min":0,"x_max":0,"o":"m 311 783 b 346 765 324 769 331 765 l 392 765 b 431 783 407 765 418 768 l 576 950 b 568 972 586 961 582 972 l 525 972 b 489 951 511 972 504 969 l 378 826 l 364 826 l 253 951 b 217 972 238 969 231 972 l 174 972 b 165 950 160 972 156 961 z m 381 700 l 354 700 b 143 668 263 700 186 685 b 135 651 136 665 133 660 l 143 610 b 160 600 144 601 151 597 b 353 625 208 617 275 625 b 542 467 506 625 542 568 l 542 406 l 282 406 b 69 231 150 406 69 357 l 69 197 b 286 -7 69 68 133 -7 l 293 -7 b 529 108 401 -7 479 43 l 542 108 l 542 17 b 558 0 542 6 546 0 l 606 0 b 622 17 618 0 622 6 l 622 472 b 381 700 622 621 551 700 z m 336 68 l 292 68 b 150 201 199 68 150 107 l 150 225 b 290 339 150 313 201 339 l 542 339 l 542 243 b 336 68 542 156 447 68 z "},"â":{"ha":713,"x_min":0,"x_max":0,"o":"m 165 765 l 208 765 b 244 786 222 765 229 768 l 356 911 l 369 911 l 481 786 b 517 765 496 768 503 765 l 560 765 b 568 788 574 765 578 776 l 422 954 b 383 972 410 969 399 972 l 338 972 b 303 954 322 972 315 968 l 157 788 b 165 765 147 776 151 765 z m 381 700 l 354 700 b 143 668 263 700 186 685 b 135 651 136 665 133 660 l 143 610 b 160 600 144 601 151 597 b 353 625 208 617 275 625 b 542 467 506 625 542 568 l 542 406 l 282 406 b 69 231 150 406 69 357 l 69 197 b 286 -7 69 68 133 -7 l 293 -7 b 529 108 401 -7 479 43 l 542 108 l 542 17 b 558 0 542 6 546 0 l 606 0 b 622 17 618 0 622 6 l 622 472 b 381 700 622 621 551 700 z m 336 68 l 292 68 b 150 201 199 68 150 107 l 150 225 b 290 339 150 313 201 339 l 542 339 l 542 243 b 336 68 542 156 447 68 z "},"ä":{"ha":713,"x_min":0,"x_max":0,"o":"m 153 882 l 207 882 b 225 900 221 882 225 886 l 225 954 b 207 972 225 968 221 972 l 153 972 b 135 954 139 972 135 968 l 135 900 b 153 882 135 886 139 882 z m 535 882 l 589 882 b 607 900 603 882 607 886 l 607 954 b 589 972 607 968 603 972 l 535 972 b 517 954 521 972 517 968 l 517 900 b 535 882 517 886 521 882 z m 381 700 l 354 700 b 143 668 263 700 186 685 b 135 651 136 665 133 660 l 143 610 b 160 600 144 601 151 597 b 353 625 208 617 275 625 b 542 467 506 625 542 568 l 542 406 l 282 406 b 69 231 150 406 69 357 l 69 197 b 286 -7 69 68 133 -7 l 293 -7 b 529 108 401 -7 479 43 l 542 108 l 542 17 b 558 0 542 6 546 0 l 606 0 b 622 17 618 0 622 6 l 622 472 b 381 700 622 621 551 700 z m 336 68 l 292 68 b 150 201 199 68 150 107 l 150 225 b 290 339 150 313 201 339 l 542 339 l 542 243 b 336 68 542 156 447 68 z "},"à":{"ha":713,"x_min":0,"x_max":0,"o":"m 325 788 b 354 763 338 772 340 763 l 393 763 b 407 788 407 763 417 772 l 308 947 b 279 972 299 964 293 972 l 213 972 b 199 947 197 972 186 963 z m 381 700 l 354 700 b 143 668 263 700 186 685 b 135 651 136 665 133 660 l 143 610 b 160 600 144 601 151 597 b 353 625 208 617 275 625 b 542 467 506 625 542 568 l 542 406 l 282 406 b 69 231 150 406 69 357 l 69 197 b 286 -7 69 68 133 -7 l 293 -7 b 529 108 401 -7 479 43 l 542 108 l 542 17 b 558 0 542 6 546 0 l 606 0 b 622 17 618 0 622 6 l 622 472 b 381 700 622 621 551 700 z m 336 68 l 292 68 b 150 201 199 68 150 107 l 150 225 b 290 339 150 313 201 339 l 542 339 l 542 243 b 336 68 542 156 447 68 z "},"ā":{"ha":713,"x_min":0,"x_max":0,"o":"m 146 893 l 596 893 b 617 914 608 893 617 900 l 617 951 b 596 972 617 965 608 972 l 146 972 b 125 951 132 972 125 965 l 125 914 b 146 893 125 900 132 893 z m 381 700 l 354 700 b 143 668 263 700 186 685 b 135 651 136 665 133 660 l 143 610 b 160 600 144 601 151 597 b 353 625 208 617 275 625 b 542 467 506 625 542 568 l 542 406 l 282 406 b 69 231 150 406 69 357 l 69 197 b 286 -7 69 68 133 -7 l 293 -7 b 529 108 401 -7 479 43 l 542 108 l 542 17 b 558 0 542 6 546 0 l 606 0 b 622 17 618 0 622 6 l 622 472 b 381 700 622 621 551 700 z m 336 68 l 292 68 b 150 201 199 68 150 107 l 150 225 b 290 339 150 313 201 339 l 542 339 l 542 243 b 336 68 542 156 447 68 z "},"ą":{"ha":713,"x_min":0,"x_max":0,"o":"m 381 700 l 354 700 b 143 668 263 700 186 685 b 135 651 136 665 133 660 l 143 610 b 160 600 144 601 151 597 b 353 625 208 617 275 625 b 542 467 506 625 542 568 l 542 406 l 282 406 b 69 231 150 406 69 357 l 69 197 b 286 -7 69 68 133 -7 l 293 -7 b 529 108 401 -7 479 43 l 542 108 l 542 -28 b 497 -69 542 -54 536 -65 l 438 -76 b 324 -175 353 -86 324 -93 b 447 -281 324 -254 350 -281 l 593 -281 b 607 -267 603 -281 607 -275 l 607 -235 b 593 -221 607 -225 601 -221 l 460 -221 b 399 -174 410 -221 399 -210 b 433 -133 399 -139 408 -136 l 557 -118 b 622 -36 607 -112 622 -96 l 622 472 b 381 700 622 621 551 700 z m 336 68 l 292 68 b 150 201 199 68 150 107 l 150 225 b 290 339 150 313 201 339 l 542 339 l 542 243 b 336 68 542 156 447 68 z "},"å":{"ha":713,"x_min":0,"x_max":0,"o":"m 361 747 l 379 747 b 496 863 447 747 496 797 l 496 878 b 379 994 496 943 447 994 l 361 994 b 244 878 293 994 244 943 l 244 863 b 361 747 244 797 293 747 z m 304 876 b 364 936 304 914 325 936 l 376 936 b 436 876 415 936 436 914 l 436 865 b 376 806 436 828 415 806 l 364 806 b 304 865 325 806 304 828 z m 381 700 l 354 700 b 143 668 263 700 186 685 b 135 651 136 665 133 660 l 143 610 b 160 600 144 601 151 597 b 353 625 208 617 275 625 b 542 467 506 625 542 568 l 542 406 l 282 406 b 69 231 150 406 69 357 l 69 197 b 286 -7 69 68 133 -7 l 293 -7 b 529 108 401 -7 479 43 l 542 108 l 542 17 b 558 0 542 6 546 0 l 606 0 b 622 17 618 0 622 6 l 622 472 b 381 700 622 621 551 700 z m 336 68 l 292 68 b 150 201 199 68 150 107 l 150 225 b 290 339 150 313 201 339 l 542 339 l 542 243 b 336 68 542 156 447 68 z "},"ã":{"ha":713,"x_min":0,"x_max":0,"o":"m 163 886 b 183 881 167 876 172 874 b 264 907 215 900 238 907 b 472 840 346 907 382 840 b 586 876 511 840 549 853 b 596 899 597 883 600 890 l 579 933 b 558 939 575 943 569 946 b 478 913 526 918 504 913 b 269 979 396 913 360 979 b 156 943 231 979 193 967 b 146 921 144 936 142 929 z m 381 700 l 354 700 b 143 668 263 700 186 685 b 135 651 136 665 133 660 l 143 610 b 160 600 144 601 151 597 b 353 625 208 617 275 625 b 542 467 506 625 542 568 l 542 406 l 282 406 b 69 231 150 406 69 357 l 69 197 b 286 -7 69 68 133 -7 l 293 -7 b 529 108 401 -7 479 43 l 542 108 l 542 17 b 558 0 542 6 546 0 l 606 0 b 622 17 618 0 622 6 l 622 472 b 381 700 622 621 551 700 z m 336 68 l 292 68 b 150 201 199 68 150 107 l 150 225 b 290 339 150 313 201 339 l 542 339 l 542 243 b 336 68 542 156 447 68 z "},"æ":{"ha":1167,"x_min":0,"x_max":0,"o":"m 847 700 l 785 700 b 586 617 696 700 628 671 b 381 700 550 671 483 700 l 354 700 b 143 668 263 700 186 685 b 135 651 136 665 133 660 l 143 610 b 160 600 144 601 151 597 b 353 625 208 617 275 625 b 542 467 506 625 542 568 l 542 379 l 282 379 b 69 215 150 379 69 328 l 69 183 b 286 -7 69 54 133 -7 l 293 -7 b 558 129 407 -7 510 43 b 811 -7 592 43 675 -7 l 825 -7 b 1061 69 940 -7 1022 31 b 1060 88 1065 74 1065 81 l 1043 111 b 1019 114 1038 119 1032 122 b 825 65 981 88 924 65 l 811 65 b 622 231 678 65 622 132 l 622 314 l 1046 314 b 1090 357 1074 314 1090 331 l 1090 467 b 847 700 1090 617 1003 700 z m 1010 378 l 622 378 l 622 463 b 785 625 622 564 678 625 l 847 625 b 1010 465 957 625 1010 567 z m 542 243 b 336 68 542 156 447 68 l 292 68 b 150 188 199 68 150 93 l 150 211 b 290 314 150 285 201 314 l 542 314 z "},"b":{"ha":719,"x_min":0,"x_max":0,"o":"m 406 700 l 357 700 b 182 615 274 700 214 668 l 171 615 l 171 956 b 154 972 171 967 167 972 l 107 972 b 90 956 94 972 90 967 l 90 17 b 107 0 90 6 94 0 l 154 0 b 171 17 167 0 171 6 l 171 78 l 182 78 b 357 -7 214 25 274 -7 l 406 -7 b 643 228 558 -7 643 72 l 643 465 b 406 700 643 621 558 700 z m 563 233 b 396 68 563 126 508 68 l 335 68 b 171 231 228 68 171 129 l 171 463 b 335 625 171 564 228 625 l 396 625 b 563 460 508 625 563 567 z "},"c":{"ha":688,"x_min":0,"x_max":0,"o":"m 347 -7 l 358 -7 b 607 110 501 -7 571 38 b 597 136 613 122 613 129 l 571 149 b 540 140 553 157 547 151 b 358 67 507 89 469 67 l 350 67 b 157 231 215 67 157 129 l 157 463 b 319 625 157 564 213 625 l 382 625 b 539 490 483 625 539 572 l 539 486 b 556 469 539 475 543 469 l 601 469 b 618 486 614 469 618 475 l 618 492 b 382 700 618 622 528 700 l 319 700 b 76 464 167 700 76 614 l 76 229 b 347 -7 76 79 165 -7 z "},"ć":{"ha":688,"x_min":0,"x_max":0,"o":"m 415 947 l 317 788 b 331 763 307 772 317 763 l 369 763 b 399 788 383 763 386 772 l 525 947 b 511 972 538 963 526 972 l 444 972 b 415 947 431 972 425 964 z m 347 -7 l 358 -7 b 607 110 501 -7 571 38 b 597 136 613 122 613 129 l 571 149 b 540 140 553 157 547 151 b 358 67 507 89 469 67 l 350 67 b 157 231 215 67 157 129 l 157 463 b 319 625 157 564 213 625 l 382 625 b 539 490 483 625 539 572 l 539 486 b 556 469 539 475 543 469 l 601 469 b 618 486 614 469 618 475 l 618 492 b 382 700 618 622 528 700 l 319 700 b 76 464 167 700 76 614 l 76 229 b 347 -7 76 79 165 -7 z "},"č":{"ha":688,"x_min":0,"x_max":0,"o":"m 326 765 l 372 765 b 411 783 388 765 399 768 l 557 950 b 549 972 567 961 563 972 l 506 972 b 469 951 492 972 485 969 l 358 826 l 344 826 l 233 951 b 197 972 218 969 211 972 l 154 972 b 146 950 140 972 136 961 l 292 783 b 326 765 304 769 311 765 z m 347 -7 l 358 -7 b 607 110 501 -7 571 38 b 597 136 613 122 613 129 l 571 149 b 540 140 553 157 547 151 b 358 67 507 89 469 67 l 350 67 b 157 231 215 67 157 129 l 157 463 b 319 625 157 564 213 625 l 382 625 b 539 490 483 625 539 572 l 539 486 b 556 469 539 475 543 469 l 601 469 b 618 486 614 469 618 475 l 618 492 b 382 700 618 622 528 700 l 319 700 b 76 464 167 700 76 614 l 76 229 b 347 -7 76 79 165 -7 z "},"ç":{"ha":688,"x_min":0,"x_max":0,"o":"m 382 700 l 319 700 b 76 464 167 700 76 614 l 76 229 b 315 -6 76 89 154 4 b 267 -82 279 -42 267 -61 b 321 -129 267 -112 292 -126 b 461 -175 422 -140 461 -142 b 393 -219 461 -212 443 -219 l 364 -219 b 294 -167 311 -219 294 -204 b 281 -156 294 -160 288 -156 l 239 -156 b 226 -169 229 -156 226 -161 b 346 -278 226 -239 256 -278 l 408 -278 b 531 -176 497 -278 531 -246 b 386 -78 531 -89 467 -87 b 393 -6 347 -74 329 -68 b 607 110 513 1 574 43 b 597 136 613 122 613 129 l 571 149 b 540 140 553 157 547 151 b 358 67 507 89 469 67 l 350 67 b 157 231 215 67 157 129 l 157 463 b 319 625 157 564 213 625 l 382 625 b 539 490 483 625 539 572 l 539 486 b 556 469 539 475 543 469 l 601 469 b 618 486 614 469 618 475 l 618 492 b 382 700 618 622 528 700 z "},"ĉ":{"ha":688,"x_min":0,"x_max":0,"o":"m 318 972 b 283 954 303 972 296 968 l 138 788 b 146 765 128 776 132 765 l 189 765 b 225 786 203 765 210 768 l 336 911 l 350 911 l 461 786 b 497 765 476 768 483 765 l 540 765 b 549 788 554 765 558 776 l 403 954 b 364 972 390 969 379 972 z m 347 -7 l 358 -7 b 607 110 501 -7 571 38 b 597 136 613 122 613 129 l 571 149 b 540 140 553 157 547 151 b 358 67 507 89 469 67 l 350 67 b 157 231 215 67 157 129 l 157 463 b 319 625 157 564 213 625 l 382 625 b 539 490 483 625 539 572 l 539 486 b 556 469 539 475 543 469 l 601 469 b 618 486 614 469 618 475 l 618 492 b 382 700 618 622 528 700 l 319 700 b 76 464 167 700 76 614 l 76 229 b 347 -7 76 79 165 -7 z "},"ċ":{"ha":688,"x_min":0,"x_max":0,"o":"m 324 882 l 378 882 b 396 900 392 882 396 886 l 396 954 b 378 972 396 968 392 972 l 324 972 b 306 954 310 972 306 968 l 306 900 b 324 882 306 886 310 882 z m 347 -7 l 358 -7 b 607 110 501 -7 571 38 b 597 136 613 122 613 129 l 571 149 b 540 140 553 157 547 151 b 358 67 507 89 469 67 l 350 67 b 157 231 215 67 157 129 l 157 463 b 319 625 157 564 213 625 l 382 625 b 539 490 483 625 539 572 l 539 486 b 556 469 539 475 543 469 l 601 469 b 618 486 614 469 618 475 l 618 492 b 382 700 618 622 528 700 l 319 700 b 76 464 167 700 76 614 l 76 229 b 347 -7 76 79 165 -7 z "},"d":{"ha":719,"x_min":0,"x_max":0,"o":"m 613 972 l 565 972 b 549 956 553 972 549 967 l 549 615 l 538 615 b 363 700 506 668 446 700 l 314 700 b 76 465 161 700 76 621 l 76 228 b 314 -7 76 72 161 -7 l 363 -7 b 538 78 446 -7 506 25 l 549 78 l 549 17 b 565 0 549 6 553 0 l 613 0 b 629 17 625 0 629 6 l 629 956 b 613 972 629 967 625 972 z m 385 68 l 324 68 b 157 233 211 68 157 126 l 157 460 b 324 625 157 567 211 625 l 385 625 b 549 463 492 625 549 564 l 549 231 b 385 68 549 129 492 68 z "},"ð":{"ha":708,"x_min":0,"x_max":0,"o":"m 708 929 l 629 929 l 629 956 b 613 972 629 967 625 972 l 565 972 b 549 956 553 972 549 967 l 549 883 l 371 763 l 463 763 l 549 821 l 549 615 l 538 615 b 363 700 506 668 446 700 l 314 700 b 76 465 161 700 76 621 l 76 228 b 314 -7 76 72 161 -7 l 363 -7 b 538 78 446 -7 506 25 l 549 78 l 549 17 b 565 0 549 6 553 0 l 613 0 b 629 17 625 0 629 6 l 629 875 z m 385 68 l 324 68 b 157 233 211 68 157 126 l 157 460 b 324 625 157 567 211 625 l 385 625 b 549 463 492 625 549 564 l 549 231 b 385 68 549 129 492 68 z "},"ď":{"ha":736,"x_min":0,"x_max":0,"o":"m 613 972 l 565 972 b 549 956 553 972 549 967 l 549 615 l 538 615 b 363 700 506 668 446 700 l 314 700 b 76 465 161 700 76 621 l 76 228 b 314 -7 76 72 161 -7 l 363 -7 b 538 78 446 -7 506 25 l 549 78 l 549 17 b 565 0 549 6 553 0 l 613 0 b 629 17 625 0 629 6 l 629 956 b 613 972 629 967 625 972 z m 781 972 l 743 972 b 725 954 729 972 725 968 l 725 758 l 685 758 b 667 740 671 758 667 754 l 667 707 b 685 689 667 693 671 689 l 765 689 b 799 722 789 689 799 699 l 799 954 b 781 972 799 968 794 972 z m 385 68 l 324 68 b 157 233 211 68 157 126 l 157 460 b 324 625 157 567 211 625 l 385 625 b 549 463 492 625 549 564 l 549 231 b 385 68 549 129 492 68 z "},"đ":{"ha":701,"x_min":0,"x_max":0,"o":"m 714 856 l 629 856 l 629 956 b 613 972 629 967 625 972 l 565 972 b 549 956 553 972 549 967 l 549 856 l 264 856 b 243 835 250 856 243 849 l 243 797 b 264 776 243 783 250 776 l 549 776 l 549 615 l 538 615 b 363 700 506 668 446 700 l 314 700 b 76 465 161 700 76 621 l 76 228 b 314 -7 76 72 161 -7 l 363 -7 b 538 78 446 -7 506 25 l 549 78 l 549 17 b 565 0 549 6 553 0 l 613 0 b 629 17 625 0 629 6 l 629 776 l 714 776 b 735 797 726 776 735 783 l 735 835 b 714 856 735 849 726 856 z m 385 68 l 324 68 b 157 233 211 68 157 126 l 157 460 b 324 625 157 567 211 625 l 385 625 b 549 463 492 625 549 564 l 549 231 b 385 68 549 129 492 68 z "},"e":{"ha":701,"x_min":0,"x_max":0,"o":"m 360 -7 b 596 69 475 -7 557 31 b 594 88 600 74 600 81 l 578 111 b 554 114 572 119 567 122 b 360 65 515 88 458 65 l 346 65 b 157 231 213 65 157 132 l 157 314 l 581 314 b 625 357 608 314 625 331 l 625 467 b 382 700 625 617 538 700 l 319 700 b 76 464 167 700 76 614 l 76 229 b 346 -7 76 83 163 -7 z m 157 378 l 157 463 b 319 625 157 564 213 625 l 382 625 b 544 465 492 625 544 567 l 544 378 z "},"é":{"ha":701,"x_min":0,"x_max":0,"o":"m 417 947 l 318 788 b 332 763 308 772 318 763 l 371 763 b 400 788 385 763 388 772 l 526 947 b 513 972 539 963 528 972 l 446 972 b 417 947 432 972 426 964 z m 360 -7 b 596 69 475 -7 557 31 b 594 88 600 74 600 81 l 578 111 b 554 114 572 119 567 122 b 360 65 515 88 458 65 l 346 65 b 157 231 213 65 157 132 l 157 314 l 581 314 b 625 357 608 314 625 331 l 625 467 b 382 700 625 617 538 700 l 319 700 b 76 464 167 700 76 614 l 76 229 b 346 -7 76 83 163 -7 z m 157 378 l 157 463 b 319 625 157 564 213 625 l 382 625 b 544 465 492 625 544 567 l 544 378 z "},"ě":{"ha":701,"x_min":0,"x_max":0,"o":"m 328 765 l 374 765 b 413 783 389 765 400 768 l 558 950 b 550 972 568 961 564 972 l 507 972 b 471 951 493 972 486 969 l 360 826 l 346 826 l 235 951 b 199 972 219 969 213 972 l 156 972 b 147 950 142 972 138 961 l 293 783 b 328 765 306 769 313 765 z m 360 -7 b 596 69 475 -7 557 31 b 594 88 600 74 600 81 l 578 111 b 554 114 572 119 567 122 b 360 65 515 88 458 65 l 346 65 b 157 231 213 65 157 132 l 157 314 l 581 314 b 625 357 608 314 625 331 l 625 467 b 382 700 625 617 538 700 l 319 700 b 76 464 167 700 76 614 l 76 229 b 346 -7 76 83 163 -7 z m 157 378 l 157 463 b 319 625 157 564 213 625 l 382 625 b 544 465 492 625 544 567 l 544 378 z "},"ȩ":{"ha":701,"x_min":0,"x_max":0,"o":"m 382 700 l 319 700 b 76 464 167 700 76 614 l 76 229 b 313 -6 76 93 151 4 b 264 -82 276 -42 264 -61 b 318 -129 264 -112 289 -126 b 458 -175 419 -140 458 -142 b 390 -219 458 -212 440 -219 l 361 -219 b 292 -167 308 -219 292 -204 b 278 -156 292 -160 285 -156 l 236 -156 b 224 -169 226 -156 224 -161 b 343 -278 224 -239 253 -278 l 406 -278 b 528 -176 494 -278 528 -246 b 383 -78 528 -89 464 -87 b 390 -6 344 -74 326 -68 b 596 69 490 0 561 35 b 594 88 600 74 600 81 l 578 111 b 554 114 572 119 567 122 b 360 65 515 88 458 65 l 346 65 b 157 231 213 65 157 132 l 157 314 l 581 314 b 625 357 608 314 625 331 l 625 467 b 382 700 625 617 538 700 z m 544 378 l 157 378 l 157 463 b 319 625 157 564 213 625 l 382 625 b 544 465 492 625 544 567 z "},"ê":{"ha":701,"x_min":0,"x_max":0,"o":"m 319 972 b 285 954 304 972 297 968 l 139 788 b 147 765 129 776 133 765 l 190 765 b 226 786 204 765 211 768 l 338 911 l 351 911 l 463 786 b 499 765 478 768 485 765 l 542 765 b 550 788 556 765 560 776 l 404 954 b 365 972 392 969 381 972 z m 360 -7 b 596 69 475 -7 557 31 b 594 88 600 74 600 81 l 578 111 b 554 114 572 119 567 122 b 360 65 515 88 458 65 l 346 65 b 157 231 213 65 157 132 l 157 314 l 581 314 b 625 357 608 314 625 331 l 625 467 b 382 700 625 617 538 700 l 319 700 b 76 464 167 700 76 614 l 76 229 b 346 -7 76 83 163 -7 z m 157 378 l 157 463 b 319 625 157 564 213 625 l 382 625 b 544 465 492 625 544 567 l 544 378 z "},"ë":{"ha":701,"x_min":0,"x_max":0,"o":"m 135 882 l 189 882 b 207 900 203 882 207 886 l 207 954 b 189 972 207 968 203 972 l 135 972 b 117 954 121 972 117 968 l 117 900 b 135 882 117 886 121 882 z m 517 882 l 571 882 b 589 900 585 882 589 886 l 589 954 b 571 972 589 968 585 972 l 517 972 b 499 954 503 972 499 968 l 499 900 b 517 882 499 886 503 882 z m 360 -7 b 596 69 475 -7 557 31 b 594 88 600 74 600 81 l 578 111 b 554 114 572 119 567 122 b 360 65 515 88 458 65 l 346 65 b 157 231 213 65 157 132 l 157 314 l 581 314 b 625 357 608 314 625 331 l 625 467 b 382 700 625 617 538 700 l 319 700 b 76 464 167 700 76 614 l 76 229 b 346 -7 76 83 163 -7 z m 157 378 l 157 463 b 319 625 157 564 213 625 l 382 625 b 544 465 492 625 544 567 l 544 378 z "},"ė":{"ha":701,"x_min":0,"x_max":0,"o":"m 325 882 l 379 882 b 397 900 393 882 397 886 l 397 954 b 379 972 397 968 393 972 l 325 972 b 307 954 311 972 307 968 l 307 900 b 325 882 307 886 311 882 z m 360 -7 b 596 69 475 -7 557 31 b 594 88 600 74 600 81 l 578 111 b 554 114 572 119 567 122 b 360 65 515 88 458 65 l 346 65 b 157 231 213 65 157 132 l 157 314 l 581 314 b 625 357 608 314 625 331 l 625 467 b 382 700 625 617 538 700 l 319 700 b 76 464 167 700 76 614 l 76 229 b 346 -7 76 83 163 -7 z m 157 378 l 157 463 b 319 625 157 564 213 625 l 382 625 b 544 465 492 625 544 567 l 544 378 z "},"è":{"ha":701,"x_min":0,"x_max":0,"o":"m 290 947 b 261 972 281 964 275 972 l 194 972 b 181 947 179 972 168 963 l 307 788 b 336 763 319 772 322 763 l 375 763 b 389 788 389 763 399 772 z m 360 -7 b 596 69 475 -7 557 31 b 594 88 600 74 600 81 l 578 111 b 554 114 572 119 567 122 b 360 65 515 88 458 65 l 346 65 b 157 231 213 65 157 132 l 157 314 l 581 314 b 625 357 608 314 625 331 l 625 467 b 382 700 625 617 538 700 l 319 700 b 76 464 167 700 76 614 l 76 229 b 346 -7 76 83 163 -7 z m 157 378 l 157 463 b 319 625 157 564 213 625 l 382 625 b 544 465 492 625 544 567 l 544 378 z "},"ē":{"ha":701,"x_min":0,"x_max":0,"o":"m 128 893 l 578 893 b 599 914 590 893 599 900 l 599 951 b 578 972 599 965 590 972 l 128 972 b 107 951 114 972 107 965 l 107 914 b 128 893 107 900 114 893 z m 360 -7 b 596 69 475 -7 557 31 b 594 88 600 74 600 81 l 578 111 b 554 114 572 119 567 122 b 360 65 515 88 458 65 l 346 65 b 157 231 213 65 157 132 l 157 314 l 581 314 b 625 357 608 314 625 331 l 625 467 b 382 700 625 617 538 700 l 319 700 b 76 464 167 700 76 614 l 76 229 b 346 -7 76 83 163 -7 z m 157 378 l 157 463 b 319 625 157 564 213 625 l 382 625 b 544 465 492 625 544 567 l 544 378 z "},"ę":{"ha":701,"x_min":0,"x_max":0,"o":"m 382 700 l 319 700 b 76 464 167 700 76 614 l 76 229 b 346 -7 76 83 163 -7 l 360 -7 l 379 -7 l 379 -28 b 335 -69 379 -54 374 -65 l 275 -76 b 161 -175 190 -86 161 -93 b 285 -281 161 -254 188 -281 l 431 -281 b 444 -267 440 -281 444 -275 l 444 -235 b 431 -221 444 -225 439 -221 l 297 -221 b 236 -174 247 -221 236 -210 b 271 -133 236 -139 246 -136 l 394 -118 b 460 -36 444 -112 460 -96 l 460 3 b 596 69 524 17 569 43 b 594 88 600 74 600 81 l 578 111 b 554 114 572 119 567 122 b 360 65 515 88 458 65 l 346 65 b 157 231 213 65 157 132 l 157 314 l 581 314 b 625 357 608 314 625 331 l 625 467 b 382 700 625 617 538 700 z m 544 378 l 157 378 l 157 463 b 319 625 157 564 213 625 l 382 625 b 544 465 492 625 544 567 z "},"f":{"ha":486,"x_min":0,"x_max":0,"o":"m 417 972 l 349 972 b 150 758 214 972 150 900 l 150 694 l 72 694 b 56 678 61 694 56 690 l 56 638 b 72 621 56 625 61 621 l 150 621 l 150 17 b 167 0 150 6 154 0 l 214 0 b 231 17 226 0 231 6 l 231 621 l 415 621 b 432 638 426 621 432 625 l 432 678 b 415 694 432 690 426 694 l 231 694 l 231 753 b 356 897 231 846 264 897 l 417 897 b 438 918 431 897 438 904 l 438 951 b 417 972 438 965 431 972 z "},"g":{"ha":713,"x_min":0,"x_max":0,"o":"m 340 -257 b 629 -25 539 -257 629 -199 l 629 676 b 613 694 629 689 625 694 l 565 694 b 549 676 553 694 549 689 l 549 615 l 538 615 b 363 700 506 668 446 700 l 314 700 b 76 465 161 700 76 621 l 76 228 b 314 -7 76 72 161 -7 l 363 -7 b 538 78 446 -7 506 25 l 549 78 l 549 -25 b 350 -185 549 -154 472 -185 b 218 -181 297 -185 265 -185 b 199 -196 207 -179 199 -185 l 199 -231 b 226 -251 199 -243 208 -249 b 340 -257 263 -256 297 -257 z m 324 68 b 157 233 211 68 157 126 l 157 460 b 324 625 157 567 211 625 l 385 625 b 549 463 492 625 549 564 l 549 231 b 385 68 549 129 492 68 z "},"ğ":{"ha":713,"x_min":0,"x_max":0,"o":"m 339 786 l 393 786 b 556 957 503 786 556 843 b 538 972 556 968 551 972 l 504 972 b 486 957 490 972 486 968 b 389 849 485 894 453 849 l 343 849 b 246 957 279 849 247 894 b 228 972 246 968 242 972 l 194 972 b 176 957 181 972 176 968 b 339 786 176 843 232 786 z m 340 -257 b 629 -25 539 -257 629 -199 l 629 676 b 613 694 629 689 625 694 l 565 694 b 549 676 553 694 549 689 l 549 615 l 538 615 b 363 700 506 668 446 700 l 314 700 b 76 465 161 700 76 621 l 76 228 b 314 -7 76 72 161 -7 l 363 -7 b 538 78 446 -7 506 25 l 549 78 l 549 -25 b 350 -185 549 -154 472 -185 b 218 -181 297 -185 265 -185 b 199 -196 207 -179 199 -185 l 199 -231 b 226 -251 199 -243 208 -249 b 340 -257 263 -256 297 -257 z m 324 68 b 157 233 211 68 157 126 l 157 460 b 324 625 157 567 211 625 l 385 625 b 549 463 492 625 549 564 l 549 231 b 385 68 549 129 492 68 z "},"ǧ":{"ha":713,"x_min":0,"x_max":0,"o":"m 342 765 l 388 765 b 426 783 403 765 414 768 l 572 950 b 564 972 582 961 578 972 l 521 972 b 485 951 507 972 500 969 l 374 826 l 360 826 l 249 951 b 213 972 233 969 226 972 l 169 972 b 161 950 156 972 151 961 l 307 783 b 342 765 319 769 326 765 z m 340 -257 b 629 -25 539 -257 629 -199 l 629 676 b 613 694 629 689 625 694 l 565 694 b 549 676 553 694 549 689 l 549 615 l 538 615 b 363 700 506 668 446 700 l 314 700 b 76 465 161 700 76 621 l 76 228 b 314 -7 76 72 161 -7 l 363 -7 b 538 78 446 -7 506 25 l 549 78 l 549 -25 b 350 -185 549 -154 472 -185 b 218 -181 297 -185 265 -185 b 199 -196 207 -179 199 -185 l 199 -231 b 226 -251 199 -243 208 -249 b 340 -257 263 -256 297 -257 z m 324 68 b 157 233 211 68 157 126 l 157 460 b 324 625 157 567 211 625 l 385 625 b 549 463 492 625 549 564 l 549 231 b 385 68 549 129 492 68 z "},"ĝ":{"ha":713,"x_min":0,"x_max":0,"o":"m 333 972 b 299 954 318 972 311 968 l 153 788 b 161 765 143 776 147 765 l 204 765 b 240 786 218 765 225 768 l 351 911 l 365 911 l 476 786 b 513 765 492 768 499 765 l 556 765 b 564 788 569 765 574 776 l 418 954 b 379 972 406 969 394 972 z m 340 -257 b 629 -25 539 -257 629 -199 l 629 676 b 613 694 629 689 625 694 l 565 694 b 549 676 553 694 549 689 l 549 615 l 538 615 b 363 700 506 668 446 700 l 314 700 b 76 465 161 700 76 621 l 76 228 b 314 -7 76 72 161 -7 l 363 -7 b 538 78 446 -7 506 25 l 549 78 l 549 -25 b 350 -185 549 -154 472 -185 b 218 -181 297 -185 265 -185 b 199 -196 207 -179 199 -185 l 199 -231 b 226 -251 199 -243 208 -249 b 340 -257 263 -256 297 -257 z m 324 68 b 157 233 211 68 157 126 l 157 460 b 324 625 157 567 211 625 l 385 625 b 549 463 492 625 549 564 l 549 231 b 385 68 549 129 492 68 z "},"ģ":{"ha":713,"x_min":0,"x_max":0,"o":"m 322 828 l 360 828 b 378 846 374 828 378 832 l 378 1042 l 418 1042 b 436 1060 432 1042 436 1046 l 436 1093 b 418 1111 436 1107 432 1111 l 338 1111 b 304 1078 314 1111 304 1101 l 304 846 b 322 828 304 832 308 828 z m 340 -257 b 629 -25 539 -257 629 -199 l 629 676 b 613 694 629 689 625 694 l 565 694 b 549 676 553 694 549 689 l 549 615 l 538 615 b 363 700 506 668 446 700 l 314 700 b 76 465 161 700 76 621 l 76 228 b 314 -7 76 72 161 -7 l 363 -7 b 538 78 446 -7 506 25 l 549 78 l 549 -25 b 350 -185 549 -154 472 -185 b 218 -181 297 -185 265 -185 b 199 -196 207 -179 199 -185 l 199 -231 b 226 -251 199 -243 208 -249 b 340 -257 263 -256 297 -257 z m 324 68 b 157 233 211 68 157 126 l 157 460 b 324 625 157 567 211 625 l 385 625 b 549 463 492 625 549 564 l 549 231 b 385 68 549 129 492 68 z "},"ġ":{"ha":713,"x_min":0,"x_max":0,"o":"m 339 882 l 393 882 b 411 900 407 882 411 886 l 411 954 b 393 972 411 968 407 972 l 339 972 b 321 954 325 972 321 968 l 321 900 b 339 882 321 886 325 882 z m 340 -257 b 629 -25 539 -257 629 -199 l 629 676 b 613 694 629 689 625 694 l 565 694 b 549 676 553 694 549 689 l 549 615 l 538 615 b 363 700 506 668 446 700 l 314 700 b 76 465 161 700 76 621 l 76 228 b 314 -7 76 72 161 -7 l 363 -7 b 538 78 446 -7 506 25 l 549 78 l 549 -25 b 350 -185 549 -154 472 -185 b 218 -181 297 -185 265 -185 b 199 -196 207 -179 199 -185 l 199 -231 b 226 -251 199 -243 208 -249 b 340 -257 263 -256 297 -257 z m 324 68 b 157 233 211 68 157 126 l 157 460 b 324 625 157 567 211 625 l 385 625 b 549 463 492 625 549 564 l 549 231 b 385 68 549 129 492 68 z "},"h":{"ha":733,"x_min":0,"x_max":0,"o":"m 415 700 l 369 700 b 185 615 285 700 221 667 l 171 615 l 171 956 b 154 972 171 967 167 972 l 107 972 b 90 956 94 972 90 967 l 90 17 b 107 0 90 6 94 0 l 154 0 b 171 17 167 0 171 6 l 171 461 b 349 625 171 564 235 625 l 399 625 b 563 460 514 625 563 567 l 563 17 b 579 0 563 6 567 0 l 626 0 b 643 17 639 0 643 6 l 643 465 b 415 700 643 621 575 700 z "},"ħ":{"ha":678,"x_min":0,"x_max":0,"o":"m 415 700 l 369 700 b 185 615 285 700 221 667 l 171 615 l 171 776 l 471 776 b 492 797 483 776 492 783 l 492 835 b 471 856 492 849 483 856 l 171 856 l 171 956 b 154 972 171 967 167 972 l 107 972 b 90 956 94 972 90 967 l 90 856 l 21 856 b 0 835 7 856 0 849 l 0 797 b 21 776 0 783 7 776 l 90 776 l 90 17 b 107 0 90 6 94 0 l 154 0 b 171 17 167 0 171 6 l 171 461 b 349 625 171 564 235 625 l 399 625 b 563 460 514 625 563 567 l 563 17 b 579 0 563 6 567 0 l 626 0 b 643 17 639 0 643 6 l 643 465 b 415 700 643 621 575 700 z "},"ĥ":{"ha":733,"x_min":0,"x_max":0,"o":"m 131 1189 l 242 1064 b 278 1043 257 1046 264 1043 l 321 1043 b 329 1065 335 1043 339 1054 l 183 1232 b 144 1250 171 1247 160 1250 l 99 1250 b 64 1232 83 1250 76 1246 l -82 1065 b -74 1043 -92 1054 -87 1043 l -31 1043 b 6 1064 -17 1043 -10 1046 l 117 1189 z m 415 700 l 369 700 b 185 615 285 700 221 667 l 171 615 l 171 956 b 154 972 171 967 167 972 l 107 972 b 90 956 94 972 90 967 l 90 17 b 107 0 90 6 94 0 l 154 0 b 171 17 167 0 171 6 l 171 461 b 349 625 171 564 235 625 l 399 625 b 563 460 514 625 563 567 l 563 17 b 579 0 563 6 567 0 l 626 0 b 643 17 639 0 643 6 l 643 465 b 415 700 643 621 575 700 z "},"i":{"ha":264,"x_min":0,"x_max":0,"o":"m 107 890 l 157 890 b 174 907 169 890 174 896 l 174 956 b 157 972 174 967 169 972 l 107 972 b 90 956 94 972 90 967 l 90 907 b 107 890 90 896 94 890 z m 108 0 l 156 0 b 172 17 168 0 172 6 l 172 678 b 156 694 172 689 168 694 l 108 694 b 92 678 96 694 92 689 l 92 17 b 108 0 92 6 96 0 z "},"ı":{"ha":233,"x_min":0,"x_max":0,"o":"m 93 0 l 140 0 b 157 17 153 0 157 6 l 157 678 b 140 694 157 689 153 694 l 93 694 b 76 678 81 694 76 689 l 76 17 b 93 0 76 6 81 0 z "},"í":{"ha":233,"x_min":0,"x_max":0,"o":"m 181 947 l 82 788 b 96 763 72 772 82 763 l 135 763 b 164 788 149 763 151 772 l 290 947 b 276 972 303 963 292 972 l 210 972 b 181 947 196 972 190 964 z m 93 0 l 140 0 b 157 17 153 0 157 6 l 157 678 b 140 694 157 689 153 694 l 93 694 b 76 678 81 694 76 689 l 76 17 b 93 0 76 6 81 0 z "},"ǐ":{"ha":233,"x_min":0,"x_max":0,"o":"m 92 765 l 138 765 b 176 783 153 765 164 768 l 322 950 b 314 972 332 961 328 972 l 271 972 b 235 951 257 972 250 969 l 124 826 l 110 826 l -1 951 b -37 972 -17 969 -24 972 l -81 972 b -89 950 -94 972 -99 961 l 57 783 b 92 765 69 769 76 765 z m 93 0 l 140 0 b 157 17 153 0 157 6 l 157 678 b 140 694 157 689 153 694 l 93 694 b 76 678 81 694 76 689 l 76 17 b 93 0 76 6 81 0 z "},"î":{"ha":233,"x_min":0,"x_max":0,"o":"m 83 972 b 49 954 68 972 61 968 l -97 788 b -89 765 -107 776 -103 765 l -46 765 b -10 786 -32 765 -25 768 l 101 911 l 115 911 l 226 786 b 263 765 242 768 249 765 l 306 765 b 314 788 319 765 324 776 l 168 954 b 129 972 156 969 144 972 z m 93 0 l 140 0 b 157 17 153 0 157 6 l 157 678 b 140 694 157 689 153 694 l 93 694 b 76 678 81 694 76 689 l 76 17 b 93 0 76 6 81 0 z "},"ï":{"ha":233,"x_min":0,"x_max":0,"o":"m -101 882 l -47 882 b -29 900 -33 882 -29 886 l -29 954 b -47 972 -29 968 -33 972 l -101 972 b -119 954 -115 972 -119 968 l -119 900 b -101 882 -119 886 -115 882 z m 281 882 l 335 882 b 353 900 349 882 353 886 l 353 954 b 335 972 353 968 349 972 l 281 972 b 263 954 267 972 263 968 l 263 900 b 281 882 263 886 267 882 z m 93 0 l 140 0 b 157 17 153 0 157 6 l 157 678 b 140 694 157 689 153 694 l 93 694 b 76 678 81 694 76 689 l 76 17 b 93 0 76 6 81 0 z "},"ì":{"ha":233,"x_min":0,"x_max":0,"o":"m 54 947 b 25 972 44 964 39 972 l -42 972 b -56 947 -57 972 -68 963 l 71 788 b 100 763 83 772 86 763 l 139 763 b 153 788 153 763 163 772 z m 93 0 l 140 0 b 157 17 153 0 157 6 l 157 678 b 140 694 157 689 153 694 l 93 694 b 76 678 81 694 76 689 l 76 17 b 93 0 76 6 81 0 z "},"ĳ":{"ha":536,"x_min":0,"x_max":0,"o":"m 107 890 l 157 890 b 174 907 169 890 174 896 l 174 956 b 157 972 174 967 169 972 l 107 972 b 90 956 94 972 90 967 l 90 907 b 107 890 90 896 94 890 z m 379 890 l 429 890 b 446 907 442 890 446 896 l 446 956 b 429 972 446 967 442 972 l 379 972 b 363 956 367 972 363 967 l 363 907 b 379 890 363 896 367 890 z m 108 0 l 156 0 b 172 17 168 0 172 6 l 172 678 b 156 694 172 689 168 694 l 108 694 b 92 678 96 694 92 689 l 92 17 b 108 0 92 6 96 0 z m 303 -253 b 446 -83 406 -253 446 -199 l 446 678 b 429 694 446 689 442 694 l 382 694 b 365 678 369 694 365 689 l 365 -74 b 274 -179 365 -156 340 -179 b 250 -199 256 -179 250 -186 l 250 -229 b 303 -253 250 -246 263 -253 z "},"ī":{"ha":233,"x_min":0,"x_max":0,"o":"m -108 893 l 342 893 b 363 914 354 893 363 900 l 363 951 b 342 972 363 965 354 972 l -108 972 b -129 951 -122 972 -129 965 l -129 914 b -108 893 -129 900 -122 893 z m 93 0 l 140 0 b 157 17 153 0 157 6 l 157 678 b 140 694 157 689 153 694 l 93 694 b 76 678 81 694 76 689 l 76 17 b 93 0 76 6 81 0 z "},"į":{"ha":233,"x_min":0,"x_max":0,"o":"m 143 972 l 89 972 b 71 954 75 972 71 968 l 71 900 b 89 882 71 886 75 882 l 143 882 b 161 900 157 882 161 886 l 161 954 b 143 972 161 968 157 972 z m 140 694 l 93 694 b 76 678 81 694 76 689 l 76 -28 b 32 -69 76 -54 71 -65 l -28 -76 b -142 -175 -112 -86 -142 -93 b -18 -281 -142 -254 -115 -281 l 128 -281 b 142 -267 138 -281 142 -275 l 142 -235 b 128 -221 142 -225 136 -221 l -6 -221 b -67 -174 -56 -221 -67 -210 b -32 -133 -67 -139 -57 -136 l 92 -118 b 157 -36 142 -112 157 -96 l 157 678 b 140 694 157 689 153 694 z "},"j":{"ha":272,"x_min":0,"x_max":0,"o":"m 115 890 l 165 890 b 182 907 178 890 182 896 l 182 956 b 165 972 182 967 178 972 l 115 972 b 99 956 103 972 99 967 l 99 907 b 115 890 99 896 103 890 z m 39 -253 b 182 -83 142 -253 182 -199 l 182 678 b 165 694 182 689 178 694 l 118 694 b 101 678 106 694 101 689 l 101 -74 b 10 -179 101 -156 76 -179 b -14 -199 -8 -179 -14 -186 l -14 -229 b 39 -253 -14 -246 -1 -253 z "},"ȷ":{"ha":258,"x_min":0,"x_max":0,"o":"m 25 -253 b 168 -83 128 -253 168 -199 l 168 678 b 151 694 168 689 164 694 l 104 694 b 88 678 92 694 88 689 l 88 -74 b -4 -179 88 -156 63 -179 b -28 -199 -22 -179 -28 -186 l -28 -229 b 25 -253 -28 -246 -15 -253 z "},"ĵ":{"ha":258,"x_min":0,"x_max":0,"o":"m 93 972 b 58 954 78 972 71 968 l -87 788 b -79 765 -97 776 -93 765 l -36 765 b 0 786 -22 765 -15 768 l 111 911 l 125 911 l 236 786 b 272 765 251 768 258 765 l 315 765 b 324 788 329 765 333 776 l 178 954 b 139 972 165 969 154 972 z m 25 -253 b 168 -83 128 -253 168 -199 l 168 678 b 151 694 168 689 164 694 l 104 694 b 88 678 92 694 88 689 l 88 -74 b -4 -179 88 -156 63 -179 b -28 -199 -22 -179 -28 -186 l -28 -229 b 25 -253 -28 -246 -15 -253 z "},"k":{"ha":674,"x_min":0,"x_max":0,"o":"m 626 24 l 317 392 l 596 668 b 588 694 608 681 604 694 l 532 694 b 504 681 519 694 513 689 l 171 344 l 171 956 b 154 972 171 967 167 972 l 107 972 b 90 956 94 972 90 967 l 90 17 b 107 0 90 6 94 0 l 154 0 b 171 17 167 0 171 6 l 171 247 l 265 340 l 533 17 b 565 0 544 4 550 0 l 614 0 b 626 24 631 0 638 11 z "},"ķ":{"ha":674,"x_min":0,"x_max":0,"o":"m 626 24 l 317 392 l 596 668 b 588 694 608 681 604 694 l 532 694 b 504 681 519 694 513 689 l 171 344 l 171 956 b 154 972 171 967 167 972 l 107 972 b 90 956 94 972 90 967 l 90 17 b 107 0 90 6 94 0 l 154 0 b 171 17 167 0 171 6 l 171 247 l 265 340 l 533 17 b 565 0 544 4 550 0 l 614 0 b 626 24 631 0 638 11 z m 338 -83 l 300 -83 b 282 -101 286 -83 282 -87 l 282 -297 l 242 -297 b 224 -315 228 -297 224 -301 l 224 -349 b 242 -367 224 -362 228 -367 l 322 -367 b 356 -333 346 -367 356 -357 l 356 -101 b 338 -83 356 -87 351 -83 z "},"l":{"ha":261,"x_min":0,"x_max":0,"o":"m 107 0 l 154 0 b 171 17 167 0 171 6 l 171 956 b 154 972 171 967 167 972 l 107 972 b 90 956 94 972 90 967 l 90 17 b 107 0 90 6 94 0 z "},"ĺ":{"ha":261,"x_min":0,"x_max":0,"o":"m 194 1225 l 96 1065 b 110 1040 86 1050 96 1040 l 149 1040 b 178 1065 163 1040 165 1050 l 304 1225 b 290 1250 317 1240 306 1250 l 224 1250 b 194 1225 210 1250 204 1242 z m 107 0 l 154 0 b 171 17 167 0 171 6 l 171 956 b 154 972 171 967 167 972 l 107 972 b 90 956 94 972 90 967 l 90 17 b 107 0 90 6 94 0 z "},"ľ":{"ha":313,"x_min":0,"x_max":0,"o":"m 107 0 l 154 0 b 171 17 167 0 171 6 l 171 956 b 154 972 171 967 167 972 l 107 972 b 90 956 94 972 90 967 l 90 17 b 107 0 90 6 94 0 z m 329 972 l 292 972 b 274 954 278 972 274 968 l 274 758 l 233 758 b 215 740 219 758 215 754 l 215 707 b 233 689 215 693 219 689 l 314 689 b 347 722 338 689 347 699 l 347 954 b 329 972 347 968 343 972 z "},"ļ":{"ha":261,"x_min":0,"x_max":0,"o":"m 107 0 l 154 0 b 171 17 167 0 171 6 l 171 956 b 154 972 171 967 167 972 l 107 972 b 90 956 94 972 90 967 l 90 17 b 107 0 90 6 94 0 z m 147 -83 l 110 -83 b 92 -101 96 -83 92 -87 l 92 -297 l 51 -297 b 33 -315 38 -297 33 -301 l 33 -349 b 51 -367 33 -362 38 -367 l 132 -367 b 165 -333 156 -367 165 -357 l 165 -101 b 147 -83 165 -87 161 -83 z "},"ŀ":{"ha":285,"x_min":0,"x_max":0,"o":"m 107 0 l 154 0 b 171 17 167 0 171 6 l 171 956 b 154 972 171 967 167 972 l 107 972 b 90 956 94 972 90 967 l 90 17 b 107 0 90 6 94 0 z m 233 368 l 288 368 b 306 386 301 368 306 372 l 306 440 b 288 458 306 454 301 458 l 233 458 b 215 440 219 458 215 454 l 215 386 b 233 368 215 372 219 368 z "},"ł":{"ha":281,"x_min":0,"x_max":0,"o":"m 274 653 l 231 653 b 200 636 218 653 213 651 l 181 613 l 181 956 b 164 972 181 967 176 972 l 117 972 b 100 956 104 972 100 967 l 100 518 l 0 399 b 8 378 -11 386 -8 378 l 51 378 b 82 394 64 378 71 381 l 100 417 l 100 17 b 117 0 100 6 104 0 l 164 0 b 181 17 176 0 181 6 l 181 513 l 281 632 b 274 653 292 646 290 653 z "},"m":{"ha":1153,"x_min":0,"x_max":0,"o":"m 844 700 l 817 700 b 601 597 713 700 640 668 l 592 597 b 399 700 560 665 496 700 l 371 700 b 185 615 283 700 219 668 l 171 615 l 171 678 b 154 694 171 689 167 694 l 107 694 b 90 678 94 694 90 689 l 90 17 b 107 0 90 6 94 0 l 154 0 b 171 17 167 0 171 6 l 171 461 b 340 625 171 564 235 625 l 382 625 b 536 460 489 625 536 567 l 536 17 b 553 0 536 6 540 0 l 600 0 b 617 17 613 0 617 6 l 617 461 b 786 625 617 564 681 625 l 828 625 b 982 460 935 625 982 567 l 982 17 b 999 0 982 6 986 0 l 1046 0 b 1063 17 1058 0 1063 6 l 1063 465 b 844 700 1063 621 992 700 z "},"ḿ":{"ha":1153,"x_min":0,"x_max":0,"o":"m 568 763 l 607 763 b 636 788 621 763 624 772 l 763 947 b 749 972 775 963 764 972 l 682 972 b 653 947 668 972 663 964 l 554 788 b 568 763 544 772 554 763 z m 844 700 l 817 700 b 601 597 713 700 640 668 l 592 597 b 399 700 560 665 496 700 l 371 700 b 185 615 283 700 219 668 l 171 615 l 171 678 b 154 694 171 689 167 694 l 107 694 b 90 678 94 694 90 689 l 90 17 b 107 0 90 6 94 0 l 154 0 b 171 17 167 0 171 6 l 171 461 b 340 625 171 564 235 625 l 382 625 b 536 460 489 625 536 567 l 536 17 b 553 0 536 6 540 0 l 600 0 b 617 17 613 0 617 6 l 617 461 b 786 625 617 564 681 625 l 828 625 b 982 460 935 625 982 567 l 982 17 b 999 0 982 6 986 0 l 1046 0 b 1063 17 1058 0 1063 6 l 1063 465 b 844 700 1063 621 992 700 z "},"n":{"ha":733,"x_min":0,"x_max":0,"o":"m 107 0 l 154 0 b 171 17 167 0 171 6 l 171 461 b 349 625 171 564 235 625 l 399 625 b 563 460 514 625 563 567 l 563 17 b 579 0 563 6 567 0 l 626 0 b 643 17 639 0 643 6 l 643 465 b 415 700 643 621 575 700 l 369 700 b 185 615 285 700 221 667 l 171 615 l 171 678 b 154 694 171 689 167 694 l 107 694 b 90 678 94 694 90 689 l 90 17 b 107 0 90 6 94 0 z "},"ń":{"ha":733,"x_min":0,"x_max":0,"o":"m 431 947 l 332 788 b 346 763 322 772 332 763 l 385 763 b 414 788 399 763 401 772 l 540 947 b 526 972 553 963 542 972 l 460 972 b 431 947 446 972 440 964 z m 107 0 l 154 0 b 171 17 167 0 171 6 l 171 461 b 349 625 171 564 235 625 l 399 625 b 563 460 514 625 563 567 l 563 17 b 579 0 563 6 567 0 l 626 0 b 643 17 639 0 643 6 l 643 465 b 415 700 643 621 575 700 l 369 700 b 185 615 285 700 221 667 l 171 615 l 171 678 b 154 694 171 689 167 694 l 107 694 b 90 678 94 694 90 689 l 90 17 b 107 0 90 6 94 0 z "},"ň":{"ha":733,"x_min":0,"x_max":0,"o":"m 342 765 l 388 765 b 426 783 403 765 414 768 l 572 950 b 564 972 582 961 578 972 l 521 972 b 485 951 507 972 500 969 l 374 826 l 360 826 l 249 951 b 213 972 233 969 226 972 l 169 972 b 161 950 156 972 151 961 l 307 783 b 342 765 319 769 326 765 z m 107 0 l 154 0 b 171 17 167 0 171 6 l 171 461 b 349 625 171 564 235 625 l 399 625 b 563 460 514 625 563 567 l 563 17 b 579 0 563 6 567 0 l 626 0 b 643 17 639 0 643 6 l 643 465 b 415 700 643 621 575 700 l 369 700 b 185 615 285 700 221 667 l 171 615 l 171 678 b 154 694 171 689 167 694 l 107 694 b 90 678 94 694 90 689 l 90 17 b 107 0 90 6 94 0 z "},"ņ":{"ha":733,"x_min":0,"x_max":0,"o":"m 107 0 l 154 0 b 171 17 167 0 171 6 l 171 461 b 349 625 171 564 235 625 l 399 625 b 563 460 514 625 563 567 l 563 17 b 579 0 563 6 567 0 l 626 0 b 643 17 639 0 643 6 l 643 465 b 415 700 643 621 575 700 l 369 700 b 185 615 285 700 221 667 l 171 615 l 171 678 b 154 694 171 689 167 694 l 107 694 b 90 678 94 694 90 689 l 90 17 b 107 0 90 6 94 0 z m 383 -83 l 346 -83 b 328 -101 332 -83 328 -87 l 328 -297 l 288 -297 b 269 -315 274 -297 269 -301 l 269 -349 b 288 -367 269 -362 274 -367 l 368 -367 b 401 -333 392 -367 401 -357 l 401 -101 b 383 -83 401 -87 397 -83 z "},"ŋ":{"ha":733,"x_min":0,"x_max":0,"o":"m 415 700 l 369 700 b 185 615 285 700 221 667 l 171 615 l 171 678 b 154 694 171 689 167 694 l 107 694 b 90 678 94 694 90 689 l 90 17 b 107 0 90 6 94 0 l 154 0 b 171 17 167 0 171 6 l 171 461 b 349 625 171 564 235 625 l 399 625 b 563 460 514 625 563 567 l 563 239 l 549 239 l 549 -106 b 457 -211 549 -187 524 -211 b 433 -231 439 -211 433 -218 l 433 -261 b 486 -285 433 -278 446 -285 b 629 -115 589 -285 629 -231 l 629 0 b 643 17 639 1 643 7 l 643 465 b 415 700 643 621 575 700 z "},"ñ":{"ha":733,"x_min":0,"x_max":0,"o":"m 468 840 b 582 876 507 840 544 853 b 592 899 593 883 596 890 l 575 933 b 554 939 571 943 565 946 b 474 913 522 918 500 913 b 265 979 392 913 356 979 b 151 943 226 979 189 967 b 142 921 140 936 138 929 l 158 886 b 179 881 163 876 168 874 b 260 907 211 900 233 907 b 468 840 342 907 378 840 z m 107 0 l 154 0 b 171 17 167 0 171 6 l 171 461 b 349 625 171 564 235 625 l 399 625 b 563 460 514 625 563 567 l 563 17 b 579 0 563 6 567 0 l 626 0 b 643 17 639 0 643 6 l 643 465 b 415 700 643 621 575 700 l 369 700 b 185 615 285 700 221 667 l 171 615 l 171 678 b 154 694 171 689 167 694 l 107 694 b 90 678 94 694 90 689 l 90 17 b 107 0 90 6 94 0 z "},"o":{"ha":706,"x_min":0,"x_max":0,"o":"m 319 -7 l 386 -7 b 629 226 540 -7 629 76 l 629 467 b 386 700 629 617 542 700 l 319 700 b 76 467 164 700 76 617 l 76 226 b 319 -7 76 76 164 -7 z m 319 68 b 157 228 210 68 157 126 l 157 465 b 319 625 157 567 210 625 l 386 625 b 549 465 496 625 549 567 l 549 228 b 386 68 549 126 496 68 z "},"ó":{"ha":706,"x_min":0,"x_max":0,"o":"m 417 947 l 318 788 b 332 763 308 772 318 763 l 371 763 b 400 788 385 763 388 772 l 526 947 b 513 972 539 963 528 972 l 446 972 b 417 947 432 972 426 964 z m 319 -7 l 386 -7 b 629 226 540 -7 629 76 l 629 467 b 386 700 629 617 542 700 l 319 700 b 76 467 164 700 76 617 l 76 226 b 319 -7 76 76 164 -7 z m 319 68 b 157 228 210 68 157 126 l 157 465 b 319 625 157 567 210 625 l 386 625 b 549 465 496 625 549 567 l 549 228 b 386 68 549 126 496 68 z "},"ǒ":{"ha":706,"x_min":0,"x_max":0,"o":"m 328 765 l 374 765 b 413 783 389 765 400 768 l 558 950 b 550 972 568 961 564 972 l 507 972 b 471 951 493 972 486 969 l 360 826 l 346 826 l 235 951 b 199 972 219 969 213 972 l 156 972 b 147 950 142 972 138 961 l 293 783 b 328 765 306 769 313 765 z m 319 -7 l 386 -7 b 629 226 540 -7 629 76 l 629 467 b 386 700 629 617 542 700 l 319 700 b 76 467 164 700 76 617 l 76 226 b 319 -7 76 76 164 -7 z m 319 68 b 157 228 210 68 157 126 l 157 465 b 319 625 157 567 210 625 l 386 625 b 549 465 496 625 549 567 l 549 228 b 386 68 549 126 496 68 z "},"ô":{"ha":706,"x_min":0,"x_max":0,"o":"m 319 972 b 285 954 304 972 297 968 l 139 788 b 147 765 129 776 133 765 l 190 765 b 226 786 204 765 211 768 l 338 911 l 351 911 l 463 786 b 499 765 478 768 485 765 l 542 765 b 550 788 556 765 560 776 l 404 954 b 365 972 392 969 381 972 z m 319 -7 l 386 -7 b 629 226 540 -7 629 76 l 629 467 b 386 700 629 617 542 700 l 319 700 b 76 467 164 700 76 617 l 76 226 b 319 -7 76 76 164 -7 z m 319 68 b 157 228 210 68 157 126 l 157 465 b 319 625 157 567 210 625 l 386 625 b 549 465 496 625 549 567 l 549 228 b 386 68 549 126 496 68 z "},"ö":{"ha":706,"x_min":0,"x_max":0,"o":"m 135 882 l 189 882 b 207 900 203 882 207 886 l 207 954 b 189 972 207 968 203 972 l 135 972 b 117 954 121 972 117 968 l 117 900 b 135 882 117 886 121 882 z m 517 882 l 571 882 b 589 900 585 882 589 886 l 589 954 b 571 972 589 968 585 972 l 517 972 b 499 954 503 972 499 968 l 499 900 b 517 882 499 886 503 882 z m 319 -7 l 386 -7 b 629 226 540 -7 629 76 l 629 467 b 386 700 629 617 542 700 l 319 700 b 76 467 164 700 76 617 l 76 226 b 319 -7 76 76 164 -7 z m 319 68 b 157 228 210 68 157 126 l 157 465 b 319 625 157 567 210 625 l 386 625 b 549 465 496 625 549 567 l 549 228 b 386 68 549 126 496 68 z "},"ò":{"ha":706,"x_min":0,"x_max":0,"o":"m 290 947 b 261 972 281 964 275 972 l 194 972 b 181 947 179 972 168 963 l 307 788 b 336 763 319 772 322 763 l 375 763 b 389 788 389 763 399 772 z m 319 -7 l 386 -7 b 629 226 540 -7 629 76 l 629 467 b 386 700 629 617 542 700 l 319 700 b 76 467 164 700 76 617 l 76 226 b 319 -7 76 76 164 -7 z m 319 68 b 157 228 210 68 157 126 l 157 465 b 319 625 157 567 210 625 l 386 625 b 549 465 496 625 549 567 l 549 228 b 386 68 549 126 496 68 z "},"ő":{"ha":706,"x_min":0,"x_max":0,"o":"m 329 947 l 231 788 b 244 763 221 772 231 763 l 283 763 b 313 788 297 763 300 772 l 439 947 b 425 972 451 963 440 972 l 358 972 b 329 947 344 972 339 964 z m 508 947 l 410 788 b 424 763 400 772 410 763 l 463 763 b 492 788 476 763 479 772 l 618 947 b 604 972 631 963 619 972 l 538 972 b 508 947 524 972 518 964 z m 319 -7 l 386 -7 b 629 226 540 -7 629 76 l 629 467 b 386 700 629 617 542 700 l 319 700 b 76 467 164 700 76 617 l 76 226 b 319 -7 76 76 164 -7 z m 319 68 b 157 228 210 68 157 126 l 157 465 b 319 625 157 567 210 625 l 386 625 b 549 465 496 625 549 567 l 549 228 b 386 68 549 126 496 68 z "},"ō":{"ha":706,"x_min":0,"x_max":0,"o":"m 128 893 l 578 893 b 599 914 590 893 599 900 l 599 951 b 578 972 599 965 590 972 l 128 972 b 107 951 114 972 107 965 l 107 914 b 128 893 107 900 114 893 z m 319 -7 l 386 -7 b 629 226 540 -7 629 76 l 629 467 b 386 700 629 617 542 700 l 319 700 b 76 467 164 700 76 617 l 76 226 b 319 -7 76 76 164 -7 z m 319 68 b 157 228 210 68 157 126 l 157 465 b 319 625 157 567 210 625 l 386 625 b 549 465 496 625 549 567 l 549 228 b 386 68 549 126 496 68 z "},"ø":{"ha":706,"x_min":0,"x_max":0,"o":"m 538 663 l 551 693 b 539 708 556 703 553 708 l 504 708 b 482 694 490 708 486 704 l 479 688 b 386 700 451 696 421 700 l 319 700 b 76 467 164 700 76 617 l 76 226 b 171 29 76 135 110 67 l 156 -4 b 168 -21 150 -15 154 -21 l 203 -21 b 225 -7 217 -21 221 -17 l 231 4 b 319 -7 257 -3 286 -7 l 386 -7 b 629 226 540 -7 629 76 l 629 467 b 538 663 629 557 597 624 z m 157 228 l 157 465 b 319 625 157 567 210 625 l 386 625 b 446 618 408 625 429 622 l 206 103 b 157 228 172 129 157 172 z m 549 228 b 386 68 549 126 496 68 l 319 68 b 263 75 299 68 279 71 l 503 589 b 549 465 533 561 549 519 z "},"õ":{"ha":706,"x_min":0,"x_max":0,"o":"m 454 840 b 568 876 493 840 531 853 b 578 899 579 883 582 890 l 561 933 b 540 939 557 943 551 946 b 460 913 508 918 486 913 b 251 979 378 913 342 979 b 138 943 213 979 175 967 b 128 921 126 936 124 929 l 144 886 b 165 881 149 876 154 874 b 246 907 197 900 219 907 b 454 840 328 907 364 840 z m 319 -7 l 386 -7 b 629 226 540 -7 629 76 l 629 467 b 386 700 629 617 542 700 l 319 700 b 76 467 164 700 76 617 l 76 226 b 319 -7 76 76 164 -7 z m 319 68 b 157 228 210 68 157 126 l 157 465 b 319 625 157 567 210 625 l 386 625 b 549 465 496 625 549 567 l 549 228 b 386 68 549 126 496 68 z "},"œ":{"ha":1174,"x_min":0,"x_max":0,"o":"m 854 700 l 792 700 b 590 611 700 700 631 669 b 386 700 550 669 481 700 l 319 700 b 76 467 164 700 76 617 l 76 226 b 319 -7 76 76 164 -7 l 386 -7 b 590 83 481 -7 550 25 b 818 -7 633 25 708 -7 l 832 -7 b 1068 69 947 -7 1029 31 b 1067 88 1072 74 1072 81 l 1050 111 b 1026 114 1044 119 1039 122 b 832 65 988 88 931 65 l 818 65 b 629 231 685 65 629 132 l 629 314 l 1053 314 b 1097 357 1081 314 1097 331 l 1097 467 b 854 700 1097 617 1010 700 z m 549 228 b 386 68 549 126 496 68 l 319 68 b 157 228 210 68 157 126 l 157 465 b 319 625 157 567 210 625 l 386 625 b 549 465 496 625 549 567 z m 1017 378 l 629 378 l 629 463 b 792 625 629 564 685 625 l 854 625 b 1017 465 964 625 1017 567 z "},"p":{"ha":719,"x_min":0,"x_max":0,"o":"m 406 700 l 357 700 b 182 615 274 700 214 668 l 171 615 l 171 678 b 154 694 171 689 167 694 l 107 694 b 90 678 94 694 90 689 l 90 -229 b 107 -246 90 -240 94 -246 l 154 -246 b 171 -229 167 -246 171 -240 l 171 78 l 182 78 b 357 -7 214 25 274 -7 l 406 -7 b 643 228 558 -7 643 72 l 643 465 b 406 700 643 621 558 700 z m 563 233 b 396 68 563 126 508 68 l 335 68 b 171 231 228 68 171 129 l 171 463 b 335 625 171 564 228 625 l 396 625 b 563 460 508 625 563 567 z "},"þ":{"ha":719,"x_min":0,"x_max":0,"o":"m 406 700 l 357 700 b 182 615 274 700 214 668 l 171 615 l 171 956 b 154 972 171 967 167 972 l 107 972 b 90 956 94 972 90 967 l 90 -229 b 107 -246 90 -240 94 -246 l 154 -246 b 171 -229 167 -246 171 -240 l 171 78 l 182 78 b 357 -7 214 25 274 -7 l 406 -7 b 643 228 558 -7 643 72 l 643 465 b 406 700 643 621 558 700 z m 563 233 b 396 68 563 126 508 68 l 335 68 b 171 231 228 68 171 129 l 171 463 b 335 625 171 564 228 625 l 396 625 b 563 460 508 625 563 567 z "},"q":{"ha":719,"x_min":0,"x_max":0,"o":"m 314 700 b 76 465 161 700 76 621 l 76 228 b 314 -7 76 72 161 -7 l 363 -7 b 538 78 446 -7 506 25 l 549 78 l 549 -229 b 565 -246 549 -240 553 -246 l 613 -246 b 629 -229 625 -246 629 -240 l 629 678 b 613 694 629 689 625 694 l 565 694 b 549 678 553 694 549 689 l 549 615 l 538 615 b 363 700 506 668 446 700 z m 157 233 l 157 460 b 324 625 157 567 211 625 l 385 625 b 549 463 492 625 549 564 l 549 231 b 385 68 549 129 492 68 l 324 68 b 157 233 211 68 157 126 z "},"r":{"ha":625,"x_min":0,"x_max":0,"o":"m 107 0 l 154 0 b 171 17 167 0 171 6 l 171 461 b 338 625 171 564 231 625 l 369 625 b 494 500 464 625 494 572 b 510 485 494 489 499 485 l 554 485 b 569 500 565 485 569 489 l 569 515 b 394 700 569 633 515 700 l 364 700 b 185 615 282 700 219 668 l 171 615 l 171 678 b 154 694 171 689 167 694 l 107 694 b 90 678 94 694 90 689 l 90 17 b 107 0 90 6 94 0 z "},"ŕ":{"ha":625,"x_min":0,"x_max":0,"o":"m 399 947 l 300 788 b 314 763 290 772 300 763 l 353 763 b 382 788 367 763 369 772 l 508 947 b 494 972 521 963 510 972 l 428 972 b 399 947 414 972 408 964 z m 107 0 l 154 0 b 171 17 167 0 171 6 l 171 461 b 338 625 171 564 231 625 l 369 625 b 494 500 464 625 494 572 b 510 485 494 489 499 485 l 554 485 b 569 500 565 485 569 489 l 569 515 b 394 700 569 633 515 700 l 364 700 b 185 615 282 700 219 668 l 171 615 l 171 678 b 154 694 171 689 167 694 l 107 694 b 90 678 94 694 90 689 l 90 17 b 107 0 90 6 94 0 z "},"ř":{"ha":625,"x_min":0,"x_max":0,"o":"m 310 765 l 356 765 b 394 783 371 765 382 768 l 540 950 b 532 972 550 961 546 972 l 489 972 b 453 951 475 972 468 969 l 342 826 l 328 826 l 217 951 b 181 972 201 969 194 972 l 138 972 b 129 950 124 972 119 961 l 275 783 b 310 765 288 769 294 765 z m 107 0 l 154 0 b 171 17 167 0 171 6 l 171 461 b 338 625 171 564 231 625 l 369 625 b 494 500 464 625 494 572 b 510 485 494 489 499 485 l 554 485 b 569 500 565 485 569 489 l 569 515 b 394 700 569 633 515 700 l 364 700 b 185 615 282 700 219 668 l 171 615 l 171 678 b 154 694 171 689 167 694 l 107 694 b 90 678 94 694 90 689 l 90 17 b 107 0 90 6 94 0 z "},"ŗ":{"ha":625,"x_min":0,"x_max":0,"o":"m 107 0 l 154 0 b 171 17 167 0 171 6 l 171 461 b 338 625 171 564 231 625 l 369 625 b 494 500 464 625 494 572 b 510 485 494 489 499 485 l 554 485 b 569 500 565 485 569 489 l 569 515 b 394 700 569 633 515 700 l 364 700 b 185 615 282 700 219 668 l 171 615 l 171 678 b 154 694 171 689 167 694 l 107 694 b 90 678 94 694 90 689 l 90 17 b 107 0 90 6 94 0 z m 147 -83 l 110 -83 b 92 -101 96 -83 92 -87 l 92 -297 l 51 -297 b 33 -315 38 -297 33 -301 l 33 -349 b 51 -367 33 -362 38 -367 l 132 -367 b 165 -333 156 -367 165 -357 l 165 -101 b 147 -83 165 -87 161 -83 z "},"s":{"ha":663,"x_min":0,"x_max":0,"o":"m 299 -7 l 356 -7 b 593 190 490 -7 593 40 b 350 381 593 335 496 365 l 324 383 b 156 511 215 394 156 419 b 307 628 156 599 210 628 l 349 628 b 499 511 447 628 492 590 b 519 490 500 496 506 490 l 561 490 b 578 510 574 490 578 497 b 351 700 578 638 488 700 l 304 700 b 75 511 165 700 75 646 b 303 315 75 371 161 331 l 328 313 b 513 190 435 300 513 288 b 356 65 513 94 447 65 l 297 65 b 150 168 203 65 158 99 b 132 186 149 179 144 186 l 88 186 b 69 167 72 186 69 178 b 299 -7 69 49 158 -7 z "},"ś":{"ha":663,"x_min":0,"x_max":0,"o":"m 393 947 l 294 788 b 308 763 285 772 294 763 l 347 763 b 376 788 361 763 364 772 l 503 947 b 489 972 515 963 504 972 l 422 972 b 393 947 408 972 403 964 z m 299 -7 l 356 -7 b 593 190 490 -7 593 40 b 350 381 593 335 496 365 l 324 383 b 156 511 215 394 156 419 b 307 628 156 599 210 628 l 349 628 b 499 511 447 628 492 590 b 519 490 500 496 506 490 l 561 490 b 578 510 574 490 578 497 b 351 700 578 638 488 700 l 304 700 b 75 511 165 700 75 646 b 303 315 75 371 161 331 l 328 313 b 513 190 435 300 513 288 b 356 65 513 94 447 65 l 297 65 b 150 168 203 65 158 99 b 132 186 149 179 144 186 l 88 186 b 69 167 72 186 69 178 b 299 -7 69 49 158 -7 z "},"š":{"ha":663,"x_min":0,"x_max":0,"o":"m 304 765 l 350 765 b 389 783 365 765 376 768 l 535 950 b 526 972 544 961 540 972 l 483 972 b 447 951 469 972 463 969 l 336 826 l 322 826 l 211 951 b 175 972 196 969 189 972 l 132 972 b 124 950 118 972 114 961 l 269 783 b 304 765 282 769 289 765 z m 299 -7 l 356 -7 b 593 190 490 -7 593 40 b 350 381 593 335 496 365 l 324 383 b 156 511 215 394 156 419 b 307 628 156 599 210 628 l 349 628 b 499 511 447 628 492 590 b 519 490 500 496 506 490 l 561 490 b 578 510 574 490 578 497 b 351 700 578 638 488 700 l 304 700 b 75 511 165 700 75 646 b 303 315 75 371 161 331 l 328 313 b 513 190 435 300 513 288 b 356 65 513 94 447 65 l 297 65 b 150 168 203 65 158 99 b 132 186 149 179 144 186 l 88 186 b 69 167 72 186 69 178 b 299 -7 69 49 158 -7 z "},"ş":{"ha":663,"x_min":0,"x_max":0,"o":"m 371 -7 b 593 190 497 -3 593 46 b 350 381 593 335 496 365 l 324 383 b 156 511 215 394 156 419 b 307 628 156 599 210 628 l 349 628 b 499 511 447 628 492 590 b 519 490 500 496 506 490 l 561 490 b 578 510 574 490 578 497 b 351 700 578 638 488 700 l 304 700 b 75 511 165 700 75 646 b 303 315 75 371 161 331 l 328 313 b 513 190 435 300 513 288 b 356 65 513 94 447 65 l 297 65 b 150 168 203 65 158 99 b 132 186 149 179 144 186 l 88 186 b 69 167 72 186 69 178 b 292 -7 69 50 156 -6 b 244 -82 257 -42 244 -61 b 299 -129 244 -112 269 -126 b 439 -175 400 -140 439 -142 b 371 -219 439 -212 421 -219 l 342 -219 b 272 -167 289 -219 272 -204 b 258 -156 272 -160 265 -156 l 217 -156 b 204 -169 207 -156 204 -161 b 324 -278 204 -239 233 -278 l 386 -278 b 508 -176 475 -278 508 -246 b 364 -78 508 -89 444 -87 b 371 -7 325 -74 307 -68 z "},"ŝ":{"ha":663,"x_min":0,"x_max":0,"o":"m 296 972 b 261 954 281 972 274 968 l 115 788 b 124 765 106 776 110 765 l 167 765 b 203 786 181 765 188 768 l 314 911 l 328 911 l 439 786 b 475 765 454 768 461 765 l 518 765 b 526 788 532 765 536 776 l 381 954 b 342 972 368 969 357 972 z m 299 -7 l 356 -7 b 593 190 490 -7 593 40 b 350 381 593 335 496 365 l 324 383 b 156 511 215 394 156 419 b 307 628 156 599 210 628 l 349 628 b 499 511 447 628 492 590 b 519 490 500 496 506 490 l 561 490 b 578 510 574 490 578 497 b 351 700 578 638 488 700 l 304 700 b 75 511 165 700 75 646 b 303 315 75 371 161 331 l 328 313 b 513 190 435 300 513 288 b 356 65 513 94 447 65 l 297 65 b 150 168 203 65 158 99 b 132 186 149 179 144 186 l 88 186 b 69 167 72 186 69 178 b 299 -7 69 49 158 -7 z "},"ș":{"ha":663,"x_min":0,"x_max":0,"o":"m 299 -7 l 356 -7 b 593 190 490 -7 593 40 b 350 381 593 335 496 365 l 324 383 b 156 511 215 394 156 419 b 307 628 156 599 210 628 l 349 628 b 499 511 447 628 492 590 b 519 490 500 496 506 490 l 561 490 b 578 510 574 490 578 497 b 351 700 578 638 488 700 l 304 700 b 75 511 165 700 75 646 b 303 315 75 371 161 331 l 328 313 b 513 190 435 300 513 288 b 356 65 513 94 447 65 l 297 65 b 150 168 203 65 158 99 b 132 186 149 179 144 186 l 88 186 b 69 167 72 186 69 178 b 299 -7 69 49 158 -7 z m 346 -83 l 308 -83 b 290 -101 294 -83 290 -87 l 290 -297 l 250 -297 b 232 -315 236 -297 232 -301 l 232 -349 b 250 -367 232 -362 236 -367 l 331 -367 b 364 -333 354 -367 364 -357 l 364 -101 b 346 -83 364 -87 360 -83 z "},"ß":{"ha":771,"x_min":0,"x_max":0,"o":"m 107 0 l 154 0 b 171 17 167 0 171 6 l 171 742 b 333 904 171 843 226 904 l 411 904 b 574 742 518 904 574 843 l 574 697 b 411 550 574 593 503 550 l 372 550 b 356 533 361 550 356 546 l 356 493 b 372 476 356 481 361 476 l 411 476 b 614 321 504 476 614 451 l 614 249 b 419 74 614 125 563 74 l 372 74 b 356 57 361 74 356 69 l 356 17 b 372 0 356 4 361 0 l 419 0 b 694 249 608 0 694 67 l 694 321 b 539 515 694 449 624 490 l 539 524 b 654 697 624 556 654 611 l 654 743 b 411 979 654 893 564 979 l 333 979 b 90 743 181 979 90 893 l 90 17 b 107 0 90 6 94 0 z "},"t":{"ha":424,"x_min":0,"x_max":0,"o":"m 344 694 l 239 694 l 239 824 b 222 840 239 835 235 840 l 175 840 b 158 824 163 840 158 835 l 158 694 l 65 694 b 49 678 54 694 49 690 l 49 638 b 65 621 49 625 54 621 l 158 621 l 158 163 b 301 -7 158 47 199 -7 b 354 17 342 -7 354 0 l 354 47 b 331 67 354 60 349 67 b 239 172 264 67 239 90 l 239 621 l 344 621 b 361 638 356 621 361 625 l 361 678 b 344 694 361 690 356 694 z "},"ŧ":{"ha":424,"x_min":0,"x_max":0,"o":"m 344 621 b 361 638 356 621 361 625 l 361 678 b 344 694 361 690 356 694 l 239 694 l 239 824 b 222 840 239 835 235 840 l 175 840 b 158 824 163 840 158 835 l 158 694 l 65 694 b 49 678 54 694 49 690 l 49 638 b 65 621 49 625 54 621 l 158 621 l 158 514 l 65 514 b 49 497 54 514 49 510 l 49 457 b 65 440 49 444 54 440 l 158 440 l 158 163 b 301 -7 158 47 199 -7 b 354 17 342 -7 354 0 l 354 47 b 331 67 354 60 349 67 b 239 172 264 67 239 90 l 239 440 l 344 440 b 361 457 356 440 361 444 l 361 497 b 344 514 361 510 356 514 l 239 514 l 239 621 z "},"ť":{"ha":389,"x_min":0,"x_max":0,"o":"m 399 1026 l 361 1026 b 343 1008 347 1026 343 1022 l 343 813 l 303 813 b 285 794 289 813 285 808 l 285 761 b 303 743 285 747 289 743 l 383 743 b 417 776 407 743 417 753 l 417 1008 b 399 1026 417 1022 413 1026 z m 344 694 l 239 694 l 239 824 b 222 840 239 835 235 840 l 175 840 b 158 824 163 840 158 835 l 158 694 l 65 694 b 49 678 54 694 49 690 l 49 638 b 65 621 49 625 54 621 l 158 621 l 158 163 b 301 -7 158 47 199 -7 b 354 17 342 -7 354 0 l 354 47 b 331 67 354 60 349 67 b 239 172 264 67 239 90 l 239 621 l 344 621 b 361 638 356 621 361 625 l 361 678 b 344 694 361 690 356 694 z "},"ţ":{"ha":396,"x_min":0,"x_max":0,"o":"m 290 -72 b 292 -7 253 -68 235 -64 l 301 -7 b 354 17 342 -7 354 0 l 354 47 b 331 67 354 60 349 67 b 239 172 264 67 239 90 l 239 621 l 344 621 b 361 638 356 621 361 625 l 361 678 b 344 694 361 690 356 694 l 239 694 l 239 824 b 222 840 239 835 235 840 l 175 840 b 158 824 163 840 158 835 l 158 694 l 65 694 b 49 678 54 694 49 690 l 49 638 b 65 621 49 625 54 621 l 158 621 l 158 163 b 231 6 158 79 179 28 l 225 6 b 171 -76 185 -33 171 -54 b 225 -124 171 -107 196 -121 b 365 -169 326 -135 365 -136 b 297 -214 365 -207 347 -214 l 268 -214 b 199 -161 215 -214 199 -199 b 185 -150 199 -154 192 -150 l 143 -150 b 131 -164 133 -150 131 -156 b 250 -272 131 -233 160 -272 l 313 -272 b 435 -171 401 -272 435 -240 b 290 -72 435 -83 371 -82 z "},"ț":{"ha":424,"x_min":0,"x_max":0,"o":"m 344 694 l 239 694 l 239 824 b 222 840 239 835 235 840 l 175 840 b 158 824 163 840 158 835 l 158 694 l 65 694 b 49 678 54 694 49 690 l 49 638 b 65 621 49 625 54 621 l 158 621 l 158 163 b 301 -7 158 47 199 -7 b 354 17 342 -7 354 0 l 354 47 b 331 67 354 60 349 67 b 239 172 264 67 239 90 l 239 621 l 344 621 b 361 638 356 621 361 625 l 361 678 b 344 694 361 690 356 694 z m 268 -83 l 231 -83 b 213 -101 217 -83 213 -87 l 213 -297 l 172 -297 b 154 -315 158 -297 154 -301 l 154 -349 b 172 -367 154 -362 158 -367 l 253 -367 b 286 -333 276 -367 286 -357 l 286 -101 b 268 -83 286 -87 282 -83 z "},"u":{"ha":733,"x_min":0,"x_max":0,"o":"m 626 694 l 579 694 b 563 678 567 694 563 689 l 563 233 b 385 69 563 131 499 69 l 335 69 b 171 235 219 69 171 128 l 171 678 b 154 694 171 689 167 694 l 107 694 b 90 678 94 694 90 689 l 90 229 b 318 -6 90 74 158 -6 l 364 -6 b 549 79 449 -6 513 28 l 563 79 l 563 17 b 579 0 563 6 567 0 l 626 0 b 643 17 639 0 643 6 l 643 678 b 626 694 643 689 639 694 z "},"ú":{"ha":733,"x_min":0,"x_max":0,"o":"m 413 947 l 314 788 b 328 763 304 772 314 763 l 367 763 b 396 788 381 763 383 772 l 522 947 b 508 972 535 963 524 972 l 442 972 b 413 947 428 972 422 964 z m 626 694 l 579 694 b 563 678 567 694 563 689 l 563 233 b 385 69 563 131 499 69 l 335 69 b 171 235 219 69 171 128 l 171 678 b 154 694 171 689 167 694 l 107 694 b 90 678 94 694 90 689 l 90 229 b 318 -6 90 74 158 -6 l 364 -6 b 549 79 449 -6 513 28 l 563 79 l 563 17 b 579 0 563 6 567 0 l 626 0 b 643 17 639 0 643 6 l 643 678 b 626 694 643 689 639 694 z "},"ŭ":{"ha":733,"x_min":0,"x_max":0,"o":"m 321 786 l 375 786 b 538 957 485 786 538 843 b 519 972 538 968 533 972 l 486 972 b 468 957 472 972 468 968 b 371 849 467 894 435 849 l 325 849 b 228 957 261 849 229 894 b 210 972 228 968 224 972 l 176 972 b 158 957 163 972 158 968 b 321 786 158 843 214 786 z m 626 694 l 579 694 b 563 678 567 694 563 689 l 563 233 b 385 69 563 131 499 69 l 335 69 b 171 235 219 69 171 128 l 171 678 b 154 694 171 689 167 694 l 107 694 b 90 678 94 694 90 689 l 90 229 b 318 -6 90 74 158 -6 l 364 -6 b 549 79 449 -6 513 28 l 563 79 l 563 17 b 579 0 563 6 567 0 l 626 0 b 643 17 639 0 643 6 l 643 678 b 626 694 643 689 639 694 z "},"ǔ":{"ha":733,"x_min":0,"x_max":0,"o":"m 324 765 l 369 765 b 408 783 385 765 396 768 l 554 950 b 546 972 564 961 560 972 l 503 972 b 467 951 489 972 482 969 l 356 826 l 342 826 l 231 951 b 194 972 215 969 208 972 l 151 972 b 143 950 138 972 133 961 l 289 783 b 324 765 301 769 308 765 z m 626 694 l 579 694 b 563 678 567 694 563 689 l 563 233 b 385 69 563 131 499 69 l 335 69 b 171 235 219 69 171 128 l 171 678 b 154 694 171 689 167 694 l 107 694 b 90 678 94 694 90 689 l 90 229 b 318 -6 90 74 158 -6 l 364 -6 b 549 79 449 -6 513 28 l 563 79 l 563 17 b 579 0 563 6 567 0 l 626 0 b 643 17 639 0 643 6 l 643 678 b 626 694 643 689 639 694 z "},"û":{"ha":733,"x_min":0,"x_max":0,"o":"m 315 972 b 281 954 300 972 293 968 l 135 788 b 143 765 125 776 129 765 l 186 765 b 222 786 200 765 207 768 l 333 911 l 347 911 l 458 786 b 494 765 474 768 481 765 l 538 765 b 546 788 551 765 556 776 l 400 954 b 361 972 388 969 376 972 z m 626 694 l 579 694 b 563 678 567 694 563 689 l 563 233 b 385 69 563 131 499 69 l 335 69 b 171 235 219 69 171 128 l 171 678 b 154 694 171 689 167 694 l 107 694 b 90 678 94 694 90 689 l 90 229 b 318 -6 90 74 158 -6 l 364 -6 b 549 79 449 -6 513 28 l 563 79 l 563 17 b 579 0 563 6 567 0 l 626 0 b 643 17 639 0 643 6 l 643 678 b 626 694 643 689 639 694 z "},"ü":{"ha":733,"x_min":0,"x_max":0,"o":"m 131 882 l 185 882 b 203 900 199 882 203 886 l 203 954 b 185 972 203 968 199 972 l 131 972 b 113 954 117 972 113 968 l 113 900 b 131 882 113 886 117 882 z m 513 882 l 567 882 b 585 900 581 882 585 886 l 585 954 b 567 972 585 968 581 972 l 513 972 b 494 954 499 972 494 968 l 494 900 b 513 882 494 886 499 882 z m 626 694 l 579 694 b 563 678 567 694 563 689 l 563 233 b 385 69 563 131 499 69 l 335 69 b 171 235 219 69 171 128 l 171 678 b 154 694 171 689 167 694 l 107 694 b 90 678 94 694 90 689 l 90 229 b 318 -6 90 74 158 -6 l 364 -6 b 549 79 449 -6 513 28 l 563 79 l 563 17 b 579 0 563 6 567 0 l 626 0 b 643 17 639 0 643 6 l 643 678 b 626 694 643 689 639 694 z "},"ù":{"ha":733,"x_min":0,"x_max":0,"o":"m 286 947 b 257 972 276 964 271 972 l 190 972 b 176 947 175 972 164 963 l 303 788 b 332 763 315 772 318 763 l 371 763 b 385 788 385 763 394 772 z m 626 694 l 579 694 b 563 678 567 694 563 689 l 563 233 b 385 69 563 131 499 69 l 335 69 b 171 235 219 69 171 128 l 171 678 b 154 694 171 689 167 694 l 107 694 b 90 678 94 694 90 689 l 90 229 b 318 -6 90 74 158 -6 l 364 -6 b 549 79 449 -6 513 28 l 563 79 l 563 17 b 579 0 563 6 567 0 l 626 0 b 643 17 639 0 643 6 l 643 678 b 626 694 643 689 639 694 z "},"ű":{"ha":733,"x_min":0,"x_max":0,"o":"m 325 947 l 226 788 b 240 763 217 772 226 763 l 279 763 b 308 788 293 763 296 772 l 435 947 b 421 972 447 963 436 972 l 354 972 b 325 947 340 972 335 964 z m 504 947 l 406 788 b 419 763 396 772 406 763 l 458 763 b 488 788 472 763 475 772 l 614 947 b 600 972 626 963 615 972 l 533 972 b 504 947 519 972 514 964 z m 626 694 l 579 694 b 563 678 567 694 563 689 l 563 233 b 385 69 563 131 499 69 l 335 69 b 171 235 219 69 171 128 l 171 678 b 154 694 171 689 167 694 l 107 694 b 90 678 94 694 90 689 l 90 229 b 318 -6 90 74 158 -6 l 364 -6 b 549 79 449 -6 513 28 l 563 79 l 563 17 b 579 0 563 6 567 0 l 626 0 b 643 17 639 0 643 6 l 643 678 b 626 694 643 689 639 694 z "},"ū":{"ha":733,"x_min":0,"x_max":0,"o":"m 124 893 l 574 893 b 594 914 586 893 594 900 l 594 951 b 574 972 594 965 586 972 l 124 972 b 103 951 110 972 103 965 l 103 914 b 124 893 103 900 110 893 z m 626 694 l 579 694 b 563 678 567 694 563 689 l 563 233 b 385 69 563 131 499 69 l 335 69 b 171 235 219 69 171 128 l 171 678 b 154 694 171 689 167 694 l 107 694 b 90 678 94 694 90 689 l 90 229 b 318 -6 90 74 158 -6 l 364 -6 b 549 79 449 -6 513 28 l 563 79 l 563 17 b 579 0 563 6 567 0 l 626 0 b 643 17 639 0 643 6 l 643 678 b 626 694 643 689 639 694 z "},"ų":{"ha":733,"x_min":0,"x_max":0,"o":"m 626 694 l 579 694 b 563 678 567 694 563 689 l 563 233 b 385 69 563 131 499 69 l 335 69 b 171 235 219 69 171 128 l 171 678 b 154 694 171 689 167 694 l 107 694 b 90 678 94 694 90 689 l 90 229 b 318 -6 90 74 158 -6 l 364 -6 b 549 79 449 -6 513 28 l 563 79 l 563 28 l 535 28 l 535 -28 b 490 -69 535 -54 529 -65 l 431 -76 b 317 -175 346 -86 317 -93 b 440 -281 317 -254 343 -281 l 586 -281 b 600 -267 596 -281 600 -275 l 600 -235 b 586 -221 600 -225 594 -221 l 453 -221 b 392 -174 403 -221 392 -210 b 426 -133 392 -139 401 -136 l 550 -118 b 615 -36 600 -112 615 -96 l 615 0 l 626 0 b 643 17 639 0 643 6 l 643 678 b 626 694 643 689 639 694 z "},"ů":{"ha":733,"x_min":0,"x_max":0,"o":"m 357 994 l 339 994 b 222 878 271 994 222 943 l 222 863 b 339 747 222 797 271 747 l 357 747 b 474 863 425 747 474 797 l 474 878 b 357 994 474 943 425 994 z m 414 876 l 414 865 b 354 806 414 828 393 806 l 342 806 b 282 865 303 806 282 828 l 282 876 b 342 936 282 914 303 936 l 354 936 b 414 876 393 936 414 914 z m 626 694 l 579 694 b 563 678 567 694 563 689 l 563 233 b 385 69 563 131 499 69 l 335 69 b 171 235 219 69 171 128 l 171 678 b 154 694 171 689 167 694 l 107 694 b 90 678 94 694 90 689 l 90 229 b 318 -6 90 74 158 -6 l 364 -6 b 549 79 449 -6 513 28 l 563 79 l 563 17 b 579 0 563 6 567 0 l 626 0 b 643 17 639 0 643 6 l 643 678 b 626 694 643 689 639 694 z "},"ũ":{"ha":733,"x_min":0,"x_max":0,"o":"m 450 840 b 564 876 489 840 526 853 b 574 899 575 883 578 890 l 557 933 b 536 939 553 943 547 946 b 456 913 504 918 482 913 b 247 979 374 913 338 979 b 133 943 208 979 171 967 b 124 921 122 936 119 929 l 140 886 b 161 881 144 876 150 874 b 242 907 193 900 215 907 b 450 840 324 907 360 840 z m 626 694 l 579 694 b 563 678 567 694 563 689 l 563 233 b 385 69 563 131 499 69 l 335 69 b 171 235 219 69 171 128 l 171 678 b 154 694 171 689 167 694 l 107 694 b 90 678 94 694 90 689 l 90 229 b 318 -6 90 74 158 -6 l 364 -6 b 549 79 449 -6 513 28 l 563 79 l 563 17 b 579 0 563 6 567 0 l 626 0 b 643 17 639 0 643 6 l 643 678 b 626 694 643 689 639 694 z "},"v":{"ha":686,"x_min":0,"x_max":0,"o":"m 306 0 l 381 0 b 408 22 396 0 403 7 l 629 674 b 618 694 633 686 632 694 l 568 694 b 546 675 553 694 550 688 l 347 79 l 339 79 l 140 675 b 118 694 136 688 133 694 l 68 694 b 57 674 54 694 53 686 l 278 22 b 306 0 283 7 290 0 z "},"w":{"ha":1017,"x_min":0,"x_max":0,"o":"m 247 0 l 322 0 b 350 22 338 0 346 7 l 506 581 l 511 581 l 667 22 b 694 0 671 7 679 0 l 769 0 b 797 22 785 0 793 7 l 960 674 b 947 694 963 686 961 694 l 899 694 b 878 674 885 694 881 686 l 733 81 l 728 81 l 560 674 b 539 694 556 686 553 694 l 478 694 b 457 674 464 694 461 686 l 289 81 l 283 81 l 139 674 b 118 694 136 686 132 694 l 69 694 b 57 674 56 694 54 686 l 219 22 b 247 0 224 7 232 0 z "},"ẃ":{"ha":1017,"x_min":0,"x_max":0,"o":"m 572 947 l 474 788 b 488 763 464 772 474 763 l 526 763 b 556 788 540 763 543 772 l 682 947 b 668 972 694 963 683 972 l 601 972 b 572 947 588 972 582 964 z m 247 0 l 322 0 b 350 22 338 0 346 7 l 506 581 l 511 581 l 667 22 b 694 0 671 7 679 0 l 769 0 b 797 22 785 0 793 7 l 960 674 b 947 694 963 686 961 694 l 899 694 b 878 674 885 694 881 686 l 733 81 l 728 81 l 560 674 b 539 694 556 686 553 694 l 478 694 b 457 674 464 694 461 686 l 289 81 l 283 81 l 139 674 b 118 694 136 686 132 694 l 69 694 b 57 674 56 694 54 686 l 219 22 b 247 0 224 7 232 0 z "},"ŵ":{"ha":1017,"x_min":0,"x_max":0,"o":"m 475 972 b 440 954 460 972 453 968 l 294 788 b 303 765 285 776 289 765 l 346 765 b 382 786 360 765 367 768 l 493 911 l 507 911 l 618 786 b 654 765 633 768 640 765 l 697 765 b 706 788 711 765 715 776 l 560 954 b 521 972 547 969 536 972 z m 247 0 l 322 0 b 350 22 338 0 346 7 l 506 581 l 511 581 l 667 22 b 694 0 671 7 679 0 l 769 0 b 797 22 785 0 793 7 l 960 674 b 947 694 963 686 961 694 l 899 694 b 878 674 885 694 881 686 l 733 81 l 728 81 l 560 674 b 539 694 556 686 553 694 l 478 694 b 457 674 464 694 461 686 l 289 81 l 283 81 l 139 674 b 118 694 136 686 132 694 l 69 694 b 57 674 56 694 54 686 l 219 22 b 247 0 224 7 232 0 z "},"ẅ":{"ha":1017,"x_min":0,"x_max":0,"o":"m 290 882 l 344 882 b 363 900 358 882 363 886 l 363 954 b 344 972 363 968 358 972 l 290 972 b 272 954 276 972 272 968 l 272 900 b 290 882 272 886 276 882 z m 672 882 l 726 882 b 744 900 740 882 744 886 l 744 954 b 726 972 744 968 740 972 l 672 972 b 654 954 658 972 654 968 l 654 900 b 672 882 654 886 658 882 z m 247 0 l 322 0 b 350 22 338 0 346 7 l 506 581 l 511 581 l 667 22 b 694 0 671 7 679 0 l 769 0 b 797 22 785 0 793 7 l 960 674 b 947 694 963 686 961 694 l 899 694 b 878 674 885 694 881 686 l 733 81 l 728 81 l 560 674 b 539 694 556 686 553 694 l 478 694 b 457 674 464 694 461 686 l 289 81 l 283 81 l 139 674 b 118 694 136 686 132 694 l 69 694 b 57 674 56 694 54 686 l 219 22 b 247 0 224 7 232 0 z "},"ẁ":{"ha":1017,"x_min":0,"x_max":0,"o":"m 446 947 b 417 972 436 964 431 972 l 350 972 b 336 947 335 972 324 963 l 463 788 b 492 763 475 772 478 763 l 531 763 b 544 788 544 763 554 772 z m 247 0 l 322 0 b 350 22 338 0 346 7 l 506 581 l 511 581 l 667 22 b 694 0 671 7 679 0 l 769 0 b 797 22 785 0 793 7 l 960 674 b 947 694 963 686 961 694 l 899 694 b 878 674 885 694 881 686 l 733 81 l 728 81 l 560 674 b 539 694 556 686 553 694 l 478 694 b 457 674 464 694 461 686 l 289 81 l 283 81 l 139 674 b 118 694 136 686 132 694 l 69 694 b 57 674 56 694 54 686 l 219 22 b 247 0 224 7 232 0 z "},"x":{"ha":621,"x_min":0,"x_max":0,"o":"m 72 0 l 119 0 b 147 19 131 0 138 4 l 306 286 l 315 286 l 474 19 b 501 0 483 4 490 0 l 547 0 b 563 21 565 0 569 10 l 361 351 l 557 674 b 544 694 564 685 561 694 l 496 694 b 468 675 483 694 478 690 l 315 418 l 306 418 l 153 675 b 125 694 143 690 138 694 l 76 694 b 64 674 60 694 57 685 l 260 351 l 58 21 b 72 0 51 10 56 0 z "},"y":{"ha":721,"x_min":0,"x_max":0,"o":"m 653 694 l 600 694 b 578 672 586 694 583 688 l 364 93 l 356 93 l 142 672 b 119 694 136 688 133 694 l 68 694 b 57 674 54 694 53 686 l 318 -15 l 238 -225 b 250 -246 233 -236 236 -246 l 300 -246 b 321 -225 314 -246 317 -236 l 664 674 b 653 694 668 686 667 694 z "},"ý":{"ha":721,"x_min":0,"x_max":0,"o":"m 424 947 l 325 788 b 339 763 315 772 325 763 l 378 763 b 407 788 392 763 394 772 l 533 947 b 519 972 546 963 535 972 l 453 972 b 424 947 439 972 433 964 z m 653 694 l 600 694 b 578 672 586 694 583 688 l 364 93 l 356 93 l 142 672 b 119 694 136 688 133 694 l 68 694 b 57 674 54 694 53 686 l 318 -15 l 238 -225 b 250 -246 233 -236 236 -246 l 300 -246 b 321 -225 314 -246 317 -236 l 664 674 b 653 694 668 686 667 694 z "},"ŷ":{"ha":721,"x_min":0,"x_max":0,"o":"m 326 972 b 292 954 311 972 304 968 l 146 788 b 154 765 136 776 140 765 l 197 765 b 233 786 211 765 218 768 l 344 911 l 358 911 l 469 786 b 506 765 485 768 492 765 l 549 765 b 557 788 563 765 567 776 l 411 954 b 372 972 399 969 388 972 z m 653 694 l 600 694 b 578 672 586 694 583 688 l 364 93 l 356 93 l 142 672 b 119 694 136 688 133 694 l 68 694 b 57 674 54 694 53 686 l 318 -15 l 238 -225 b 250 -246 233 -236 236 -246 l 300 -246 b 321 -225 314 -246 317 -236 l 664 674 b 653 694 668 686 667 694 z "},"ÿ":{"ha":721,"x_min":0,"x_max":0,"o":"m 142 882 l 196 882 b 214 900 210 882 214 886 l 214 954 b 196 972 214 968 210 972 l 142 972 b 124 954 128 972 124 968 l 124 900 b 142 882 124 886 128 882 z m 524 882 l 578 882 b 596 900 592 882 596 886 l 596 954 b 578 972 596 968 592 972 l 524 972 b 506 954 510 972 506 968 l 506 900 b 524 882 506 886 510 882 z m 653 694 l 600 694 b 578 672 586 694 583 688 l 364 93 l 356 93 l 142 672 b 119 694 136 688 133 694 l 68 694 b 57 674 54 694 53 686 l 318 -15 l 238 -225 b 250 -246 233 -236 236 -246 l 300 -246 b 321 -225 314 -246 317 -236 l 664 674 b 653 694 668 686 667 694 z "},"ỳ":{"ha":721,"x_min":0,"x_max":0,"o":"m 297 947 b 268 972 288 964 282 972 l 201 972 b 188 947 186 972 175 963 l 314 788 b 343 763 326 772 329 763 l 382 763 b 396 788 396 763 406 772 z m 653 694 l 600 694 b 578 672 586 694 583 688 l 364 93 l 356 93 l 142 672 b 119 694 136 688 133 694 l 68 694 b 57 674 54 694 53 686 l 318 -15 l 238 -225 b 250 -246 233 -236 236 -246 l 300 -246 b 321 -225 314 -246 317 -236 l 664 674 b 653 694 668 686 667 694 z "},"z":{"ha":590,"x_min":0,"x_max":0,"o":"m 72 0 l 511 0 b 528 17 522 0 528 4 l 528 57 b 511 74 528 69 522 74 l 144 74 l 144 82 l 521 604 b 528 622 525 610 528 618 l 528 678 b 511 694 528 690 522 694 l 88 694 b 71 678 76 694 71 690 l 71 638 b 88 621 71 625 76 621 l 440 621 l 440 613 l 63 88 b 56 67 57 81 56 75 l 56 17 b 72 0 56 4 61 0 z "},"ź":{"ha":590,"x_min":0,"x_max":0,"o":"m 365 947 l 267 788 b 281 763 257 772 267 763 l 319 763 b 349 788 333 763 336 772 l 475 947 b 461 972 488 963 476 972 l 394 972 b 365 947 381 972 375 964 z m 72 0 l 511 0 b 528 17 522 0 528 4 l 528 57 b 511 74 528 69 522 74 l 144 74 l 144 82 l 521 604 b 528 622 525 610 528 618 l 528 678 b 511 694 528 690 522 694 l 88 694 b 71 678 76 694 71 690 l 71 638 b 88 621 71 625 76 621 l 440 621 l 440 613 l 63 88 b 56 67 57 81 56 75 l 56 17 b 72 0 56 4 61 0 z "},"ž":{"ha":590,"x_min":0,"x_max":0,"o":"m 276 765 l 322 765 b 361 783 338 765 349 768 l 507 950 b 499 972 517 961 513 972 l 456 972 b 419 951 442 972 435 969 l 308 826 l 294 826 l 183 951 b 147 972 168 969 161 972 l 104 972 b 96 950 90 972 86 961 l 242 783 b 276 765 254 769 261 765 z m 72 0 l 511 0 b 528 17 522 0 528 4 l 528 57 b 511 74 528 69 522 74 l 144 74 l 144 82 l 521 604 b 528 622 525 610 528 618 l 528 678 b 511 694 528 690 522 694 l 88 694 b 71 678 76 694 71 690 l 71 638 b 88 621 71 625 76 621 l 440 621 l 440 613 l 63 88 b 56 67 57 81 56 75 l 56 17 b 72 0 56 4 61 0 z "},"ż":{"ha":590,"x_min":0,"x_max":0,"o":"m 274 882 l 328 882 b 346 900 342 882 346 886 l 346 954 b 328 972 346 968 342 972 l 274 972 b 256 954 260 972 256 968 l 256 900 b 274 882 256 886 260 882 z m 72 0 l 511 0 b 528 17 522 0 528 4 l 528 57 b 511 74 528 69 522 74 l 144 74 l 144 82 l 521 604 b 528 622 525 610 528 618 l 528 678 b 511 694 528 690 522 694 l 88 694 b 71 678 76 694 71 690 l 71 638 b 88 621 71 625 76 621 l 440 621 l 440 613 l 63 88 b 56 67 57 81 56 75 l 56 17 b 72 0 56 4 61 0 z "},"ﬁ":{"ha":660,"x_min":0,"x_max":0,"o":"m 553 694 l 231 694 l 231 753 b 356 897 231 846 264 897 l 417 897 b 438 918 431 897 438 904 l 438 951 b 417 972 438 965 431 972 l 349 972 b 150 758 214 972 150 900 l 150 694 l 72 694 b 56 678 61 694 56 690 l 56 638 b 72 621 56 625 61 621 l 150 621 l 150 17 b 167 0 150 6 154 0 l 214 0 b 231 17 226 0 231 6 l 231 621 l 489 621 l 489 17 b 506 0 489 6 493 0 l 553 0 b 569 17 565 0 569 6 l 569 678 b 553 694 569 689 565 694 z "},"ﬂ":{"ha":708,"x_min":0,"x_max":0,"o":"m 601 972 l 349 972 b 150 758 214 972 150 900 l 150 694 l 72 694 b 56 678 61 694 56 690 l 56 638 b 72 621 56 625 61 621 l 150 621 l 150 17 b 167 0 150 6 154 0 l 214 0 b 231 17 226 0 231 6 l 231 621 l 415 621 b 432 638 426 621 432 625 l 432 678 b 415 694 432 690 426 694 l 231 694 l 231 753 b 356 897 231 846 264 897 l 538 897 l 538 17 b 554 0 538 6 542 0 l 601 0 b 618 17 614 0 618 6 l 618 956 b 601 972 618 967 614 972 z "},"ª":{"ha":440,"x_min":0,"x_max":0,"o":"m 246 979 l 224 979 b 101 949 169 979 136 967 b 94 929 93 944 90 938 l 106 904 b 126 900 110 896 117 896 b 221 921 156 914 181 921 l 243 921 b 315 840 292 921 315 900 l 194 840 b 69 732 111 840 69 803 b 194 624 69 661 111 624 l 214 624 b 315 667 258 624 290 642 l 315 638 b 325 624 315 629 317 624 l 361 624 b 371 638 369 624 371 629 l 371 839 b 246 979 371 932 324 979 z m 218 683 l 199 683 b 128 732 153 683 128 693 b 199 783 128 768 153 783 l 315 783 l 315 713 b 218 683 293 694 268 683 z "},"º":{"ha":465,"x_min":0,"x_max":0,"o":"m 256 979 l 210 979 b 69 838 128 979 69 915 l 69 767 b 210 624 69 686 128 624 l 256 624 b 396 767 336 624 396 686 l 396 838 b 256 979 396 915 336 979 z m 338 838 l 338 767 b 254 682 338 717 301 682 l 211 682 b 129 767 161 682 129 717 l 129 838 b 211 921 129 888 161 921 l 254 921 b 338 838 301 921 338 888 z "},"А":{"ha":817,"x_min":0,"x_max":0,"o":"m 760 22 l 481 950 b 456 972 476 964 468 972 l 361 972 b 336 950 349 972 340 964 l 57 22 b 72 0 53 7 60 0 l 119 0 b 143 22 133 0 139 7 l 199 206 l 618 206 l 674 22 b 697 0 678 7 683 0 l 744 0 b 760 22 757 0 764 7 z m 221 279 l 401 879 l 415 879 l 596 279 z "},"Б":{"ha":799,"x_min":0,"x_max":0,"o":"m 438 679 l 181 679 l 181 894 l 501 894 b 521 913 515 894 521 899 l 521 954 b 501 972 521 968 515 972 l 115 972 b 97 954 101 972 97 968 l 97 18 b 115 0 97 4 101 0 l 438 0 b 722 272 636 0 722 85 l 722 407 b 438 679 722 594 636 679 z m 639 274 b 436 78 639 133 579 78 l 181 78 l 181 601 l 436 601 b 639 406 579 601 639 546 z "},"В":{"ha":813,"x_min":0,"x_max":0,"o":"m 597 513 l 597 519 b 701 728 676 554 701 624 b 465 972 701 903 631 972 l 115 972 b 97 954 101 972 97 968 l 97 18 b 115 0 97 4 101 0 l 465 0 b 736 257 638 0 736 67 l 736 296 b 597 513 736 417 689 482 z m 618 732 l 618 710 b 463 542 618 590 574 542 l 181 542 l 181 894 l 463 894 b 618 732 576 894 618 851 z m 653 257 b 465 78 653 121 594 78 l 181 78 l 181 471 l 465 471 b 653 296 594 471 653 435 z "},"Г":{"ha":667,"x_min":0,"x_max":0,"o":"m 592 972 l 115 972 b 97 954 101 972 97 968 l 97 18 b 115 0 97 4 101 0 l 163 0 b 181 18 176 0 181 4 l 181 894 l 592 894 b 611 913 606 894 611 899 l 611 954 b 592 972 611 968 606 972 z "},"Ѓ":{"ha":667,"x_min":0,"x_max":0,"o":"m 331 1040 l 369 1040 b 399 1065 383 1040 386 1050 l 525 1225 b 511 1250 538 1240 526 1250 l 444 1250 b 415 1225 431 1250 425 1242 l 317 1065 b 331 1040 307 1050 317 1040 z m 592 972 l 115 972 b 97 954 101 972 97 968 l 97 18 b 115 0 97 4 101 0 l 163 0 b 181 18 176 0 181 4 l 181 894 l 592 894 b 611 913 606 894 611 899 l 611 954 b 592 972 611 968 606 972 z "},"Ґ":{"ha":667,"x_min":0,"x_max":0,"o":"m 593 1069 l 546 1069 b 528 1051 532 1069 528 1065 l 528 972 l 115 972 b 97 954 101 972 97 968 l 97 18 b 115 0 97 4 101 0 l 163 0 b 181 18 176 0 181 4 l 181 894 l 592 894 b 611 913 606 894 611 899 l 611 1051 b 593 1069 611 1065 607 1069 z "},"Д":{"ha":924,"x_min":0,"x_max":0,"o":"m 875 78 l 813 78 l 813 951 b 792 972 813 965 806 972 l 210 972 b 189 951 196 972 189 965 l 189 403 b 71 78 189 147 122 78 l 49 78 b 28 57 35 78 28 71 l 28 -117 b 46 -135 28 -131 32 -135 l 93 -135 b 111 -117 107 -135 111 -131 l 111 0 l 813 0 l 813 -117 b 831 -135 813 -131 817 -135 l 878 -135 b 896 -117 892 -135 896 -131 l 896 57 b 875 78 896 71 889 78 z m 200 78 b 272 403 246 125 272 221 l 272 894 l 729 894 l 729 78 z "},"Е":{"ha":722,"x_min":0,"x_max":0,"o":"m 117 0 l 647 0 b 667 18 661 0 667 4 l 667 60 b 647 78 667 74 661 78 l 181 78 l 181 451 l 606 451 b 625 469 619 451 625 456 l 625 508 b 606 526 625 522 619 526 l 181 526 l 181 894 l 644 894 b 664 913 658 894 664 899 l 664 954 b 644 972 664 968 658 972 l 117 972 b 97 954 103 972 97 968 l 97 18 b 117 0 97 4 103 0 z "},"Ё":{"ha":722,"x_min":0,"x_max":0,"o":"m 168 1160 l 222 1160 b 240 1178 236 1160 240 1164 l 240 1232 b 222 1250 240 1246 236 1250 l 168 1250 b 150 1232 154 1250 150 1246 l 150 1178 b 168 1160 150 1164 154 1160 z m 550 1160 l 604 1160 b 622 1178 618 1160 622 1164 l 622 1232 b 604 1250 622 1246 618 1250 l 550 1250 b 532 1232 536 1250 532 1246 l 532 1178 b 550 1160 532 1164 536 1160 z m 117 0 l 647 0 b 667 18 661 0 667 4 l 667 60 b 647 78 667 74 661 78 l 181 78 l 181 451 l 606 451 b 625 469 619 451 625 456 l 625 508 b 606 526 625 522 619 526 l 181 526 l 181 894 l 644 894 b 664 913 658 894 664 899 l 664 954 b 644 972 664 968 658 972 l 117 972 b 97 954 103 972 97 968 l 97 18 b 117 0 97 4 103 0 z "},"Ж":{"ha":1278,"x_min":0,"x_max":0,"o":"m 1218 25 l 840 521 l 1186 943 b 1179 972 1200 960 1196 972 l 1121 972 b 1093 953 1108 972 1103 965 l 681 442 l 681 954 b 663 972 681 968 676 972 l 615 972 b 597 954 601 972 597 968 l 597 442 l 185 953 b 157 972 175 965 169 972 l 99 972 b 92 943 82 972 78 960 l 438 521 l 60 25 b 71 0 51 14 54 0 l 122 0 b 158 19 139 0 147 6 l 490 456 l 597 325 l 597 18 b 615 0 597 4 601 0 l 663 0 b 681 18 676 0 681 4 l 681 325 l 788 456 l 1119 19 b 1156 0 1131 6 1139 0 l 1207 0 b 1218 25 1224 0 1226 14 z "},"З":{"ha":775,"x_min":0,"x_max":0,"o":"m 533 503 l 533 513 b 686 719 638 543 686 592 b 415 979 686 894 597 979 l 367 979 b 88 729 199 979 88 906 l 88 708 b 104 692 88 697 92 692 l 151 692 b 168 708 164 692 168 697 b 369 903 168 850 235 903 l 413 903 b 606 719 547 903 606 846 b 383 544 606 594 543 544 l 310 544 b 293 528 299 544 293 540 l 293 488 b 310 471 293 475 299 471 l 383 471 b 629 260 543 471 629 421 b 432 69 629 133 567 69 l 358 69 b 157 264 224 69 157 122 b 140 281 157 275 153 281 l 93 281 b 76 264 81 281 76 275 l 76 243 b 356 -7 76 67 188 -7 l 435 -7 b 710 260 615 -7 710 85 b 533 503 710 428 638 476 z "},"И":{"ha":833,"x_min":0,"x_max":0,"o":"m 718 0 b 736 18 732 0 736 4 l 736 954 b 718 972 736 968 732 972 l 617 972 b 592 957 606 972 597 968 l 192 96 l 181 96 l 181 954 b 163 972 181 968 176 972 l 115 972 b 97 954 101 972 97 968 l 97 18 b 115 0 97 4 101 0 l 217 0 b 242 15 228 0 236 4 l 642 876 l 653 876 l 653 18 b 671 0 653 4 657 0 z "},"Й":{"ha":833,"x_min":0,"x_max":0,"o":"m 392 1064 l 446 1064 b 608 1235 556 1064 608 1121 b 590 1250 608 1246 604 1250 l 557 1250 b 539 1235 543 1250 539 1246 b 442 1126 538 1172 506 1126 l 396 1126 b 299 1235 332 1126 300 1172 b 281 1250 299 1246 294 1250 l 247 1250 b 229 1235 233 1250 229 1246 b 392 1064 229 1121 285 1064 z m 718 0 b 736 18 732 0 736 4 l 736 954 b 718 972 736 968 732 972 l 617 972 b 592 957 606 972 597 968 l 192 96 l 181 96 l 181 954 b 163 972 181 968 176 972 l 115 972 b 97 954 101 972 97 968 l 97 18 b 115 0 97 4 101 0 l 217 0 b 242 15 228 0 236 4 l 642 876 l 653 876 l 653 18 b 671 0 653 4 657 0 z "},"Ѝ":{"ha":833,"x_min":0,"x_max":0,"o":"m 357 1225 b 328 1250 347 1242 342 1250 l 261 1250 b 247 1225 246 1250 235 1240 l 374 1065 b 403 1040 386 1050 389 1040 l 442 1040 b 456 1065 456 1040 465 1050 z m 718 0 b 736 18 732 0 736 4 l 736 954 b 718 972 736 968 732 972 l 617 972 b 592 957 606 972 597 968 l 192 96 l 181 96 l 181 954 b 163 972 181 968 176 972 l 115 972 b 97 954 101 972 97 968 l 97 18 b 115 0 97 4 101 0 l 217 0 b 242 15 228 0 236 4 l 642 876 l 653 876 l 653 18 b 671 0 653 4 657 0 z "},"К":{"ha":778,"x_min":0,"x_max":0,"o":"m 718 25 l 340 521 l 686 943 b 679 972 700 960 696 972 l 621 972 b 593 953 608 972 603 965 l 181 442 l 181 954 b 163 972 181 968 176 972 l 115 972 b 97 954 101 972 97 968 l 97 18 b 115 0 97 4 101 0 l 163 0 b 181 18 176 0 181 4 l 181 325 l 288 456 l 619 19 b 656 0 631 6 639 0 l 707 0 b 718 25 724 0 726 14 z "},"Ќ":{"ha":778,"x_min":0,"x_max":0,"o":"m 356 1040 l 394 1040 b 424 1065 408 1040 411 1050 l 550 1225 b 536 1250 563 1240 551 1250 l 469 1250 b 440 1225 456 1250 450 1242 l 342 1065 b 356 1040 332 1050 342 1040 z m 718 25 l 340 521 l 686 943 b 679 972 700 960 696 972 l 621 972 b 593 953 608 972 603 965 l 181 442 l 181 954 b 163 972 181 968 176 972 l 115 972 b 97 954 101 972 97 968 l 97 18 b 115 0 97 4 101 0 l 163 0 b 181 18 176 0 181 4 l 181 325 l 288 456 l 619 19 b 656 0 631 6 639 0 l 707 0 b 718 25 724 0 726 14 z "},"Л":{"ha":882,"x_min":0,"x_max":0,"o":"m 764 972 l 181 972 b 160 951 167 972 160 965 l 160 183 b 60 78 160 100 107 78 b 42 61 50 78 42 74 l 42 14 b 60 -6 42 0 46 -6 l 83 -6 b 243 169 164 -6 243 42 l 243 894 l 701 894 l 701 18 b 719 0 701 4 706 0 l 767 0 b 785 18 781 0 785 4 l 785 951 b 764 972 785 965 778 972 z "},"М":{"ha":1013,"x_min":0,"x_max":0,"o":"m 115 0 l 163 0 b 181 18 176 0 181 4 l 181 876 l 192 876 l 443 21 b 469 0 447 7 457 0 l 543 0 b 569 21 556 0 565 7 l 821 876 l 832 876 l 832 18 b 850 0 832 4 836 0 l 897 0 b 915 18 911 0 915 4 l 915 954 b 897 972 915 968 911 972 l 788 972 b 763 951 774 972 767 965 l 511 92 l 501 92 l 250 951 b 225 972 246 965 239 972 l 115 972 b 97 954 101 972 97 968 l 97 18 b 115 0 97 4 101 0 z "},"Н":{"ha":847,"x_min":0,"x_max":0,"o":"m 732 972 l 685 972 b 667 954 671 972 667 968 l 667 526 l 181 526 l 181 954 b 163 972 181 968 176 972 l 115 972 b 97 954 101 972 97 968 l 97 18 b 115 0 97 4 101 0 l 163 0 b 181 18 176 0 181 4 l 181 451 l 667 451 l 667 18 b 685 0 667 4 671 0 l 732 0 b 750 18 746 0 750 4 l 750 954 b 732 972 750 968 746 972 z "},"О":{"ha":868,"x_min":0,"x_max":0,"o":"m 389 -7 l 479 -7 b 771 272 675 -7 771 88 l 771 700 b 479 979 771 885 675 979 l 389 979 b 97 700 192 979 97 885 l 97 272 b 389 -7 97 88 192 -7 z m 390 71 b 181 274 246 71 181 133 l 181 699 b 390 901 181 839 246 901 l 478 901 b 688 699 621 901 688 839 l 688 274 b 478 71 688 133 621 71 z "},"П":{"ha":819,"x_min":0,"x_max":0,"o":"m 115 0 l 163 0 b 181 18 176 0 181 4 l 181 894 l 639 894 l 639 18 b 657 0 639 4 643 0 l 704 0 b 722 18 718 0 722 4 l 722 951 b 701 972 722 965 715 972 l 118 972 b 97 951 104 972 97 965 l 97 18 b 115 0 97 4 101 0 z "},"Р":{"ha":806,"x_min":0,"x_max":0,"o":"m 438 972 l 115 972 b 97 954 101 972 97 968 l 97 18 b 115 0 97 4 101 0 l 163 0 b 181 18 176 0 181 4 l 181 293 l 438 293 b 722 565 636 293 722 378 l 722 700 b 438 972 722 888 636 972 z m 639 567 b 436 371 639 426 579 371 l 181 371 l 181 894 l 436 894 b 639 699 579 894 639 839 z "},"С":{"ha":840,"x_min":0,"x_max":0,"o":"m 389 -7 l 469 -7 b 757 249 667 -7 757 81 l 757 254 b 743 268 757 263 751 268 l 688 268 b 674 254 679 268 674 263 b 468 71 674 125 606 71 l 390 71 b 181 274 247 71 181 133 l 181 699 b 390 901 181 839 247 901 l 468 901 b 674 706 606 901 674 846 b 688 692 674 697 679 692 l 743 692 b 757 706 751 692 757 697 l 757 711 b 469 979 757 890 667 979 l 389 979 b 97 700 193 979 97 885 l 97 272 b 389 -7 97 88 193 -7 z "},"Т":{"ha":735,"x_min":0,"x_max":0,"o":"m 646 972 l 89 972 b 69 954 75 972 69 968 l 69 913 b 89 894 69 899 75 894 l 326 894 l 326 18 b 344 0 326 4 331 0 l 392 0 b 410 18 406 0 410 4 l 410 894 l 646 894 b 665 913 660 894 665 899 l 665 954 b 646 972 665 968 660 972 z "},"У":{"ha":785,"x_min":0,"x_max":0,"o":"m 717 972 l 660 972 b 635 953 646 972 642 967 l 392 424 l 150 953 b 125 972 143 967 139 972 l 68 972 b 58 951 56 972 51 965 l 346 324 l 207 21 b 217 0 200 7 204 0 l 274 0 b 299 19 288 0 292 6 l 726 951 b 717 972 733 965 729 972 z "},"Ў":{"ha":785,"x_min":0,"x_max":0,"o":"m 371 1064 l 425 1064 b 588 1235 535 1064 588 1121 b 569 1250 588 1246 583 1250 l 536 1250 b 518 1235 522 1250 518 1246 b 421 1126 517 1172 485 1126 l 375 1126 b 278 1235 311 1126 279 1172 b 260 1250 278 1246 274 1250 l 226 1250 b 208 1235 213 1250 208 1246 b 371 1064 208 1121 264 1064 z m 717 972 l 660 972 b 635 953 646 972 642 967 l 392 424 l 150 953 b 125 972 143 967 139 972 l 68 972 b 58 951 56 972 51 965 l 346 324 l 207 21 b 217 0 200 7 204 0 l 274 0 b 299 19 288 0 292 6 l 726 951 b 717 972 733 965 729 972 z "},"Ф":{"ha":951,"x_min":0,"x_max":0,"o":"m 563 840 l 518 840 l 518 954 b 500 972 518 968 514 972 l 453 972 b 435 954 439 972 435 968 l 435 840 l 389 840 b 97 561 192 840 97 746 l 97 411 b 389 132 97 226 192 132 l 435 132 l 435 18 b 453 0 435 4 439 0 l 500 0 b 518 18 514 0 518 4 l 518 132 l 563 132 b 854 411 758 132 854 226 l 854 561 b 563 840 854 746 758 840 z m 390 210 b 181 413 246 210 181 272 l 181 560 b 390 763 181 700 246 763 l 435 763 l 435 210 z m 771 413 b 561 210 771 272 704 210 l 518 210 l 518 763 l 561 763 b 771 560 704 763 771 700 z "},"Х":{"ha":775,"x_min":0,"x_max":0,"o":"m 82 0 l 139 0 b 165 19 153 0 157 6 l 383 408 l 392 408 l 610 19 b 636 0 618 6 622 0 l 693 0 b 701 19 706 0 710 6 l 435 486 l 700 953 b 692 972 708 967 704 972 l 635 972 b 608 953 621 972 617 967 l 392 564 l 383 564 l 167 953 b 140 972 158 967 154 972 l 83 972 b 75 953 71 972 67 967 l 340 486 l 74 19 b 82 0 65 6 69 0 z "},"Ч":{"ha":792,"x_min":0,"x_max":0,"o":"m 629 0 l 676 0 b 694 18 690 0 694 4 l 694 954 b 676 972 694 968 690 972 l 629 972 b 611 954 615 972 611 968 l 611 493 b 431 349 611 404 543 349 l 308 349 b 153 493 194 349 153 404 l 153 954 b 135 972 153 968 149 972 l 88 972 b 69 954 74 972 69 968 l 69 489 b 307 272 69 357 139 272 l 410 272 b 611 367 499 272 585 315 l 611 18 b 629 0 611 4 615 0 z "},"Ц":{"ha":819,"x_min":0,"x_max":0,"o":"m 771 78 l 722 78 l 722 954 b 704 972 722 968 718 972 l 657 972 b 639 954 643 972 639 968 l 639 78 l 181 78 l 181 954 b 163 972 181 968 176 972 l 115 972 b 97 954 101 972 97 968 l 97 21 b 118 0 97 7 104 0 l 708 0 l 708 -117 b 726 -135 708 -131 713 -135 l 774 -135 b 792 -117 788 -135 792 -131 l 792 57 b 771 78 792 71 785 78 z "},"Ш":{"ha":1208,"x_min":0,"x_max":0,"o":"m 118 0 l 1090 0 b 1111 21 1104 0 1111 7 l 1111 954 b 1093 972 1111 968 1107 972 l 1046 972 b 1028 954 1032 972 1028 968 l 1028 78 l 646 78 l 646 954 b 628 972 646 968 642 972 l 581 972 b 563 954 567 972 563 968 l 563 78 l 181 78 l 181 954 b 163 972 181 968 176 972 l 115 972 b 97 954 101 972 97 968 l 97 21 b 118 0 97 7 104 0 z "},"Щ":{"ha":1208,"x_min":0,"x_max":0,"o":"m 1160 78 l 1111 78 l 1111 954 b 1093 972 1111 968 1107 972 l 1046 972 b 1028 954 1032 972 1028 968 l 1028 78 l 646 78 l 646 954 b 628 972 646 968 642 972 l 581 972 b 563 954 567 972 563 968 l 563 78 l 181 78 l 181 954 b 163 972 181 968 176 972 l 115 972 b 97 954 101 972 97 968 l 97 21 b 118 0 97 7 104 0 l 1097 0 l 1097 -117 b 1115 -135 1097 -131 1101 -135 l 1163 -135 b 1181 -117 1176 -135 1181 -131 l 1181 57 b 1160 78 1181 71 1174 78 z "},"Ь":{"ha":806,"x_min":0,"x_max":0,"o":"m 438 679 l 181 679 l 181 954 b 163 972 181 968 176 972 l 115 972 b 97 954 101 972 97 968 l 97 18 b 115 0 97 4 101 0 l 438 0 b 722 272 636 0 722 85 l 722 407 b 438 679 722 594 636 679 z m 639 274 b 436 78 639 133 579 78 l 181 78 l 181 601 l 436 601 b 639 406 579 601 639 546 z "},"Ъ":{"ha":931,"x_min":0,"x_max":0,"o":"m 549 679 l 292 679 l 292 954 b 274 972 292 968 288 972 l 89 972 b 69 954 75 972 69 968 l 69 913 b 89 894 69 899 75 894 l 208 894 l 208 18 b 226 0 208 4 213 0 l 549 0 b 833 272 747 0 833 85 l 833 407 b 549 679 833 594 747 679 z m 750 274 b 547 78 750 133 690 78 l 292 78 l 292 601 l 547 601 b 750 406 690 601 750 546 z "},"Ы":{"ha":1083,"x_min":0,"x_max":0,"o":"m 438 679 l 181 679 l 181 954 b 163 972 181 968 176 972 l 115 972 b 97 954 101 972 97 968 l 97 18 b 115 0 97 4 101 0 l 438 0 b 722 272 636 0 722 85 l 722 407 b 438 679 722 594 636 679 z m 968 972 l 921 972 b 903 954 907 972 903 968 l 903 18 b 921 0 903 4 907 0 l 968 0 b 986 18 982 0 986 4 l 986 954 b 968 972 986 968 982 972 z m 639 274 b 436 78 639 133 579 78 l 181 78 l 181 601 l 436 601 b 639 406 579 601 639 546 z "},"Є":{"ha":840,"x_min":0,"x_max":0,"o":"m 390 901 l 468 901 b 674 706 606 901 674 846 b 688 692 674 697 679 692 l 743 692 b 757 706 751 692 757 697 l 757 711 b 469 979 757 890 667 979 l 389 979 b 97 700 193 979 97 885 l 97 272 b 389 -7 97 88 193 -7 l 469 -7 b 757 249 667 -7 757 81 l 757 254 b 743 268 757 263 751 268 l 688 268 b 674 254 679 268 674 263 b 468 71 674 125 606 71 l 390 71 b 181 274 247 71 181 133 l 181 447 l 378 447 b 397 465 392 447 397 451 l 397 507 b 378 525 397 521 392 525 l 181 525 l 181 699 b 390 901 181 839 247 901 z "},"Э":{"ha":840,"x_min":0,"x_max":0,"o":"m 451 979 l 371 979 b 83 711 174 979 83 890 l 83 706 b 97 692 83 697 89 692 l 153 692 b 167 706 161 692 167 697 b 372 901 167 846 235 901 l 450 901 b 660 699 593 901 660 839 l 660 525 l 463 525 b 443 507 449 525 443 521 l 443 465 b 463 447 443 451 449 447 l 660 447 l 660 274 b 450 71 660 133 593 71 l 372 71 b 167 254 235 71 167 125 b 153 268 167 263 161 268 l 97 268 b 83 254 89 268 83 263 l 83 249 b 371 -7 83 81 174 -7 l 451 -7 b 743 272 647 -7 743 88 l 743 700 b 451 979 743 885 647 979 z "},"І":{"ha":278,"x_min":0,"x_max":0,"o":"m 115 0 l 163 0 b 181 18 176 0 181 4 l 181 954 b 163 972 181 968 176 972 l 115 972 b 97 954 101 972 97 968 l 97 18 b 115 0 97 4 101 0 z "},"Ї":{"ha":278,"x_min":0,"x_max":0,"o":"m -79 1160 l -25 1160 b -7 1178 -11 1160 -7 1164 l -7 1232 b -25 1250 -7 1246 -11 1250 l -79 1250 b -97 1232 -93 1250 -97 1246 l -97 1178 b -79 1160 -97 1164 -93 1160 z m 303 1160 l 357 1160 b 375 1178 371 1160 375 1164 l 375 1232 b 357 1250 375 1246 371 1250 l 303 1250 b 285 1232 289 1250 285 1246 l 285 1178 b 303 1160 285 1164 289 1160 z m 115 0 l 163 0 b 181 18 176 0 181 4 l 181 954 b 163 972 181 968 176 972 l 115 972 b 97 954 101 972 97 968 l 97 18 b 115 0 97 4 101 0 z "},"Ј":{"ha":500,"x_min":0,"x_max":0,"o":"m 82 -7 l 111 -7 b 403 272 307 -7 403 88 l 403 954 b 385 972 403 968 399 972 l 338 972 b 319 954 324 972 319 968 l 319 274 b 110 71 319 133 253 71 l 82 71 b 63 53 68 71 63 67 l 63 11 b 82 -7 63 -3 68 -7 z "},"Ю":{"ha":1160,"x_min":0,"x_max":0,"o":"m 771 979 l 681 979 b 389 700 483 979 389 885 l 389 525 l 181 525 l 181 954 b 163 972 181 968 176 972 l 115 972 b 97 954 101 972 97 968 l 97 18 b 115 0 97 4 101 0 l 163 0 b 181 18 176 0 181 4 l 181 449 l 389 449 l 389 272 b 681 -7 389 88 483 -7 l 771 -7 b 1063 272 967 -7 1063 88 l 1063 700 b 771 979 1063 885 967 979 z m 979 274 b 769 71 979 133 913 71 l 682 71 b 472 274 538 71 472 133 l 472 699 b 682 901 472 839 538 901 l 769 901 b 979 699 913 901 979 839 z "},"Я":{"ha":799,"x_min":0,"x_max":0,"o":"m 683 972 l 361 972 b 76 700 163 972 76 888 l 76 565 b 218 314 76 432 121 350 l 79 25 b 94 0 72 10 79 0 l 139 0 b 163 15 150 0 157 4 l 297 296 b 361 293 317 294 338 293 l 618 293 l 618 18 b 636 0 618 4 622 0 l 683 0 b 701 18 697 0 701 4 l 701 954 b 683 972 701 968 697 972 z m 363 371 b 160 567 219 371 160 426 l 160 699 b 363 894 160 839 219 894 l 618 894 l 618 371 z "},"Ӏ":{"ha":278,"x_min":0,"x_max":0,"o":"m 115 0 l 163 0 b 181 18 176 0 181 4 l 181 954 b 163 972 181 968 176 972 l 115 972 b 97 954 101 972 97 968 l 97 18 b 115 0 97 4 101 0 z "},"Ӣ":{"ha":833,"x_min":0,"x_max":0,"o":"m 194 1171 l 644 1171 b 665 1192 657 1171 665 1178 l 665 1229 b 644 1250 665 1243 657 1250 l 194 1250 b 174 1229 181 1250 174 1243 l 174 1192 b 194 1171 174 1178 181 1171 z m 718 0 b 736 18 732 0 736 4 l 736 954 b 718 972 736 968 732 972 l 617 972 b 592 957 606 972 597 968 l 192 96 l 181 96 l 181 954 b 163 972 181 968 176 972 l 115 972 b 97 954 101 972 97 968 l 97 18 b 115 0 97 4 101 0 l 217 0 b 242 15 228 0 236 4 l 642 876 l 653 876 l 653 18 b 671 0 653 4 657 0 z "},"Ө":{"ha":868,"x_min":0,"x_max":0,"o":"m 479 979 l 389 979 b 97 700 192 979 97 885 l 97 272 b 389 -7 97 88 192 -7 l 479 -7 b 771 272 675 -7 771 88 l 771 700 b 479 979 771 885 675 979 z m 390 901 l 478 901 b 688 699 621 901 688 839 l 688 524 l 181 524 l 181 699 b 390 901 181 839 246 901 z m 478 71 l 390 71 b 181 274 246 71 181 133 l 181 449 l 688 449 l 688 274 b 478 71 688 133 621 71 z "},"Ӭ":{"ha":840,"x_min":0,"x_max":0,"o":"m 194 1160 l 249 1160 b 267 1178 263 1160 267 1164 l 267 1232 b 249 1250 267 1246 263 1250 l 194 1250 b 176 1232 181 1250 176 1246 l 176 1178 b 194 1160 176 1164 181 1160 z m 576 1160 l 631 1160 b 649 1178 644 1160 649 1164 l 649 1232 b 631 1250 649 1246 644 1250 l 576 1250 b 558 1232 563 1250 558 1246 l 558 1178 b 576 1160 558 1164 563 1160 z m 451 979 l 371 979 b 83 711 174 979 83 890 l 83 706 b 97 692 83 697 89 692 l 153 692 b 167 706 161 692 167 697 b 372 901 167 846 235 901 l 450 901 b 660 699 593 901 660 839 l 660 525 l 463 525 b 443 507 449 525 443 521 l 443 465 b 463 447 443 451 449 447 l 660 447 l 660 274 b 450 71 660 133 593 71 l 372 71 b 167 254 235 71 167 125 b 153 268 167 263 161 268 l 97 268 b 83 254 89 268 83 263 l 83 249 b 371 -7 83 81 174 -7 l 451 -7 b 743 272 647 -7 743 88 l 743 700 b 451 979 743 885 647 979 z "},"Ӯ":{"ha":785,"x_min":0,"x_max":0,"o":"m 174 1171 l 624 1171 b 644 1192 636 1171 644 1178 l 644 1229 b 624 1250 644 1243 636 1250 l 174 1250 b 153 1229 160 1250 153 1243 l 153 1192 b 174 1171 153 1178 160 1171 z m 717 972 l 660 972 b 635 953 646 972 642 967 l 392 424 l 150 953 b 125 972 143 967 139 972 l 68 972 b 58 951 56 972 51 965 l 346 324 l 207 21 b 217 0 200 7 204 0 l 274 0 b 299 19 288 0 292 6 l 726 951 b 717 972 733 965 729 972 z "},"а":{"ha":713,"x_min":0,"x_max":0,"o":"m 381 700 l 354 700 b 143 668 263 700 186 685 b 135 651 136 665 133 660 l 143 610 b 160 600 144 601 151 597 b 353 625 208 617 275 625 b 542 467 506 625 542 568 l 542 406 l 282 406 b 69 231 150 406 69 357 l 69 197 b 286 -7 69 68 133 -7 l 293 -7 b 529 108 401 -7 479 43 l 542 108 l 542 17 b 558 0 542 6 546 0 l 606 0 b 622 17 618 0 622 6 l 622 472 b 381 700 622 621 551 700 z m 336 68 l 292 68 b 150 201 199 68 150 107 l 150 225 b 290 339 150 313 201 339 l 542 339 l 542 243 b 336 68 542 156 447 68 z "},"б":{"ha":719,"x_min":0,"x_max":0,"o":"m 357 -7 l 406 -7 b 643 228 558 -7 643 72 l 643 465 b 406 700 643 621 558 700 l 357 700 b 182 615 274 700 214 668 l 171 615 l 171 763 b 268 871 171 831 190 871 b 449 858 339 871 394 858 b 593 957 524 858 593 883 b 578 972 593 967 590 972 l 529 972 b 511 963 519 972 517 971 b 431 931 493 935 469 931 b 249 943 367 931 318 943 b 90 764 125 943 90 868 l 90 17 b 107 0 90 6 94 0 l 154 0 b 171 17 167 0 171 6 l 171 78 l 182 78 b 357 -7 214 25 274 -7 z m 335 68 b 171 231 228 68 171 129 l 171 463 b 335 625 171 564 228 625 l 396 625 b 563 460 508 625 563 567 l 563 233 b 396 68 563 126 508 68 z "},"в":{"ha":683,"x_min":0,"x_max":0,"o":"m 510 363 b 588 503 581 397 588 463 b 397 694 588 643 513 694 l 111 694 b 90 674 97 694 90 688 l 90 21 b 111 0 90 7 97 0 l 404 0 b 607 192 535 0 607 44 b 510 351 607 253 590 322 z m 171 621 l 394 621 b 508 503 465 621 508 588 b 415 389 508 449 488 389 l 171 389 z m 404 74 l 171 74 l 171 324 l 415 322 b 528 192 488 322 528 282 b 404 74 528 89 475 74 z "},"г":{"ha":586,"x_min":0,"x_max":0,"o":"m 514 694 l 107 694 b 94 690 101 694 97 693 b 90 678 92 688 90 683 l 90 17 b 107 0 90 6 94 0 l 154 0 b 171 17 167 0 171 6 l 171 621 l 514 621 b 531 638 525 621 531 625 l 531 678 b 514 694 531 690 525 694 z "},"ѓ":{"ha":586,"x_min":0,"x_max":0,"o":"m 290 763 l 329 763 b 358 788 343 763 346 772 l 485 947 b 471 972 497 963 486 972 l 404 972 b 375 947 390 972 385 964 l 276 788 b 290 763 267 772 276 763 z m 514 694 l 107 694 b 94 690 101 694 97 693 b 90 678 92 688 90 683 l 90 17 b 107 0 90 6 94 0 l 154 0 b 171 17 167 0 171 6 l 171 621 l 514 621 b 531 638 525 621 531 625 l 531 678 b 514 694 531 690 525 694 z "},"ґ":{"ha":586,"x_min":0,"x_max":0,"o":"m 514 769 l 467 769 b 450 753 454 769 450 764 l 450 694 l 107 694 b 94 690 101 694 97 693 b 90 678 92 688 90 683 l 90 17 b 107 0 90 6 94 0 l 154 0 b 171 17 167 0 171 6 l 171 621 l 514 621 b 531 638 525 621 531 625 l 531 753 b 514 769 531 764 526 769 z "},"д":{"ha":819,"x_min":0,"x_max":0,"o":"m 764 74 l 713 74 l 713 674 b 692 694 713 688 706 694 l 224 694 b 203 674 210 694 203 688 l 203 317 b 72 74 203 139 138 74 l 56 74 b 35 53 42 74 35 67 l 35 -86 b 51 -103 35 -97 39 -103 l 99 -103 b 115 -86 111 -103 115 -97 l 115 0 l 704 0 l 704 -86 b 721 -103 704 -97 708 -103 l 768 -103 b 785 -86 781 -103 785 -97 l 785 53 b 764 74 785 67 778 74 z m 208 74 b 283 315 257 124 283 207 l 283 621 l 632 621 l 632 74 z "},"е":{"ha":701,"x_min":0,"x_max":0,"o":"m 360 -7 b 596 69 475 -7 557 31 b 594 88 600 74 600 81 l 578 111 b 554 114 572 119 567 122 b 360 65 515 88 458 65 l 346 65 b 157 231 213 65 157 132 l 157 314 l 581 314 b 625 357 608 314 625 331 l 625 467 b 382 700 625 617 538 700 l 319 700 b 76 464 167 700 76 614 l 76 229 b 346 -7 76 83 163 -7 z m 157 378 l 157 463 b 319 625 157 564 213 625 l 382 625 b 544 465 492 625 544 567 l 544 378 z "},"ё":{"ha":701,"x_min":0,"x_max":0,"o":"m 135 882 l 189 882 b 207 900 203 882 207 886 l 207 954 b 189 972 207 968 203 972 l 135 972 b 117 954 121 972 117 968 l 117 900 b 135 882 117 886 121 882 z m 517 882 l 571 882 b 589 900 585 882 589 886 l 589 954 b 571 972 589 968 585 972 l 517 972 b 499 954 503 972 499 968 l 499 900 b 517 882 499 886 503 882 z m 360 -7 b 596 69 475 -7 557 31 b 594 88 600 74 600 81 l 578 111 b 554 114 572 119 567 122 b 360 65 515 88 458 65 l 346 65 b 157 231 213 65 157 132 l 157 314 l 581 314 b 625 357 608 314 625 331 l 625 467 b 382 700 625 617 538 700 l 319 700 b 76 464 167 700 76 614 l 76 229 b 346 -7 76 83 163 -7 z m 157 378 l 157 463 b 319 625 157 564 213 625 l 382 625 b 544 465 492 625 544 567 l 544 378 z "},"ж":{"ha":989,"x_min":0,"x_max":0,"o":"m 939 26 l 589 346 l 926 668 b 922 694 939 679 936 694 l 858 694 b 835 683 847 694 842 690 l 528 385 l 528 678 b 511 694 528 689 524 694 l 464 694 b 447 678 451 694 447 689 l 447 385 l 140 683 b 117 694 133 690 128 694 l 53 694 b 49 668 39 694 36 679 l 386 346 l 36 26 b 40 0 24 15 26 0 l 106 0 b 129 11 117 0 122 4 l 447 308 l 447 17 b 464 0 447 6 451 0 l 511 0 b 528 17 524 0 528 6 l 528 308 l 846 11 b 869 0 853 4 858 0 l 935 0 b 939 26 949 0 951 15 z "},"з":{"ha":646,"x_min":0,"x_max":0,"o":"m 267 -8 l 365 -8 b 583 186 494 -8 583 49 b 494 346 583 251 571 317 l 494 357 b 576 507 571 385 576 442 b 365 701 576 632 494 701 l 267 701 b 63 510 139 701 63 633 b 78 494 63 500 67 494 l 131 494 b 146 510 140 494 146 500 b 267 625 146 572 185 625 l 365 625 b 494 507 450 625 494 583 b 396 385 494 435 482 385 l 285 385 b 271 371 275 385 271 382 l 271 331 b 285 317 271 319 275 317 l 396 317 b 501 186 482 317 501 257 b 365 68 501 101 449 68 l 267 68 b 146 174 183 68 146 114 b 131 189 146 185 140 189 l 78 189 b 63 174 67 189 63 185 b 267 -8 63 51 139 -8 z "},"и":{"ha":722,"x_min":0,"x_max":0,"o":"m 107 0 l 194 0 b 219 15 206 0 214 4 l 542 604 l 551 604 l 551 17 b 568 0 551 6 556 0 l 615 0 b 632 17 628 0 632 6 l 632 678 b 615 694 632 689 628 694 l 528 694 b 503 679 517 694 508 690 l 181 90 l 171 90 l 171 678 b 154 694 171 689 167 694 l 107 694 b 90 678 94 694 90 689 l 90 17 b 107 0 90 6 94 0 z "},"й":{"ha":722,"x_min":0,"x_max":0,"o":"m 347 786 l 401 786 b 564 957 511 786 564 843 b 546 972 564 968 560 972 l 513 972 b 494 957 499 972 494 968 b 397 849 493 894 461 849 l 351 849 b 254 957 288 849 256 894 b 236 972 254 968 250 972 l 203 972 b 185 957 189 972 185 968 b 347 786 185 843 240 786 z m 107 0 l 194 0 b 219 15 206 0 214 4 l 542 604 l 551 604 l 551 17 b 568 0 551 6 556 0 l 615 0 b 632 17 628 0 632 6 l 632 678 b 615 694 632 689 628 694 l 528 694 b 503 679 517 694 508 690 l 181 90 l 171 90 l 171 678 b 154 694 171 689 167 694 l 107 694 b 90 678 94 694 90 689 l 90 17 b 107 0 90 6 94 0 z "},"ѝ":{"ha":722,"x_min":0,"x_max":0,"o":"m 313 947 b 283 972 303 964 297 972 l 217 972 b 203 947 201 972 190 963 l 329 788 b 358 763 342 772 344 763 l 397 763 b 411 788 411 763 421 772 z m 107 0 l 194 0 b 219 15 206 0 214 4 l 542 604 l 551 604 l 551 17 b 568 0 551 6 556 0 l 615 0 b 632 17 628 0 632 6 l 632 678 b 615 694 632 689 628 694 l 528 694 b 503 679 517 694 508 690 l 181 90 l 171 90 l 171 678 b 154 694 171 689 167 694 l 107 694 b 90 678 94 694 90 689 l 90 17 b 107 0 90 6 94 0 z "},"к":{"ha":632,"x_min":0,"x_max":0,"o":"m 582 26 l 232 346 l 569 668 b 565 694 582 679 579 694 l 501 694 b 478 683 490 694 485 690 l 171 385 l 171 678 b 154 694 171 689 167 694 l 107 694 b 90 678 94 694 90 689 l 90 17 b 107 0 90 6 94 0 l 154 0 b 171 17 167 0 171 6 l 171 308 l 489 11 b 513 0 496 4 501 0 l 578 0 b 582 26 592 0 594 15 z "},"ќ":{"ha":632,"x_min":0,"x_max":0,"o":"m 297 763 l 336 763 b 365 788 350 763 353 772 l 492 947 b 478 972 504 963 493 972 l 411 972 b 382 947 397 972 392 964 l 283 788 b 297 763 274 772 283 763 z m 582 26 l 232 346 l 569 668 b 565 694 582 679 579 694 l 501 694 b 478 683 490 694 485 690 l 171 385 l 171 678 b 154 694 171 689 167 694 l 107 694 b 90 678 94 694 90 689 l 90 17 b 107 0 90 6 94 0 l 154 0 b 171 17 167 0 171 6 l 171 308 l 489 11 b 513 0 496 4 501 0 l 578 0 b 582 26 592 0 594 15 z "},"л":{"ha":754,"x_min":0,"x_max":0,"o":"m 53 -14 b 196 156 156 -14 196 40 l 196 621 l 583 621 l 583 17 b 600 0 583 6 588 0 l 647 0 b 664 17 660 0 664 6 l 664 678 b 647 694 664 689 660 694 l 132 694 b 115 678 119 694 115 689 l 115 165 b 24 60 115 83 90 60 b 0 40 6 60 0 53 l 0 10 b 53 -14 0 -7 13 -14 z "},"м":{"ha":889,"x_min":0,"x_max":0,"o":"m 782 694 l 708 694 b 683 676 697 694 689 689 l 444 163 l 206 676 b 181 694 200 689 192 694 l 107 694 b 90 678 94 694 90 689 l 90 17 b 107 0 90 6 94 0 l 154 0 b 171 17 167 0 171 6 l 171 582 l 401 79 b 426 63 407 68 414 63 l 463 63 b 488 79 475 63 482 68 l 718 582 l 718 17 b 735 0 718 6 722 0 l 782 0 b 799 17 794 0 799 6 l 799 678 b 782 694 799 689 794 694 z "},"н":{"ha":729,"x_min":0,"x_max":0,"o":"m 622 694 l 575 694 b 558 678 563 694 558 689 l 558 385 l 171 385 l 171 678 b 154 694 171 689 167 694 l 107 694 b 90 678 94 694 90 689 l 90 17 b 107 0 90 6 94 0 l 154 0 b 171 17 167 0 171 6 l 171 311 l 558 311 l 558 17 b 575 0 558 6 563 0 l 622 0 b 639 17 635 0 639 6 l 639 678 b 622 694 639 689 635 694 z "},"о":{"ha":706,"x_min":0,"x_max":0,"o":"m 319 -7 l 386 -7 b 629 226 540 -7 629 76 l 629 467 b 386 700 629 617 542 700 l 319 700 b 76 467 164 700 76 617 l 76 226 b 319 -7 76 76 164 -7 z m 319 68 b 157 228 210 68 157 126 l 157 465 b 319 625 157 567 210 625 l 386 625 b 549 465 496 625 549 567 l 549 228 b 386 68 549 126 496 68 z "},"п":{"ha":729,"x_min":0,"x_max":0,"o":"m 107 0 l 154 0 b 171 17 167 0 171 6 l 171 621 l 558 621 l 558 17 b 575 0 558 6 563 0 l 622 0 b 639 17 635 0 639 6 l 639 678 b 622 694 639 689 635 694 l 107 694 b 90 678 94 694 90 689 l 90 17 b 107 0 90 6 94 0 z "},"р":{"ha":719,"x_min":0,"x_max":0,"o":"m 406 700 l 357 700 b 182 615 274 700 214 668 l 171 615 l 171 678 b 154 694 171 689 167 694 l 107 694 b 90 678 94 694 90 689 l 90 -229 b 107 -246 90 -240 94 -246 l 154 -246 b 171 -229 167 -246 171 -240 l 171 78 l 182 78 b 357 -7 214 25 274 -7 l 406 -7 b 643 228 558 -7 643 72 l 643 465 b 406 700 643 621 558 700 z m 563 233 b 396 68 563 126 508 68 l 335 68 b 171 231 228 68 171 129 l 171 463 b 335 625 171 564 228 625 l 396 625 b 563 460 508 625 563 567 z "},"с":{"ha":688,"x_min":0,"x_max":0,"o":"m 347 -7 l 358 -7 b 607 110 501 -7 571 38 b 597 136 613 122 613 129 l 571 149 b 540 140 553 157 547 151 b 358 67 507 89 469 67 l 350 67 b 157 231 215 67 157 129 l 157 463 b 319 625 157 564 213 625 l 382 625 b 539 490 483 625 539 572 l 539 486 b 556 469 539 475 543 469 l 601 469 b 618 486 614 469 618 475 l 618 492 b 382 700 618 622 528 700 l 319 700 b 76 464 167 700 76 614 l 76 229 b 347 -7 76 79 165 -7 z "},"т":{"ha":618,"x_min":0,"x_max":0,"o":"m 546 694 l 72 694 b 56 678 61 694 56 690 l 56 638 b 72 621 56 625 61 621 l 269 621 l 269 17 b 286 0 269 6 274 0 l 333 0 b 350 17 346 0 350 6 l 350 621 l 546 621 b 563 638 557 621 563 625 l 563 678 b 546 694 563 690 557 694 z "},"у":{"ha":721,"x_min":0,"x_max":0,"o":"m 653 694 l 600 694 b 578 672 586 694 583 688 l 364 93 l 356 93 l 142 672 b 119 694 136 688 133 694 l 68 694 b 57 674 54 694 53 686 l 318 -15 l 238 -225 b 250 -246 233 -236 236 -246 l 300 -246 b 321 -225 314 -246 317 -236 l 664 674 b 653 694 668 686 667 694 z "},"ў":{"ha":721,"x_min":0,"x_max":0,"o":"m 332 786 l 386 786 b 549 957 496 786 549 843 b 531 972 549 968 544 972 l 497 972 b 479 957 483 972 479 968 b 382 849 478 894 446 849 l 336 849 b 239 957 272 849 240 894 b 221 972 239 968 235 972 l 188 972 b 169 957 174 972 169 968 b 332 786 169 843 225 786 z m 653 694 l 600 694 b 578 672 586 694 583 688 l 364 93 l 356 93 l 142 672 b 119 694 136 688 133 694 l 68 694 b 57 674 54 694 53 686 l 318 -15 l 238 -225 b 250 -246 233 -236 236 -246 l 300 -246 b 321 -225 314 -246 317 -236 l 664 674 b 653 694 668 686 667 694 z "},"ф":{"ha":1178,"x_min":0,"x_max":0,"o":"m 864 700 l 815 700 b 640 615 732 700 672 668 l 629 615 l 629 956 b 613 972 629 967 625 972 l 565 972 b 549 956 553 972 549 967 l 549 615 l 538 615 b 363 700 506 668 446 700 l 314 700 b 76 465 161 700 76 621 l 76 228 b 314 -7 76 72 161 -7 l 363 -7 b 538 78 446 -7 506 25 l 549 78 l 549 -229 b 565 -246 549 -240 553 -246 l 613 -246 b 629 -229 625 -246 629 -240 l 629 78 l 640 78 b 815 -7 672 25 732 -7 l 864 -7 b 1101 228 1017 -7 1101 72 l 1101 465 b 864 700 1101 621 1017 700 z m 385 68 l 324 68 b 157 233 211 68 157 126 l 157 460 b 324 625 157 567 211 625 l 385 625 b 549 463 492 625 549 564 l 549 231 b 385 68 549 129 492 68 z m 1021 233 b 854 68 1021 126 967 68 l 793 68 b 629 231 686 68 629 129 l 629 463 b 793 625 629 564 686 625 l 854 625 b 1021 460 967 625 1021 567 z "},"х":{"ha":621,"x_min":0,"x_max":0,"o":"m 72 0 l 119 0 b 147 19 131 0 138 4 l 306 286 l 315 286 l 474 19 b 501 0 483 4 490 0 l 547 0 b 563 21 565 0 569 10 l 361 351 l 557 674 b 544 694 564 685 561 694 l 496 694 b 468 675 483 694 478 690 l 315 418 l 306 418 l 153 675 b 125 694 143 690 138 694 l 76 694 b 64 674 60 694 57 685 l 260 351 l 58 21 b 72 0 51 10 56 0 z "},"ч":{"ha":729,"x_min":0,"x_max":0,"o":"m 575 0 l 622 0 b 639 17 635 0 639 6 l 639 678 b 622 694 639 689 635 694 l 575 694 b 558 678 563 694 558 689 l 558 392 b 381 233 558 288 490 233 l 322 233 b 171 393 215 233 171 289 l 171 678 b 154 694 171 689 167 694 l 107 694 b 90 678 94 694 90 689 l 90 392 b 321 157 90 240 147 157 l 371 157 b 558 249 458 157 526 197 l 558 17 b 575 0 558 6 563 0 z "},"ц":{"ha":746,"x_min":0,"x_max":0,"o":"m 690 74 l 639 74 l 639 678 b 622 694 639 689 635 694 l 575 694 b 558 678 563 694 558 689 l 558 74 l 171 74 l 171 678 b 154 694 171 689 167 694 l 107 694 b 90 678 94 694 90 689 l 90 17 b 107 0 90 6 94 0 l 631 0 l 631 -86 b 647 -103 631 -97 635 -103 l 694 -103 b 711 -86 707 -103 711 -97 l 711 53 b 690 74 711 67 704 74 z "},"ш":{"ha":1014,"x_min":0,"x_max":0,"o":"m 107 0 l 907 0 b 924 17 919 0 924 6 l 924 678 b 907 694 924 689 919 694 l 860 694 b 843 678 847 694 843 689 l 843 74 l 547 74 l 547 678 b 531 694 547 689 543 694 l 483 694 b 467 678 471 694 467 689 l 467 74 l 171 74 l 171 678 b 154 694 171 689 167 694 l 107 694 b 90 678 94 694 90 689 l 90 17 b 107 0 90 6 94 0 z "},"щ":{"ha":1017,"x_min":0,"x_max":0,"o":"m 961 74 l 924 74 l 924 678 b 907 694 924 689 919 694 l 860 694 b 843 678 847 694 843 689 l 843 74 l 547 74 l 547 678 b 531 694 547 689 543 694 l 483 694 b 467 678 471 694 467 689 l 467 74 l 171 74 l 171 678 b 154 694 171 689 167 694 l 107 694 b 90 678 94 694 90 689 l 90 17 b 107 0 90 6 94 0 l 901 0 l 901 -86 b 918 -103 901 -97 906 -103 l 965 -103 b 982 -86 978 -103 982 -97 l 982 53 b 961 74 982 67 975 74 z "},"ь":{"ha":715,"x_min":0,"x_max":0,"o":"m 407 458 l 171 458 l 171 678 b 154 694 171 689 167 694 l 107 694 b 90 678 94 694 90 689 l 90 17 b 107 0 90 6 94 0 l 407 0 b 639 229 572 0 639 60 b 407 458 639 399 572 458 z m 396 74 l 171 74 l 171 385 l 396 385 b 558 229 515 385 558 349 b 396 74 558 110 515 74 z "},"ъ":{"ha":757,"x_min":0,"x_max":0,"o":"m 449 458 l 213 458 l 213 678 b 196 694 213 689 208 694 l 51 694 b 35 678 40 694 35 690 l 35 638 b 51 621 35 625 40 621 l 132 621 l 132 17 b 149 0 132 6 136 0 l 449 0 b 681 229 614 0 681 60 b 449 458 681 399 614 458 z m 438 74 l 213 74 l 213 385 l 438 385 b 600 229 557 385 600 349 b 438 74 600 110 557 74 z "},"ы":{"ha":903,"x_min":0,"x_max":0,"o":"m 407 458 l 171 458 l 171 678 b 154 694 171 689 167 694 l 107 694 b 90 678 94 694 90 689 l 90 17 b 107 0 90 6 94 0 l 407 0 b 639 229 572 0 639 60 b 407 458 639 399 572 458 z m 796 694 l 749 694 b 732 678 736 694 732 689 l 732 17 b 749 0 732 6 736 0 l 796 0 b 813 17 808 0 813 6 l 813 678 b 796 694 813 689 808 694 z m 396 74 l 171 74 l 171 385 l 396 385 b 558 229 515 385 558 349 b 396 74 558 110 515 74 z "},"є":{"ha":688,"x_min":0,"x_max":0,"o":"m 382 700 l 319 700 b 76 464 167 700 76 614 l 76 229 b 347 -7 76 79 165 -7 l 358 -7 b 607 110 501 -7 571 38 b 597 136 613 122 613 129 l 571 149 b 540 140 553 157 547 151 b 358 67 507 89 469 67 l 350 67 b 157 231 215 67 157 129 l 157 306 l 301 306 b 318 322 313 306 318 310 l 318 363 b 301 379 318 375 313 379 l 157 379 l 157 463 b 319 625 157 564 213 625 l 382 625 b 539 490 483 625 539 572 l 539 486 b 556 469 539 475 543 469 l 601 469 b 618 486 614 469 618 475 l 618 492 b 382 700 618 622 528 700 z "},"э":{"ha":688,"x_min":0,"x_max":0,"o":"m 368 700 l 306 700 b 69 492 160 700 69 622 l 69 486 b 86 469 69 475 74 469 l 132 469 b 149 486 144 469 149 475 l 149 490 b 306 625 149 572 204 625 l 368 625 b 531 463 475 625 531 564 l 531 379 l 386 379 b 369 363 375 379 369 375 l 369 322 b 386 306 369 310 375 306 l 531 306 l 531 231 b 338 67 531 129 472 67 l 329 67 b 147 140 218 67 181 89 b 117 149 140 151 135 157 l 90 136 b 81 110 75 129 75 122 b 329 -7 117 38 186 -7 l 340 -7 b 611 229 522 -7 611 79 l 611 464 b 368 700 611 614 521 700 z "},"і":{"ha":264,"x_min":0,"x_max":0,"o":"m 107 890 l 157 890 b 174 907 169 890 174 896 l 174 956 b 157 972 174 967 169 972 l 107 972 b 90 956 94 972 90 967 l 90 907 b 107 890 90 896 94 890 z m 108 0 l 156 0 b 172 17 168 0 172 6 l 172 678 b 156 694 172 689 168 694 l 108 694 b 92 678 96 694 92 689 l 92 17 b 108 0 92 6 96 0 z "},"ї":{"ha":233,"x_min":0,"x_max":0,"o":"m -101 882 l -47 882 b -29 900 -33 882 -29 886 l -29 954 b -47 972 -29 968 -33 972 l -101 972 b -119 954 -115 972 -119 968 l -119 900 b -101 882 -119 886 -115 882 z m 281 882 l 335 882 b 353 900 349 882 353 886 l 353 954 b 335 972 353 968 349 972 l 281 972 b 263 954 267 972 263 968 l 263 900 b 281 882 263 886 267 882 z m 93 0 l 140 0 b 157 17 153 0 157 6 l 157 678 b 140 694 157 689 153 694 l 93 694 b 76 678 81 694 76 689 l 76 17 b 93 0 76 6 81 0 z "},"ј":{"ha":272,"x_min":0,"x_max":0,"o":"m 115 890 l 165 890 b 182 907 178 890 182 896 l 182 956 b 165 972 182 967 178 972 l 115 972 b 99 956 103 972 99 967 l 99 907 b 115 890 99 896 103 890 z m 39 -253 b 182 -83 142 -253 182 -199 l 182 678 b 165 694 182 689 178 694 l 118 694 b 101 678 106 694 101 689 l 101 -74 b 10 -179 101 -156 76 -179 b -14 -199 -8 -179 -14 -186 l -14 -229 b 39 -253 -14 -246 -1 -253 z "},"ю":{"ha":958,"x_min":0,"x_max":0,"o":"m 639 700 l 572 700 b 329 467 417 700 329 617 l 329 383 l 171 383 l 171 676 b 154 693 171 688 167 693 l 107 693 b 90 676 94 693 90 688 l 90 15 b 107 -1 90 4 94 -1 l 154 -1 b 171 15 167 -1 171 4 l 171 310 l 329 310 l 329 226 b 572 -7 329 76 417 -7 l 639 -7 b 882 226 793 -7 882 76 l 882 467 b 639 700 882 617 794 700 z m 801 228 b 639 68 801 126 749 68 l 572 68 b 410 228 463 68 410 126 l 410 465 b 572 625 410 567 463 625 l 639 625 b 801 465 749 625 801 567 z "},"я":{"ha":690,"x_min":0,"x_max":0,"o":"m 583 694 l 275 694 b 82 501 140 694 82 632 b 165 333 82 443 92 364 l 165 326 b 76 161 92 299 76 231 l 76 21 b 94 0 76 7 82 0 l 139 0 b 157 21 151 0 157 7 l 157 163 b 268 288 157 247 186 288 l 519 288 l 519 17 b 536 0 519 6 524 0 l 583 0 b 600 17 596 0 600 6 l 600 678 b 583 694 600 689 596 694 z m 268 360 b 161 501 186 360 161 413 b 268 618 161 579 193 618 l 519 618 l 519 360 z "},"ӣ":{"ha":722,"x_min":0,"x_max":0,"o":"m 150 893 l 600 893 b 621 914 613 893 621 900 l 621 951 b 600 972 621 965 613 972 l 150 972 b 129 951 136 972 129 965 l 129 914 b 150 893 129 900 136 893 z m 107 0 l 194 0 b 219 15 206 0 214 4 l 542 604 l 551 604 l 551 17 b 568 0 551 6 556 0 l 615 0 b 632 17 628 0 632 6 l 632 678 b 615 694 632 689 628 694 l 528 694 b 503 679 517 694 508 690 l 181 90 l 171 90 l 171 678 b 154 694 171 689 167 694 l 107 694 b 90 678 94 694 90 689 l 90 17 b 107 0 90 6 94 0 z "},"ө":{"ha":706,"x_min":0,"x_max":0,"o":"m 386 700 l 319 700 b 76 467 164 700 76 617 l 76 226 b 319 -7 76 76 164 -7 l 386 -7 b 629 226 542 -7 629 76 l 629 467 b 386 700 629 617 540 700 z m 319 625 l 386 625 b 549 465 496 625 549 567 l 549 383 l 157 383 l 157 465 b 319 625 157 567 210 625 z m 386 68 l 319 68 b 157 228 210 68 157 126 l 157 310 l 549 310 l 549 228 b 386 68 549 126 496 68 z "},"ӭ":{"ha":688,"x_min":0,"x_max":0,"o":"m 118 882 l 172 882 b 190 900 186 882 190 886 l 190 954 b 172 972 190 968 186 972 l 118 972 b 100 954 104 972 100 968 l 100 900 b 118 882 100 886 104 882 z m 500 882 l 554 882 b 572 900 568 882 572 886 l 572 954 b 554 972 572 968 568 972 l 500 972 b 482 954 486 972 482 968 l 482 900 b 500 882 482 886 486 882 z m 368 700 l 306 700 b 69 492 160 700 69 622 l 69 486 b 86 469 69 475 74 469 l 132 469 b 149 486 144 469 149 475 l 149 490 b 306 625 149 572 204 625 l 368 625 b 531 463 475 625 531 564 l 531 379 l 386 379 b 369 363 375 379 369 375 l 369 322 b 386 306 369 310 375 306 l 531 306 l 531 231 b 338 67 531 129 472 67 l 329 67 b 147 140 218 67 181 89 b 117 149 140 151 135 157 l 90 136 b 81 110 75 129 75 122 b 329 -7 117 38 186 -7 l 340 -7 b 611 229 522 -7 611 79 l 611 464 b 368 700 611 614 521 700 z "},"ӯ":{"ha":721,"x_min":0,"x_max":0,"o":"m 138 893 l 588 893 b 608 914 600 893 608 900 l 608 951 b 588 972 608 965 600 972 l 138 972 b 117 951 124 972 117 965 l 117 914 b 138 893 117 900 124 893 z m 653 694 l 600 694 b 578 672 586 694 583 688 l 364 93 l 356 93 l 142 672 b 119 694 136 688 133 694 l 68 694 b 57 674 54 694 53 686 l 318 -15 l 238 -225 b 250 -246 233 -236 236 -246 l 300 -246 b 321 -225 314 -246 317 -236 l 664 674 b 653 694 668 686 667 694 z "},"Δ":{"ha":821,"x_min":0,"x_max":0,"o":"m 792 22 l 488 990 b 461 1013 483 1004 474 1013 l 417 1013 b 390 990 404 1013 394 1004 l 85 22 b 100 0 79 7 86 0 l 775 0 b 792 22 789 0 797 7 z m 188 83 l 440 881 l 688 83 z "},"Ω":{"ha":847,"x_min":0,"x_max":0,"o":"m 750 289 l 750 738 b 475 1025 750 922 635 1025 l 372 1025 b 97 738 213 1025 97 922 l 97 289 b 213 83 97 193 139 129 l 118 83 b 97 63 104 83 97 76 l 97 21 b 118 0 97 7 104 0 l 367 0 b 388 21 381 0 388 7 l 388 64 b 367 85 388 78 381 85 l 363 85 b 181 297 272 85 181 181 l 181 733 b 375 942 181 875 257 942 l 472 942 b 667 733 590 942 667 875 l 667 297 b 485 85 667 181 575 85 l 481 85 b 460 64 467 85 460 78 l 460 21 b 481 0 460 7 467 0 l 729 0 b 750 21 743 0 750 7 l 750 63 b 729 83 750 76 743 83 l 635 83 b 750 289 708 129 750 193 z "},"μ":{"ha":733,"x_min":0,"x_max":0,"o":"m 626 694 l 579 694 b 563 678 567 694 563 689 l 563 233 b 385 69 563 131 499 69 l 335 69 b 171 235 219 69 171 128 l 171 678 b 154 694 171 689 167 694 l 107 694 b 90 678 94 694 90 689 l 90 -257 b 111 -278 90 -271 97 -278 l 149 -278 b 169 -257 163 -278 169 -271 l 169 32 b 318 -6 206 7 254 -6 l 364 -6 b 549 79 449 -6 513 28 l 563 79 l 563 17 b 579 0 563 6 567 0 l 626 0 b 643 17 639 0 643 6 l 643 678 b 626 694 643 689 639 694 z "},"π":{"ha":799,"x_min":0,"x_max":0,"o":"m 722 694 l 75 694 b 56 674 61 694 56 688 l 56 632 b 76 611 56 618 61 611 l 136 611 l 136 21 b 157 0 136 7 143 0 l 199 0 b 219 21 213 0 219 7 l 219 611 l 578 611 l 578 21 b 599 0 578 7 585 0 l 640 0 b 661 21 654 0 661 7 l 661 611 l 722 611 b 743 631 736 611 743 618 l 743 674 b 722 694 743 686 736 694 z "},"¹":{"ha":419,"x_min":0,"x_max":0,"o":"m 167 951 l 167 564 b 188 543 167 550 174 543 l 232 543 b 253 564 246 543 253 550 l 253 951 b 232 972 253 965 246 972 l 188 972 b 167 951 174 972 167 965 z "},"²":{"ha":444,"x_min":0,"x_max":0,"o":"m 340 624 l 190 624 l 268 692 b 360 847 317 733 360 776 b 240 972 360 913 322 972 l 206 972 b 83 857 129 972 83 924 l 83 839 b 104 818 83 825 90 818 l 146 818 b 167 839 160 818 167 825 l 167 849 b 218 893 167 878 188 893 b 275 839 253 893 275 874 b 226 761 275 807 250 783 l 106 647 b 86 608 92 635 86 628 l 86 563 b 107 542 86 549 93 542 l 340 542 b 361 563 354 542 361 549 l 361 603 b 340 624 361 617 354 624 z "},"³":{"ha":449,"x_min":0,"x_max":0,"o":"m 301 757 b 360 853 343 778 360 810 b 243 972 360 913 322 972 l 208 972 b 86 857 132 972 86 924 l 86 839 b 107 818 86 825 93 818 l 149 818 b 169 839 163 818 169 825 l 169 849 b 224 893 169 878 190 893 b 278 840 258 893 278 874 b 226 793 278 810 264 793 l 204 793 b 185 772 192 793 185 786 l 185 742 b 204 721 185 728 192 721 l 226 721 b 281 674 267 721 281 704 b 224 621 281 640 261 621 b 167 665 188 621 167 636 l 167 675 b 146 696 167 689 160 696 l 104 696 b 83 675 90 696 83 689 l 83 657 b 208 542 83 590 129 542 l 243 542 b 368 661 331 542 368 601 b 301 757 368 704 346 736 z "},"⁄":{"ha":175,"x_min":0,"x_max":0,"o":"m 321 951 l -240 21 b -226 0 -249 7 -240 0 l -174 0 b -146 21 -160 0 -154 7 l 415 951 b 401 972 424 965 415 972 l 349 972 b 321 951 335 972 329 965 z "},"½":{"ha":1039,"x_min":0,"x_max":0,"o":"m 167 951 l 167 564 b 188 543 167 550 174 543 l 232 543 b 253 564 246 543 253 550 l 253 951 b 232 972 253 965 246 972 l 188 972 b 167 951 174 972 167 965 z m 740 951 l 179 21 b 193 0 171 7 179 0 l 246 0 b 274 21 260 0 265 7 l 835 951 b 821 972 843 965 835 972 l 768 972 b 740 951 754 972 749 965 z m 935 82 l 785 82 l 863 150 b 954 306 911 192 954 235 b 835 431 954 371 917 431 l 800 431 b 678 315 724 431 678 382 l 678 297 b 699 276 678 283 685 276 l 740 276 b 761 297 754 276 761 283 l 761 307 b 813 351 761 336 782 351 b 869 297 847 351 869 332 b 821 219 869 265 844 242 l 700 106 b 681 67 686 93 681 86 l 681 21 b 701 0 681 7 688 0 l 935 0 b 956 21 949 0 956 7 l 956 61 b 935 82 956 75 949 82 z "},"¼":{"ha":1061,"x_min":0,"x_max":0,"o":"m 167 951 l 167 564 b 188 543 167 550 174 543 l 232 543 b 253 564 246 543 253 550 l 253 951 b 232 972 253 965 246 972 l 188 972 b 167 951 174 972 167 965 z m 740 951 l 179 21 b 193 0 171 7 179 0 l 246 0 b 274 21 260 0 265 7 l 835 951 b 821 972 843 965 835 972 l 768 972 b 740 951 754 972 749 965 z m 957 150 l 938 150 l 938 410 b 917 431 938 424 931 431 l 847 431 b 824 415 839 431 829 426 l 685 151 b 678 126 682 146 678 138 l 678 92 b 701 71 678 78 686 71 l 854 71 l 854 21 b 875 0 854 7 861 0 l 917 0 b 938 21 931 0 938 7 l 938 71 l 957 71 b 978 92 971 71 978 78 l 978 129 b 957 150 978 143 971 150 z m 854 153 l 774 153 l 854 315 z "},"¾":{"ha":1090,"x_min":0,"x_max":0,"o":"m 301 757 b 360 853 343 778 360 810 b 243 972 360 913 322 972 l 208 972 b 86 857 132 972 86 924 l 86 839 b 107 818 86 825 93 818 l 149 818 b 169 839 163 818 169 825 l 169 849 b 224 893 169 878 190 893 b 278 840 258 893 278 874 b 226 793 278 810 264 793 l 204 793 b 185 772 192 793 185 786 l 185 742 b 204 721 185 728 192 721 l 226 721 b 281 674 267 721 281 704 b 224 621 281 640 261 621 b 167 665 188 621 167 636 l 167 675 b 146 696 167 689 160 696 l 104 696 b 83 675 90 696 83 689 l 83 657 b 208 542 83 590 129 542 l 243 542 b 368 661 331 542 368 601 b 301 757 368 704 346 736 z m 769 951 l 208 21 b 222 0 200 7 208 0 l 275 0 b 303 21 289 0 294 7 l 864 951 b 850 972 872 965 864 972 l 797 972 b 769 951 783 972 778 965 z m 986 150 l 967 150 l 967 410 b 946 431 967 424 960 431 l 876 431 b 853 415 868 431 858 426 l 714 151 b 707 126 711 146 707 138 l 707 92 b 731 71 707 78 715 71 l 883 71 l 883 21 b 904 0 883 7 890 0 l 946 0 b 967 21 960 0 967 7 l 967 71 l 986 71 b 1007 92 1000 71 1007 78 l 1007 129 b 986 150 1007 143 1000 150 z m 883 153 l 803 153 l 883 315 z "},"⅛":{"ha":1043,"x_min":0,"x_max":0,"o":"m 167 951 l 167 564 b 188 543 167 550 174 543 l 232 543 b 253 564 246 543 253 550 l 253 951 b 232 972 253 965 246 972 l 188 972 b 167 951 174 972 167 965 z m 740 951 l 179 21 b 193 0 171 7 179 0 l 246 0 b 274 21 260 0 265 7 l 835 951 b 821 972 843 965 835 972 l 768 972 b 740 951 754 972 749 965 z m 903 226 b 949 317 931 244 949 274 b 831 431 949 381 907 431 l 807 431 b 689 317 735 431 689 381 b 735 226 689 274 707 244 b 678 122 707 210 678 182 b 806 0 678 50 721 0 l 832 0 b 960 122 917 0 960 50 b 903 226 960 182 931 210 z m 822 258 l 815 258 b 769 307 788 258 769 276 b 815 356 769 338 788 356 l 822 356 b 868 307 850 356 868 338 b 822 258 868 276 850 258 z m 811 78 b 763 131 782 78 763 94 b 811 186 763 165 782 186 l 826 186 b 875 131 856 186 875 165 b 826 78 875 94 856 78 z "},"⅜":{"ha":1072,"x_min":0,"x_max":0,"o":"m 301 757 b 360 853 343 778 360 810 b 243 972 360 913 322 972 l 208 972 b 86 857 132 972 86 924 l 86 839 b 107 818 86 825 93 818 l 149 818 b 169 839 163 818 169 825 l 169 849 b 224 893 169 878 190 893 b 278 840 258 893 278 874 b 226 793 278 810 264 793 l 204 793 b 185 772 192 793 185 786 l 185 742 b 204 721 185 728 192 721 l 226 721 b 281 674 267 721 281 704 b 224 621 281 640 261 621 b 167 665 188 621 167 636 l 167 675 b 146 696 167 689 160 696 l 104 696 b 83 675 90 696 83 689 l 83 657 b 208 542 83 590 129 542 l 243 542 b 368 661 331 542 368 601 b 301 757 368 704 346 736 z m 769 951 l 208 21 b 222 0 200 7 208 0 l 275 0 b 303 21 289 0 294 7 l 864 951 b 850 972 872 965 864 972 l 797 972 b 769 951 783 972 778 965 z m 932 226 b 978 317 960 244 978 274 b 860 431 978 381 936 431 l 836 431 b 718 317 764 431 718 381 b 764 226 718 274 736 244 b 707 122 736 210 707 182 b 835 0 707 50 750 0 l 861 0 b 989 122 946 0 989 50 b 932 226 989 182 960 210 z m 851 258 l 844 258 b 799 307 817 258 799 276 b 844 356 799 338 817 356 l 851 356 b 897 307 879 356 897 338 b 851 258 897 276 879 258 z m 840 78 b 792 131 811 78 792 94 b 840 186 792 165 811 186 l 856 186 b 904 131 885 186 904 165 b 856 78 904 94 885 78 z "},"⅝":{"ha":1075,"x_min":0,"x_max":0,"o":"m 238 824 b 169 799 215 824 188 818 l 169 892 l 332 892 b 353 913 346 892 353 899 l 353 951 b 332 972 353 965 346 972 l 110 972 b 89 951 96 972 89 965 l 89 757 b 110 736 89 743 96 736 l 168 736 b 221 754 181 749 201 754 b 281 682 268 754 281 726 b 224 621 281 640 261 621 b 167 665 188 621 167 636 l 167 675 b 146 696 167 689 160 696 l 104 696 b 83 675 90 696 83 689 l 83 657 b 208 542 83 590 129 542 l 243 542 b 368 682 331 542 368 601 b 238 824 368 769 325 824 z m 772 951 l 211 21 b 225 0 203 7 211 0 l 278 0 b 306 21 292 0 297 7 l 867 951 b 853 972 875 965 867 972 l 800 972 b 772 951 786 972 781 965 z m 935 226 b 981 317 963 244 981 274 b 863 431 981 381 939 431 l 839 431 b 721 317 767 431 721 381 b 767 226 721 274 739 244 b 710 122 739 210 710 182 b 838 0 710 50 753 0 l 864 0 b 992 122 949 0 992 50 b 935 226 992 182 963 210 z m 854 258 l 847 258 b 801 307 819 258 801 276 b 847 356 801 338 819 356 l 854 356 b 900 307 882 356 900 338 b 854 258 900 276 882 258 z m 843 78 b 794 131 814 78 794 94 b 843 186 794 165 814 186 l 858 186 b 907 131 888 186 907 165 b 858 78 907 94 888 78 z "},"⅞":{"ha":1060,"x_min":0,"x_max":0,"o":"m 353 908 l 353 951 b 332 972 353 965 346 972 l 104 972 b 83 951 90 972 83 965 l 83 910 b 104 889 83 896 90 889 l 260 889 l 104 561 b 117 542 100 551 104 542 l 175 542 b 197 561 186 542 193 551 l 347 885 b 353 908 353 896 353 903 z m 757 951 l 196 21 b 210 0 188 7 196 0 l 263 0 b 290 21 276 0 282 7 l 851 951 b 838 972 860 965 851 972 l 785 972 b 757 951 771 972 765 965 z m 919 226 b 965 317 947 244 965 274 b 847 431 965 381 924 431 l 824 431 b 706 317 751 431 706 381 b 751 226 706 274 724 244 b 694 122 724 210 694 182 b 822 0 694 50 738 0 l 849 0 b 976 122 933 0 976 50 b 919 226 976 182 947 210 z m 839 258 l 832 258 b 786 307 804 258 786 276 b 832 356 786 338 804 356 l 839 356 b 885 307 867 356 885 338 b 839 258 885 276 867 258 z m 828 78 b 779 131 799 78 779 94 b 828 186 779 165 799 186 l 843 186 b 892 131 872 186 892 165 b 843 78 892 94 872 78 z "},".":{"ha":188,"x_min":0,"x_max":0,"o":"m 67 0 l 121 0 b 139 18 135 0 139 4 l 139 72 b 121 90 139 86 135 90 l 67 90 b 49 72 53 90 49 86 l 49 18 b 67 0 49 4 53 0 z "},",":{"ha":215,"x_min":0,"x_max":0,"o":"m 149 90 l 111 90 b 93 72 97 90 93 86 l 93 -124 l 53 -124 b 35 -142 39 -124 35 -128 l 35 -175 b 53 -193 35 -189 39 -193 l 133 -193 b 167 -160 157 -193 167 -183 l 167 72 b 149 90 167 86 163 90 z "},":":{"ha":188,"x_min":0,"x_max":0,"o":"m 67 604 l 121 604 b 139 622 135 604 139 608 l 139 676 b 121 694 139 690 135 694 l 67 694 b 49 676 53 694 49 690 l 49 622 b 67 604 49 608 53 604 z m 67 0 l 121 0 b 139 18 135 0 139 4 l 139 72 b 121 90 139 86 135 90 l 67 90 b 49 72 53 90 49 86 l 49 18 b 67 0 49 4 53 0 z "},";":{"ha":238,"x_min":0,"x_max":0,"o":"m 117 604 l 171 604 b 189 622 185 604 189 608 l 189 676 b 171 694 189 690 185 694 l 117 694 b 99 676 103 694 99 690 l 99 622 b 117 604 99 608 103 604 z m 163 90 l 125 90 b 107 72 111 90 107 86 l 107 -124 l 67 -124 b 49 -142 53 -124 49 -128 l 49 -175 b 67 -193 49 -189 53 -193 l 147 -193 b 181 -160 171 -193 181 -183 l 181 72 b 163 90 181 86 176 90 z "}}}
